{
.appVersion = "3436";
.formatVersion = 3;
DisplayStrings = (
"क ख ग घ ङ च छ ज झ ञ/CR ट ठ ड ढ ण त थ द ध न/CR फ प ब भ म य र ल व श स ह/CR/CR/CR राधा की सखी मीना रात मिलकर घर सजाया /CR राधा िदवाली फर दीया जला दीय ठडी /CR क रोशनी घर जगमगा मिलकर हलवा खीर /CR बाहर की हवा चल रही थी छल कर परक /CR i am on a hill. moon light glow a path /CR up high. no bird will cry. cold wind /CR will blow. no harm will find a way.I/CR/CR/CR/CR/CR/CR/CR/CR/CR/CR/CR/CR/CR/CR/CR क ख ग घ ङ च छ ज झ ञ/CR ट ठ ड ढ ण त थ द ध न/CR फ प ब भ म य र ल व श स ह/CR nफnininionlthohhinmimom/CR nivohपफnjiमतnpwnoubnqdn/CR/CR/CR/CR/CR क ख ग घ ङ च छ ज झ ञ/CR ट ठ ड ढ ण त थ द ध न/CR फ प ब भ म य र ल व श स ह/CR/CR/CR/CR/CR/CR/CR/CR/CR/CR/CR",
d
);
customParameters = (
{
name = glyphOrder;
value = (
.notdef,
"candrabinduinverted-deva",
"candrabindu-deva",
"anusvara-deva",
"visarga-deva",
"ashort-deva",
"a-deva",
"aa-deva",
"i-deva",
"ii-deva",
"u-deva",
"uu-deva",
"vocalicr-deva",
"vocalicl-deva",
"ecandra-deva",
"eshort-deva",
"e-deva",
"ai-deva",
"ocandra-deva",
"oshort-deva",
"o-deva",
"au-deva",
"ka-deva",
"kha-deva",
"ga-deva",
"gha-deva",
"nga-deva",
"ca-deva",
"cha-deva",
"ja-deva",
"jha-deva",
"nya-deva",
"tta-deva",
"ttha-deva",
"dda-deva",
"ddha-deva",
"nna-deva",
"ta-deva",
"tha-deva",
"da-deva",
"dha-deva",
"na-deva",
"nnna-deva",
"pa-deva",
"pha-deva",
"ba-deva",
"bha-deva",
"ma-deva",
"ya-deva",
"ra-deva",
"rra-deva",
"la-deva",
"lla-deva",
"llla-deva",
"va-deva",
"sha-deva",
"ssa-deva",
"sa-deva",
"ha-deva",
"oesign-deva",
"ooesign-deva",
"nukta-deva",
"avagraha-deva",
"aasign-deva",
"isign-deva",
"iisign-deva",
"usign-deva",
"uusign-deva",
"vocalicrsign-deva",
"vocalicrrsign-deva",
"esigncandra-deva",
"esignshort-deva",
"esign-deva",
"aisign-deva",
"osigncandra-deva",
"osignshort-deva",
"osign-deva",
"ausign-deva",
"virama-deva",
"esignprishthamatra-deva",
"awsign-deva",
"om-deva",
"esigncandralong-deva",
"uesign-deva",
"uuesign-deva",
"qa-deva",
"khha-deva",
"ghha-deva",
"za-deva",
"dddha-deva",

glyphs = (
{
color = (153,154,255,255);
glyphname = "a-deva";
layers = (
{
associatedMasterId = "C2F00A16-B8FC-45C7-B93F-EF9B74B5AB22";
layerId = "FE78773B-512F-4101-9AD8-73FA1C6AF20E";
name = "12";
shapes = (
{
attr = {
strokeWidth = 80;
};
closed = 0;
nodes = (
(599,627,l),
(599,0,l)
);
},
{
attr = {
strokeWidth = 80;
};
closed = 0;
nodes = (
(398,660,l),
(739,660,l)
);
},
{
attr = {
strokeWidth = 80;
};
closed = 0;
nodes = (
(106,382,l),
(157,382,o),
(288,376,o),
(313,503,cs),
(353,700,o),
(57,713,o),
(61,561,c)
);
},
{
attr = {
strokeWidth = 80;
};
closed = 0;
nodes = (
(0,159,l),
(0,28,o),
(340,6,o),
(348,200,cs),
(355,377,o),
(189,384,o),
(107,383,c)
);
},
{
attr = {
strokeWidth = 80;
};
closed = 0;
nodes = (
(329,318,l),
(566,318,l)
);
}
);
width = 721;
},
{
associatedMasterId = "C2F00A16-B8FC-45C7-B93F-EF9B74B5AB22";
layerId = "36EA3D75-F920-4DC1-A723-CC5553715AE8";
name = "11";
shapes = (
{
attr = {
strokeWidth = 80;
};
closed = 0;
nodes = (
(599,627,l),
(599,0,l)
);
},
{
attr = {
strokeWidth = 80;
};
closed = 0;
nodes = (
(398,660,l),
(739,660,l)
);
},
{
attr = {
strokeWidth = 80;
};
closed = 0;
nodes = (
(106,382,l),
(157,382,o),
(288,376,o),
(313,503,cs),
(353,700,o),
(57,713,o),
(61,561,c)
);
},
{
attr = {
strokeWidth = 80;
};
closed = 0;
nodes = (
(0,159,l),
(0,28,o),
(340,6,o),
(348,200,cs),
(355,377,o),
(189,384,o),
(107,383,c)
);
},
{
attr = {
strokeWidth = 80;
};
closed = 0;
nodes = (
(329,318,l),
(566,318,l)
);
}
);
width = 721;
},
{
associatedMasterId = "C2F00A16-B8FC-45C7-B93F-EF9B74B5AB22";
layerId = "CAE1915B-9FDE-4489-97BD-7D6B90151569";
name = "10";
shapes = (
{
attr = {
strokeWidth = 80;
};
closed = 0;
nodes = (
(599,627,l),
(599,0,l)
);
},
{
attr = {
strokeWidth = 80;
};
closed = 0;
nodes = (
(398,660,l),
(739,660,l)
);
},
{
attr = {
strokeWidth = 80;
};
closed = 0;
nodes = (
(106,382,l),
(157,382,o),
(288,376,o),
(313,503,cs),
(353,700,o),
(57,713,o),
(61,561,c)
);
},
{
attr = {
strokeWidth = 80;
};
closed = 0;
nodes = (
(0,159,l),
(0,28,o),
(340,6,o),
(348,200,cs),
(355,377,o),
(189,384,o),
(107,383,c)
);
},
{
attr = {
strokeWidth = 80;
};
closed = 0;
nodes = (
(329,318,l),
(566,318,l)
);
}
);
width = 721;
},
{
associatedMasterId = "C2F00A16-B8FC-45C7-B93F-EF9B74B5AB22";
layerId = "260935F4-0920-4742-A130-A8234FBF7728";
name = "9";
shapes = (
{
attr = {
strokeWidth = 80;
};
closed = 0;
nodes = (
(599,627,l),
(599,0,l)
);
},
{
attr = {
strokeWidth = 80;
};
closed = 0;
nodes = (
(398,660,l),
(739,660,l)
);
},
{
attr = {
strokeWidth = 80;
};
closed = 0;
nodes = (
(106,382,l),
(157,382,o),
(290,376,o),
(315,503,cs),
(355,700,o),
(59,713,o),
(63,561,c)
);
},
{
attr = {
strokeWidth = 80;
};
closed = 0;
nodes = (
(0,159,l),
(0,28,o),
(350,6,o),
(358,200,cs),
(365,377,o),
(199,384,o),
(117,383,c)
);
},
{
attr = {
strokeWidth = 80;
};
closed = 0;
nodes = (
(329,320,l),
(566,320,l)
);
}
);
width = 721;
},
{
associatedMasterId = "C2F00A16-B8FC-45C7-B93F-EF9B74B5AB22";
layerId = "79D9A9A0-51C8-477C-8261-CB1E9E61E647";
name = "8";
shapes = (
{
attr = {
strokeWidth = 80;
};
closed = 0;
nodes = (
(599,627,l),
(599,0,l)
);
},
{
attr = {
strokeWidth = 80;
};
closed = 0;
nodes = (
(398,660,l),
(739,660,l)
);
},
{
attr = {
strokeWidth = 80;
};
closed = 0;
nodes = (
(106,382,l),
(157,382,o),
(288,376,o),
(313,503,cs),
(353,700,o),
(57,713,o),
(61,561,c)
);
},
{
attr = {
strokeWidth = 80;
};
closed = 0;
nodes = (
(0,159,l),
(0,28,o),
(340,6,o),
(348,200,cs),
(355,377,o),
(189,384,o),
(107,383,c)
);
},
{
attr = {
strokeWidth = 80;
};
closed = 0;
nodes = (
(329,318,l),
(566,318,l)
);
}
);
width = 721;
},
{
associatedMasterId = "C2F00A16-B8FC-45C7-B93F-EF9B74B5AB22";
layerId = "B0096FDF-59B7-4C62-87EE-8D10DBD6B80A";
name = "7";
shapes = (
{
attr = {
strokeWidth = 80;
};
closed = 0;
nodes = (
(599,627,l),
(599,0,l)
);
},
{
attr = {
strokeWidth = 80;
};
closed = 0;
nodes = (
(398,660,l),
(739,660,l)
);
},
{
attr = {
strokeWidth = 80;
};
closed = 0;
nodes = (
(106,382,l),
(157,382,o),
(288,376,o),
(313,503,cs),
(353,700,o),
(57,713,o),
(61,561,c)
);
},
{
attr = {
strokeWidth = 80;
};
closed = 0;
nodes = (
(0,159,l),
(0,28,o),
(340,6,o),
(348,200,cs),
(355,377,o),
(189,384,o),
(107,383,c)
);
},
{
attr = {
strokeWidth = 80;
};
closed = 0;
nodes = (
(329,318,l),
(566,318,l)
);
}
);
width = 721;
},
{
associatedMasterId = "C2F00A16-B8FC-45C7-B93F-EF9B74B5AB22";
layerId = "74A7CB8F-5DF7-4588-B7E3-78EF3C7FB18D";
name = "6";
shapes = (
{
attr = {
strokeWidth = 80;
};
closed = 0;
nodes = (
(599,627,l),
(599,0,l)
);
},
{
attr = {
strokeWidth = 80;
};
closed = 0;
nodes = (
(398,660,l),
(739,660,l)
);
},
{
attr = {
strokeWidth = 80;
};
closed = 0;
nodes = (
(106,382,l),
(157,382,o),
(288,376,o),
(313,503,cs),
(353,700,o),
(57,713,o),
(61,561,c)
);
},
{
attr = {
strokeWidth = 80;
};
closed = 0;
nodes = (
(0,159,l),
(0,28,o),
(340,6,o),
(348,200,cs),
(355,377,o),
(189,384,o),
(107,383,c)
);
},
{
attr = {
strokeWidth = 80;
};
closed = 0;
nodes = (
(329,318,l),
(566,318,l)
);
}
);
width = 721;
},
{
associatedMasterId = "C2F00A16-B8FC-45C7-B93F-EF9B74B5AB22";
layerId = "16D08582-E3A6-4222-91FC-A2475832A6BD";
name = "3";
shapes = (
{
attr = {
strokeWidth = 80;
};
closed = 0;
nodes = (
(599,627,l),
(599,0,l)
);
},
{
attr = {
strokeWidth = 80;
};
closed = 0;
nodes = (
(398,660,l),
(739,660,l)
);
},
{
attr = {
strokeWidth = 80;
};
closed = 0;
nodes = (
(106,382,l),
(157,382,o),
(288,376,o),
(313,503,cs),
(353,700,o),
(57,713,o),
(61,561,c)
);
},
{
attr = {
strokeWidth = 80;
};
closed = 0;
nodes = (
(0,159,l),
(0,28,o),
(340,6,o),
(348,200,cs),
(355,377,o),
(189,384,o),
(107,383,c)
);
},
{
attr = {
strokeWidth = 80;
};
closed = 0;
nodes = (
(329,318,l),
(566,318,l)
);
}
);
width = 721;
},
{
associatedMasterId = "C2F00A16-B8FC-45C7-B93F-EF9B74B5AB22";
layerId = "4170FEE2-2F45-413A-BF89-0C4C760EB048";
name = "1";
shapes = (
{
attr = {
strokeWidth = 80;
};
closed = 0;
nodes = (
(599,627,l),
(599,0,l)
);
},
{
attr = {
strokeWidth = 80;
};
closed = 0;
nodes = (
(398,660,l),
(796,660,l)
);
},
{
attr = {
strokeWidth = 80;
};
closed = 0;
nodes = (
(106,382,l),
(157,382,o),
(288,376,o),
(313,503,cs),
(353,700,o),
(57,713,o),
(61,561,c)
);
},
{
attr = {
strokeWidth = 80;
};
closed = 0;
nodes = (
(0,159,l),
(0,28,o),
(340,6,o),
(348,200,cs),
(355,377,o),
(189,384,o),
(107,383,c)
);
},
{
attr = {
strokeWidth = 80;
};
closed = 0;
nodes = (
(329,318,l),
(566,318,l)
);
}
);
width = 761;
},
{
associatedMasterId = "C2F00A16-B8FC-45C7-B93F-EF9B74B5AB22";
layerId = "74287EE6-C037-4679-A01B-34EB5C0D0D36";
name = "4";
shapes = (
{
attr = {
strokeWidth = 80;
};
closed = 0;
nodes = (
(599,627,l),
(599,0,l)
);
},
{
attr = {
strokeWidth = 80;
};
closed = 0;
nodes = (
(398,660,l),
(739,660,l)
);
},
{
attr = {
strokeWidth = 80;
};
closed = 0;
nodes = (
(106,382,l),
(157,382,o),
(288,376,o),
(313,503,cs),
(353,700,o),
(57,713,o),
(61,561,c)
);
},
{
attr = {
strokeWidth = 80;
};
closed = 0;
nodes = (
(0,159,l),
(0,28,o),
(340,6,o),
(348,200,cs),
(355,377,o),
(189,384,o),
(107,383,c)
);
},
{
attr = {
strokeWidth = 80;
};
closed = 0;
nodes = (
(329,318,l),
(566,318,l)
);
}
);
width = 721;
},
{
associatedMasterId = "C2F00A16-B8FC-45C7-B93F-EF9B74B5AB22";
layerId = "9E252814-83E5-476D-BD5F-9B74F315E1C1";
name = "5";
shapes = (
{
attr = {
strokeWidth = 80;
};
closed = 0;
nodes = (
(599,627,l),
(599,0,l)
);
},
{
attr = {
strokeWidth = 80;
};
closed = 0;
nodes = (
(398,660,l),
(739,660,l)
);
},
{
attr = {
strokeWidth = 80;
};
closed = 0;
nodes = (
(106,382,l),
(157,382,o),
(288,376,o),
(313,503,cs),
(353,700,o),
(57,713,o),
(61,561,c)
);
},
{
attr = {
strokeWidth = 80;
};
closed = 0;
nodes = (
(0,159,l),
(0,28,o),
(340,6,o),
(348,200,cs),
(355,377,o),
(189,384,o),
(107,383,c)
);
},
{
attr = {
strokeWidth = 80;
};
closed = 0;
nodes = (
(329,318,l),
(566,318,l)
);
}
);
width = 721;
},
{
associatedMasterId = "C2F00A16-B8FC-45C7-B93F-EF9B74B5AB22";
layerId = "942694AB-FFF7-456E-A631-DD70D9BC4F03";
name = "2";
shapes = (
{
attr = {
strokeWidth = 80;
};
closed = 0;
nodes = (
(599,627,l),
(599,0,l)
);
},
{
attr = {
strokeWidth = 80;
};
closed = 0;
nodes = (
(398,660,l),
(739,660,l)
);
},
{
attr = {
strokeWidth = 80;
};
closed = 0;
nodes = (
(106,382,l),
(157,382,o),
(288,376,o),
(313,503,cs),
(353,700,o),
(57,713,o),
(61,561,c)
);
},
{
attr = {
strokeWidth = 80;
};
closed = 0;
nodes = (
(0,159,l),
(0,28,o),
(340,6,o),
(348,200,cs),
(355,377,o),
(189,384,o),
(107,383,c)
);
},
{
attr = {
strokeWidth = 80;
};
closed = 0;
nodes = (
(329,318,l),
(566,318,l)
);
}
);
width = 721;
},
{
layerId = "C2F00A16-B8FC-45C7-B93F-EF9B74B5AB22";
shapes = (
{
attr = {
strokeWidth = 80;
};
closed = 0;
nodes = (
(599,627,l),
(599,0,l)
);
},
{
attr = {
strokeWidth = 80;
};
closed = 0;
nodes = (
(398,660,l),
(796,660,l)
);
},
{
attr = {
strokeWidth = 80;
};
closed = 0;
nodes = (
(132,382,l),
(178,382,o),
(294,376,o),
(317,503,cs),
(352,700,o),
(88,713,o),
(92,561,c)
);
},
{
attr = {
strokeWidth = 80;
};
closed = 0;
nodes = (
(37,159,l),
(37,28,o),
(342,6,o),
(349,200,cs),
(355,377,o),
(206,384,o),
(133,383,c)
);
},
{
attr = {
strokeWidth = 80;
};
closed = 0;
nodes = (
(332,318,l),
(566,318,l)
);
}
);
width = 761;
}
);
unicode = 2309;
},
{
color = (153,154,255,255);
glyphname = "aa-deva";
layers = (
{
associatedMasterId = "C2F00A16-B8FC-45C7-B93F-EF9B74B5AB22";
layerId = "36EA3D75-F920-4DC1-A723-CC5553715AE8";
name = "11";
shapes = (
{
attr = {
strokeWidth = 80;
};
closed = 0;
nodes = (
(838,627,l),
(838,0,l)
);
},
{
attr = {
strokeWidth = 80;
};
closed = 0;
nodes = (
(559,627,l),
(559,0,l)
);
},
{
attr = {
strokeWidth = 80;
};
closed = 0;
nodes = (
(398,660,l),
(1086,660,l)
);
},
{
attr = {
strokeWidth = 80;
};
closed = 0;
nodes = (
(124,382,l),
(170,382,o),
(286,376,o),
(309,503,cs),
(344,700,o),
(80,713,o),
(84,561,c)
);
},
{
attr = {
strokeWidth = 80;
};
closed = 0;
nodes = (
(29,159,l),
(29,28,o),
(334,6,o),
(341,200,cs),
(347,377,o),
(198,384,o),
(125,383,c)
);
},
{
attr = {
strokeWidth = 80;
};
closed = 0;
nodes = (
(324,318,l),
(566,318,l)
);
}
);
width = 1038;
},
{
associatedMasterId = "C2F00A16-B8FC-45C7-B93F-EF9B74B5AB22";
layerId = "CAE1915B-9FDE-4489-97BD-7D6B90151569";
name = "10";
shapes = (
{
attr = {
strokeWidth = 80;
};
closed = 0;
nodes = (
(838,627,l),
(838,0,l)
);
},
{
attr = {
strokeWidth = 80;
};
closed = 0;
nodes = (
(559,627,l),
(559,0,l)
);
},
{
attr = {
strokeWidth = 80;
};
closed = 0;
nodes = (
(398,660,l),
(1086,660,l)
);
},
{
attr = {
strokeWidth = 80;
};
closed = 0;
nodes = (
(124,382,l),
(170,382,o),
(286,376,o),
(309,503,cs),
(344,700,o),
(80,713,o),
(84,561,c)
);
},
{
attr = {
strokeWidth = 80;
};
closed = 0;
nodes = (
(29,159,l),
(29,28,o),
(334,6,o),
(341,200,cs),
(347,377,o),
(198,384,o),
(125,383,c)
);
},
{
attr = {
strokeWidth = 80;
};
closed = 0;
nodes = (
(324,318,l),
(566,318,l)
);
}
);
width = 1038;
},
{
associatedMasterId = "C2F00A16-B8FC-45C7-B93F-EF9B74B5AB22";
layerId = "260935F4-0920-4742-A130-A8234FBF7728";
name = "9";
shapes = (
{
attr = {
strokeWidth = 80;
};
closed = 0;
nodes = (
(838,627,l),
(838,0,l)
);
},
{
attr = {
strokeWidth = 80;
};
closed = 0;
nodes = (
(559,627,l),
(559,0,l)
);
},
{
attr = {
strokeWidth = 80;
};
closed = 0;
nodes = (
(398,660,l),
(1086,660,l)
);
},
{
attr = {
strokeWidth = 80;
};
closed = 0;
nodes = (
(124,382,l),
(170,382,o),
(286,376,o),
(309,503,cs),
(344,700,o),
(80,713,o),
(84,561,c)
);
},
{
attr = {
strokeWidth = 80;
};
closed = 0;
nodes = (
(29,159,l),
(29,28,o),
(334,6,o),
(341,200,cs),
(347,377,o),
(198,384,o),
(125,383,c)
);
},
{
attr = {
strokeWidth = 80;
};
closed = 0;
nodes = (
(324,318,l),
(566,318,l)
);
}
);
width = 1038;
},
{
associatedMasterId = "C2F00A16-B8FC-45C7-B93F-EF9B74B5AB22";
layerId = "79D9A9A0-51C8-477C-8261-CB1E9E61E647";
name = "8";
shapes = (
{
attr = {
strokeWidth = 80;
};
closed = 0;
nodes = (
(838,627,l),
(838,0,l)
);
},
{
attr = {
strokeWidth = 80;
};
closed = 0;
nodes = (
(559,627,l),
(559,0,l)
);
},
{
attr = {
strokeWidth = 80;
};
closed = 0;
nodes = (
(398,660,l),
(1086,660,l)
);
},
{
attr = {
strokeWidth = 80;
};
closed = 0;
nodes = (
(124,382,l),
(170,382,o),
(286,376,o),
(309,503,cs),
(344,700,o),
(80,713,o),
(84,561,c)
);
},
{
attr = {
strokeWidth = 80;
};
closed = 0;
nodes = (
(29,159,l),
(29,28,o),
(334,6,o),
(341,200,cs),
(347,377,o),
(198,384,o),
(125,383,c)
);
},
{
attr = {
strokeWidth = 80;
};
closed = 0;
nodes = (
(324,318,l),
(566,318,l)
);
}
);
width = 1038;
},
{
associatedMasterId = "C2F00A16-B8FC-45C7-B93F-EF9B74B5AB22";
layerId = "4170FEE2-2F45-413A-BF89-0C4C760EB048";
name = "1";
shapes = (
{
attr = {
strokeWidth = 80;
};
closed = 0;
nodes = (
(838,627,l),
(838,0,l)
);
},
{
attr = {
strokeWidth = 80;
};
closed = 0;
nodes = (
(559,627,l),
(559,0,l)
);
},
{
attr = {
strokeWidth = 80;
};
closed = 0;
nodes = (
(398,660,l),
(1086,660,l)
);
},
{
attr = {
strokeWidth = 80;
};
closed = 0;
nodes = (
(124,382,l),
(170,382,o),
(286,376,o),
(309,503,cs),
(344,700,o),
(80,713,o),
(84,561,c)
);
},
{
attr = {
strokeWidth = 80;
};
closed = 0;
nodes = (
(29,159,l),
(29,28,o),
(334,6,o),
(341,200,cs),
(347,377,o),
(198,384,o),
(125,383,c)
);
},
{
attr = {
strokeWidth = 80;
};
closed = 0;
nodes = (
(324,318,l),
(566,318,l)
);
}
);
width = 1038;
},
{
associatedMasterId = "C2F00A16-B8FC-45C7-B93F-EF9B74B5AB22";
layerId = "B0096FDF-59B7-4C62-87EE-8D10DBD6B80A";
name = "7";
shapes = (
{
attr = {
strokeWidth = 80;
};
closed = 0;
nodes = (
(838,627,l),
(838,0,l)
);
},
{
attr = {
strokeWidth = 80;
};
closed = 0;
nodes = (
(559,627,l),
(559,0,l)
);
},
{
attr = {
strokeWidth = 80;
};
closed = 0;
nodes = (
(398,660,l),
(1086,660,l)
);
},
{
attr = {
strokeWidth = 80;
};
closed = 0;
nodes = (
(124,382,l),
(170,382,o),
(286,376,o),
(309,503,cs),
(344,700,o),
(80,713,o),
(84,561,c)
);
},
{
attr = {
strokeWidth = 80;
};
closed = 0;
nodes = (
(29,159,l),
(29,28,o),
(334,6,o),
(341,200,cs),
(347,377,o),
(198,384,o),
(125,383,c)
);
},
{
attr = {
strokeWidth = 80;
};
closed = 0;
nodes = (
(324,318,l),
(566,318,l)
);
}
);
width = 1038;
},
{
associatedMasterId = "C2F00A16-B8FC-45C7-B93F-EF9B74B5AB22";
layerId = "74A7CB8F-5DF7-4588-B7E3-78EF3C7FB18D";
name = "6";
shapes = (
{
attr = {
strokeWidth = 80;
};
closed = 0;
nodes = (
(838,627,l),
(838,0,l)
);
},
{
attr = {
strokeWidth = 80;
};
closed = 0;
nodes = (
(559,627,l),
(559,0,l)
);
},
{
attr = {
strokeWidth = 80;
};
closed = 0;
nodes = (
(398,660,l),
(1086,660,l)
);
},
{
attr = {
strokeWidth = 80;
};
closed = 0;
nodes = (
(124,382,l),
(170,382,o),
(286,376,o),
(309,503,cs),
(344,700,o),
(80,713,o),
(84,561,c)
);
},
{
attr = {
strokeWidth = 80;
};
closed = 0;
nodes = (
(29,159,l),
(29,28,o),
(334,6,o),
(341,200,cs),
(347,377,o),
(198,384,o),
(125,383,c)
);
},
{
attr = {
strokeWidth = 80;
};
closed = 0;
nodes = (
(324,318,l),
(566,318,l)
);
}
);
width = 1038;
},
{
associatedMasterId = "C2F00A16-B8FC-45C7-B93F-EF9B74B5AB22";
layerId = "16D08582-E3A6-4222-91FC-A2475832A6BD";
name = "3";
shapes = (
{
attr = {
strokeWidth = 80;
};
closed = 0;
nodes = (
(838,627,l),
(838,0,l)
);
},
{
attr = {
strokeWidth = 80;
};
closed = 0;
nodes = (
(559,627,l),
(559,0,l)
);
},
{
attr = {
strokeWidth = 80;
};
closed = 0;
nodes = (
(398,660,l),
(1086,660,l)
);
},
{
attr = {
strokeWidth = 80;
};
closed = 0;
nodes = (
(124,382,l),
(170,382,o),
(286,376,o),
(309,503,cs),
(344,700,o),
(80,713,o),
(84,561,c)
);
},
{
attr = {
strokeWidth = 80;
};
closed = 0;
nodes = (
(29,159,l),
(29,28,o),
(334,6,o),
(341,200,cs),
(347,377,o),
(198,384,o),
(125,383,c)
);
},
{
attr = {
strokeWidth = 80;
};
closed = 0;
nodes = (
(324,318,l),
(566,318,l)
);
}
);
width = 1038;
},
{
associatedMasterId = "C2F00A16-B8FC-45C7-B93F-EF9B74B5AB22";
layerId = "942694AB-FFF7-456E-A631-DD70D9BC4F03";
name = "2";
shapes = (
{
attr = {
strokeWidth = 80;
};
closed = 0;
nodes = (
(838,627,l),
(838,0,l)
);
},
{
attr = {
strokeWidth = 80;
};
closed = 0;
nodes = (
(559,627,l),
(559,0,l)
);
},
{
attr = {
strokeWidth = 80;
};
closed = 0;
nodes = (
(398,660,l),
(1086,660,l)
);
},
{
attr = {
strokeWidth = 80;
};
closed = 0;
nodes = (
(124,382,l),
(170,382,o),
(286,376,o),
(309,503,cs),
(344,700,o),
(80,713,o),
(84,561,c)
);
},
{
attr = {
strokeWidth = 80;
};
closed = 0;
nodes = (
(29,159,l),
(29,28,o),
(334,6,o),
(341,200,cs),
(347,377,o),
(198,384,o),
(125,383,c)
);
},
{
attr = {
strokeWidth = 80;
};
closed = 0;
nodes = (
(324,318,l),
(566,318,l)
);
}
);
width = 1038;
},
{
associatedMasterId = "C2F00A16-B8FC-45C7-B93F-EF9B74B5AB22";
layerId = "74287EE6-C037-4679-A01B-34EB5C0D0D36";
name = "4";
shapes = (
{
attr = {
strokeWidth = 80;
};
closed = 0;
nodes = (
(838,627,l),
(838,0,l)
);
},
{
attr = {
strokeWidth = 80;
};
closed = 0;
nodes = (
(559,627,l),
(559,0,l)
);
},
{
attr = {
strokeWidth = 80;
};
closed = 0;
nodes = (
(398,660,l),
(1086,660,l)
);
},
{
attr = {
strokeWidth = 80;
};
closed = 0;
nodes = (
(124,382,l),
(170,382,o),
(286,376,o),
(309,503,cs),
(344,700,o),
(80,713,o),
(84,561,c)
);
},
{
attr = {
strokeWidth = 80;
};
closed = 0;
nodes = (
(29,159,l),
(29,28,o),
(334,6,o),
(341,200,cs),
(347,377,o),
(198,384,o),
(125,383,c)
);
},
{
attr = {
strokeWidth = 80;
};
closed = 0;
nodes = (
(324,318,l),
(566,318,l)
);
}
);
width = 1038;
},
{
associatedMasterId = "C2F00A16-B8FC-45C7-B93F-EF9B74B5AB22";
layerId = "9E252814-83E5-476D-BD5F-9B74F315E1C1";
name = "5";
shapes = (
{
attr = {
strokeWidth = 80;
};
closed = 0;
nodes = (
(838,627,l),
(838,0,l)
);
},
{
attr = {
strokeWidth = 80;
};
closed = 0;
nodes = (
(559,627,l),
(559,0,l)
);
},
{
attr = {
strokeWidth = 80;
};
closed = 0;
nodes = (
(398,660,l),
(1086,660,l)
);
},
{
attr = {
strokeWidth = 80;
};
closed = 0;
nodes = (
(124,382,l),
(170,382,o),
(286,376,o),
(309,503,cs),
(344,700,o),
(80,713,o),
(84,561,c)
);
},
{
attr = {
strokeWidth = 80;
};
closed = 0;
nodes = (
(29,159,l),
(29,28,o),
(334,6,o),
(341,200,cs),
(347,377,o),
(198,384,o),
(125,383,c)
);
},
{
attr = {
strokeWidth = 80;
};
closed = 0;
nodes = (
(324,318,l),
(566,318,l)
);
}
);
width = 1038;
},
{
layerId = "C2F00A16-B8FC-45C7-B93F-EF9B74B5AB22";
shapes = (
{
attr = {
strokeWidth = 80;
};
closed = 0;
nodes = (
(838,627,l),
(838,0,l)
);
},
{
attr = {
strokeWidth = 80;
};
closed = 0;
nodes = (
(559,627,l),
(559,0,l)
);
},
{
attr = {
strokeWidth = 80;
};
closed = 0;
nodes = (
(398,660,l),
(1086,660,l)
);
},
{
attr = {
strokeWidth = 80;
};
closed = 0;
nodes = (
(124,382,l),
(170,382,o),
(286,376,o),
(309,503,cs),
(344,700,o),
(80,713,o),
(84,561,c)
);
},
{
attr = {
strokeWidth = 80;
};
closed = 0;
nodes = (
(29,159,l),
(29,28,o),
(334,6,o),
(341,200,cs),
(347,377,o),
(198,384,o),
(125,383,c)
);
},
{
attr = {
strokeWidth = 80;
};
closed = 0;
nodes = (
(324,318,l),
(566,318,l)
);
}
);
width = 1038;
}
);
unicode = 2310;
},
{
color = (153,154,255,255);
glyphname = "i-deva";
layers = (
{
associatedMasterId = "C2F00A16-B8FC-45C7-B93F-EF9B74B5AB22";
layerId = "36EA3D75-F920-4DC1-A723-CC5553715AE8";
name = "11";
shapes = (
{
attr = {
strokeWidth = 80;
};
closed = 0;
nodes = (
(50,660,l),
(769,660,l)
);
},
{
attr = {
strokeWidth = 80;
};
closed = 0;
nodes = (
(519,643,l),
(519,459,l),
(319,459,l),
(178,463,o),
(191,262,o),
(275,262,cs),
(506,262,ls),
(575,262,o),
(584,52,o),
(466,39,cs),
(284,19,o),
(138,75,o),
(214,147,cs),
(232,164,o),
(222,0,o),
(261,-64,cs),
(296,-121,o),
(335,-114,o),
(349,-114,c)
);
}
);
width = 722;
},
{
associatedMasterId = "C2F00A16-B8FC-45C7-B93F-EF9B74B5AB22";
layerId = "CAE1915B-9FDE-4489-97BD-7D6B90151569";
name = "10";
shapes = (
{
attr = {
strokeWidth = 80;
};
closed = 0;
nodes = (
(50,660,l),
(769,660,l)
);
},
{
attr = {
strokeWidth = 80;
};
closed = 0;
nodes = (
(519,643,l),
(519,459,l),
(319,459,l),
(178,463,o),
(191,262,o),
(275,262,cs),
(506,262,ls),
(575,262,o),
(584,52,o),
(466,39,cs),
(284,19,o),
(138,75,o),
(214,147,cs),
(232,164,o),
(222,0,o),
(261,-64,cs),
(296,-121,o),
(335,-114,o),
(349,-114,c)
);
}
);
width = 722;
},
{
associatedMasterId = "C2F00A16-B8FC-45C7-B93F-EF9B74B5AB22";
layerId = "260935F4-0920-4742-A130-A8234FBF7728";
name = "9";
shapes = (
{
attr = {
strokeWidth = 80;
};
closed = 0;
nodes = (
(50,660,l),
(769,660,l)
);
},
{
attr = {
strokeWidth = 80;
};
closed = 0;
nodes = (
(519,643,l),
(519,459,l),
(319,459,l),
(178,463,o),
(191,262,o),
(275,262,cs),
(506,262,ls),
(575,262,o),
(584,52,o),
(466,39,cs),
(284,19,o),
(138,75,o),
(214,147,cs),
(232,164,o),
(222,0,o),
(261,-64,cs),
(296,-121,o),
(335,-114,o),
(349,-114,c)
);
}
);
width = 722;
},
{
associatedMasterId = "C2F00A16-B8FC-45C7-B93F-EF9B74B5AB22";
layerId = "79D9A9A0-51C8-477C-8261-CB1E9E61E647";
name = "8";
shapes = (
{
attr = {
strokeWidth = 80;
};
closed = 0;
nodes = (
(50,660,l),
(769,660,l)
);
},
{
attr = {
strokeWidth = 80;
};
closed = 0;
nodes = (
(519,643,l),
(519,459,l),
(319,459,l),
(178,463,o),
(191,262,o),
(275,262,cs),
(506,262,ls),
(575,262,o),
(584,52,o),
(466,39,cs),
(284,19,o),
(138,75,o),
(214,147,cs),
(232,164,o),
(222,0,o),
(261,-64,cs),
(296,-121,o),
(335,-114,o),
(349,-114,c)
);
}
);
width = 722;
},
{
associatedMasterId = "C2F00A16-B8FC-45C7-B93F-EF9B74B5AB22";
layerId = "4170FEE2-2F45-413A-BF89-0C4C760EB048";
name = "1";
shapes = (
{
attr = {
strokeWidth = 80;
};
closed = 0;
nodes = (
(50,660,l),
(769,660,l)
);
},
{
attr = {
strokeWidth = 80;
};
closed = 0;
nodes = (
(519,643,l),
(519,459,l),
(319,459,l),
(178,463,o),
(191,262,o),
(275,262,cs),
(506,262,ls),
(575,262,o),
(584,52,o),
(466,39,cs),
(284,19,o),
(138,75,o),
(214,147,cs),
(232,164,o),
(222,0,o),
(261,-64,cs),
(296,-121,o),
(335,-114,o),
(349,-114,c)
);
}
);
width = 722;
},
{
associatedMasterId = "C2F00A16-B8FC-45C7-B93F-EF9B74B5AB22";
layerId = "B0096FDF-59B7-4C62-87EE-8D10DBD6B80A";
name = "7";
shapes = (
{
attr = {
strokeWidth = 80;
};
closed = 0;
nodes = (
(50,660,l),
(769,660,l)
);
},
{
attr = {
strokeWidth = 80;
};
closed = 0;
nodes = (
(519,643,l),
(519,459,l),
(319,459,l),
(178,463,o),
(191,262,o),
(275,262,cs),
(506,262,ls),
(575,262,o),
(584,52,o),
(466,39,cs),
(284,19,o),
(138,75,o),
(214,147,cs),
(232,164,o),
(222,0,o),
(261,-64,cs),
(296,-121,o),
(335,-114,o),
(349,-114,c)
);
}
);
width = 722;
},
{
associatedMasterId = "C2F00A16-B8FC-45C7-B93F-EF9B74B5AB22";
layerId = "74A7CB8F-5DF7-4588-B7E3-78EF3C7FB18D";
name = "6";
shapes = (
{
attr = {
strokeWidth = 80;
};
closed = 0;
nodes = (
(50,660,l),
(769,660,l)
);
},
{
attr = {
strokeWidth = 80;
};
closed = 0;
nodes = (
(519,643,l),
(519,459,l),
(319,459,l),
(178,463,o),
(191,262,o),
(275,262,cs),
(506,262,ls),
(575,262,o),
(584,52,o),
(466,39,cs),
(284,19,o),
(138,75,o),
(214,147,cs),
(232,164,o),
(222,0,o),
(261,-64,cs),
(296,-121,o),
(335,-114,o),
(349,-114,c)
);
}
);
width = 722;
},
{
associatedMasterId = "C2F00A16-B8FC-45C7-B93F-EF9B74B5AB22";
layerId = "16D08582-E3A6-4222-91FC-A2475832A6BD";
name = "3";
shapes = (
{
attr = {
strokeWidth = 80;
};
closed = 0;
nodes = (
(50,660,l),
(769,660,l)
);
},
{
attr = {
strokeWidth = 80;
};
closed = 0;
nodes = (
(519,643,l),
(519,459,l),
(319,459,l),
(178,463,o),
(191,262,o),
(275,262,cs),
(506,262,ls),
(575,262,o),
(584,52,o),
(466,39,cs),
(284,19,o),
(138,75,o),
(214,147,cs),
(232,164,o),
(222,0,o),
(261,-64,cs),
(296,-121,o),
(335,-114,o),
(349,-114,c)
);
}
);
width = 722;
},
{
associatedMasterId = "C2F00A16-B8FC-45C7-B93F-EF9B74B5AB22";
layerId = "942694AB-FFF7-456E-A631-DD70D9BC4F03";
name = "2";
shapes = (
{
attr = {
strokeWidth = 80;
};
closed = 0;
nodes = (
(50,660,l),
(769,660,l)
);
},
{
attr = {
strokeWidth = 80;
};
closed = 0;
nodes = (
(519,643,l),
(519,459,l),
(319,459,l),
(178,463,o),
(191,262,o),
(275,262,cs),
(506,262,ls),
(575,262,o),
(584,52,o),
(466,39,cs),
(284,19,o),
(138,75,o),
(214,147,cs),
(232,164,o),
(222,0,o),
(261,-64,cs),
(296,-121,o),
(335,-114,o),
(349,-114,c)
);
}
);
width = 722;
},
{
associatedMasterId = "C2F00A16-B8FC-45C7-B93F-EF9B74B5AB22";
layerId = "74287EE6-C037-4679-A01B-34EB5C0D0D36";
name = "4";
shapes = (
{
attr = {
strokeWidth = 80;
};
closed = 0;
nodes = (
(50,660,l),
(769,660,l)
);
},
{
attr = {
strokeWidth = 80;
};
closed = 0;
nodes = (
(519,643,l),
(519,459,l),
(319,459,l),
(178,463,o),
(191,262,o),
(275,262,cs),
(506,262,ls),
(575,262,o),
(584,52,o),
(466,39,cs),
(284,19,o),
(138,75,o),
(214,147,cs),
(232,164,o),
(222,0,o),
(261,-64,cs),
(296,-121,o),
(335,-114,o),
(349,-114,c)
);
}
);
width = 722;
},
{
associatedMasterId = "C2F00A16-B8FC-45C7-B93F-EF9B74B5AB22";
layerId = "9E252814-83E5-476D-BD5F-9B74F315E1C1";
name = "5";
shapes = (
{
attr = {
strokeWidth = 80;
};
closed = 0;
nodes = (
(50,660,l),
(769,660,l)
);
},
{
attr = {
strokeWidth = 80;
};
closed = 0;
nodes = (
(519,643,l),
(519,459,l),
(319,459,l),
(178,463,o),
(191,262,o),
(275,262,cs),
(506,262,ls),
(575,262,o),
(584,52,o),
(466,39,cs),
(284,19,o),
(138,75,o),
(214,147,cs),
(232,164,o),
(222,0,o),
(261,-64,cs),
(296,-121,o),
(335,-114,o),
(349,-114,c)
);
}
);
width = 722;
},
{
layerId = "C2F00A16-B8FC-45C7-B93F-EF9B74B5AB22";
shapes = (
{
attr = {
strokeWidth = 80;
};
closed = 0;
nodes = (
(50,660,l),
(769,660,l)
);
},
{
attr = {
strokeWidth = 80;
};
closed = 0;
nodes = (
(519,643,l),
(519,459,l),
(319,459,l),
(178,463,o),
(191,262,o),
(275,262,cs),
(506,262,l),
(575,262,o),
(584,52,o),
(466,39,cs),
(284,19,o),
(138,75,o),
(214,147,cs),
(232,164,o),
(222,0,o),
(261,-64,cs),
(296,-121,o),
(335,-114,o),
(349,-114,c)
);
}
);
width = 722;
}
);
unicode = 2311;
},
{
color = (153,154,255,255);
glyphname = "ii-deva";
layers = (
{
associatedMasterId = "C2F00A16-B8FC-45C7-B93F-EF9B74B5AB22";
layerId = "36EA3D75-F920-4DC1-A723-CC5553715AE8";
name = "11";
shapes = (
{
attr = {
strokeWidth = 80;
};
closed = 0;
nodes = (
(50,660,l),
(769,660,l)
);
},
{
attr = {
strokeWidth = 80;
};
closed = 0;
nodes = (
(519,643,l),
(519,459,l),
(319,459,l),
(178,463,o),
(191,262,o),
(275,262,cs),
(506,262,ls),
(575,262,o),
(584,52,o),
(466,39,cs),
(284,19,o),
(138,75,o),
(214,147,cs),
(232,164,o),
(222,0,o),
(261,-64,cs),
(296,-121,o),
(335,-114,o),
(349,-114,c)
);
},
{
attr = {
strokeWidth = 80;
};
closed = 0;
nodes = (
(597,660,l),
(345,637,o),
(292,937,o),
(597,923,c)
);
}
);
width = 718;
},
{
associatedMasterId = "C2F00A16-B8FC-45C7-B93F-EF9B74B5AB22";
layerId = "CAE1915B-9FDE-4489-97BD-7D6B90151569";
name = "10";
shapes = (
{
attr = {
strokeWidth = 80;
};
closed = 0;
nodes = (
(50,660,l),
(769,660,l)
);
},
{
attr = {
strokeWidth = 80;
};
closed = 0;
nodes = (
(519,643,l),
(519,459,l),
(319,459,l),
(178,463,o),
(191,262,o),
(275,262,cs),
(506,262,ls),
(575,262,o),
(584,52,o),
(466,39,cs),
(284,19,o),
(138,75,o),
(214,147,cs),
(232,164,o),
(222,0,o),
(261,-64,cs),
(296,-121,o),
(335,-114,o),
(349,-114,c)
);
},
{
attr = {
strokeWidth = 80;
};
closed = 0;
nodes = (
(597,660,l),
(345,637,o),
(292,937,o),
(597,923,c)
);
}
);
width = 718;
},
{
associatedMasterId = "C2F00A16-B8FC-45C7-B93F-EF9B74B5AB22";
layerId = "260935F4-0920-4742-A130-A8234FBF7728";
name = "9";
shapes = (
{
attr = {
strokeWidth = 80;
};
closed = 0;
nodes = (
(50,660,l),
(769,660,l)
);
},
{
attr = {
strokeWidth = 80;
};
closed = 0;
nodes = (
(519,643,l),
(519,459,l),
(319,459,l),
(178,463,o),
(191,262,o),
(275,262,cs),
(506,262,ls),
(575,262,o),
(584,52,o),
(466,39,cs),
(284,19,o),
(138,75,o),
(214,147,cs),
(232,164,o),
(222,0,o),
(261,-64,cs),
(296,-121,o),
(335,-114,o),
(349,-114,c)
);
},
{
attr = {
strokeWidth = 80;
};
closed = 0;
nodes = (
(597,660,l),
(345,637,o),
(292,937,o),
(597,923,c)
);
}
);
width = 718;
},
{
associatedMasterId = "C2F00A16-B8FC-45C7-B93F-EF9B74B5AB22";
layerId = "79D9A9A0-51C8-477C-8261-CB1E9E61E647";
name = "8";
shapes = (
{
attr = {
strokeWidth = 80;
};
closed = 0;
nodes = (
(50,660,l),
(769,660,l)
);
},
{
attr = {
strokeWidth = 80;
};
closed = 0;
nodes = (
(519,643,l),
(519,459,l),
(319,459,l),
(178,463,o),
(191,262,o),
(275,262,cs),
(506,262,ls),
(575,262,o),
(584,52,o),
(466,39,cs),
(284,19,o),
(138,75,o),
(214,147,cs),
(232,164,o),
(222,0,o),
(261,-64,cs),
(296,-121,o),
(335,-114,o),
(349,-114,c)
);
},
{
attr = {
strokeWidth = 80;
};
closed = 0;
nodes = (
(597,660,l),
(345,637,o),
(292,937,o),
(597,923,c)
);
}
);
width = 718;
},
{
associatedMasterId = "C2F00A16-B8FC-45C7-B93F-EF9B74B5AB22";
layerId = "4170FEE2-2F45-413A-BF89-0C4C760EB048";
name = "1";
shapes = (
{
attr = {
strokeWidth = 80;
};
closed = 0;
nodes = (
(50,660,l),
(769,660,l)
);
},
{
attr = {
strokeWidth = 80;
};
closed = 0;
nodes = (
(519,643,l),
(519,459,l),
(319,459,l),
(178,463,o),
(191,262,o),
(275,262,cs),
(506,262,ls),
(575,262,o),
(584,52,o),
(466,39,cs),
(284,19,o),
(138,75,o),
(214,147,cs),
(232,164,o),
(222,0,o),
(261,-64,cs),
(296,-121,o),
(335,-114,o),
(349,-114,c)
);
},
{
attr = {
strokeWidth = 80;
};
closed = 0;
nodes = (
(597,660,l),
(345,637,o),
(292,937,o),
(597,923,c)
);
}
);
width = 718;
},
{
associatedMasterId = "C2F00A16-B8FC-45C7-B93F-EF9B74B5AB22";
layerId = "B0096FDF-59B7-4C62-87EE-8D10DBD6B80A";
name = "7";
shapes = (
{
attr = {
strokeWidth = 80;
};
closed = 0;
nodes = (
(50,660,l),
(769,660,l)
);
},
{
attr = {
strokeWidth = 80;
};
closed = 0;
nodes = (
(519,643,l),
(519,459,l),
(319,459,l),
(178,463,o),
(191,262,o),
(275,262,cs),
(506,262,ls),
(575,262,o),
(584,52,o),
(466,39,cs),
(284,19,o),
(138,75,o),
(214,147,cs),
(232,164,o),
(222,0,o),
(261,-64,cs),
(296,-121,o),
(335,-114,o),
(349,-114,c)
);
},
{
attr = {
strokeWidth = 80;
};
closed = 0;
nodes = (
(597,660,l),
(345,637,o),
(292,937,o),
(597,923,c)
);
}
);
width = 718;
},
{
associatedMasterId = "C2F00A16-B8FC-45C7-B93F-EF9B74B5AB22";
layerId = "74A7CB8F-5DF7-4588-B7E3-78EF3C7FB18D";
name = "6";
shapes = (
{
attr = {
strokeWidth = 80;
};
closed = 0;
nodes = (
(50,660,l),
(769,660,l)
);
},
{
attr = {
strokeWidth = 80;
};
closed = 0;
nodes = (
(519,643,l),
(519,459,l),
(319,459,l),
(178,463,o),
(191,262,o),
(275,262,cs),
(506,262,ls),
(575,262,o),
(584,52,o),
(466,39,cs),
(284,19,o),
(138,75,o),
(214,147,cs),
(232,164,o),
(222,0,o),
(261,-64,cs),
(296,-121,o),
(335,-114,o),
(349,-114,c)
);
},
{
attr = {
strokeWidth = 80;
};
closed = 0;
nodes = (
(597,660,l),
(345,637,o),
(292,937,o),
(597,923,c)
);
}
);
width = 718;
},
{
associatedMasterId = "C2F00A16-B8FC-45C7-B93F-EF9B74B5AB22";
layerId = "16D08582-E3A6-4222-91FC-A2475832A6BD";
name = "3";
shapes = (
{
attr = {
strokeWidth = 80;
};
closed = 0;
nodes = (
(50,660,l),
(769,660,l)
);
},
{
attr = {
strokeWidth = 80;
};
closed = 0;
nodes = (
(519,643,l),
(519,459,l),
(319,459,l),
(178,463,o),
(191,262,o),
(275,262,cs),
(506,262,ls),
(575,262,o),
(584,52,o),
(466,39,cs),
(284,19,o),
(138,75,o),
(214,147,cs),
(232,164,o),
(222,0,o),
(261,-64,cs),
(296,-121,o),
(335,-114,o),
(349,-114,c)
);
},
{
attr = {
strokeWidth = 80;
};
closed = 0;
nodes = (
(597,660,l),
(345,637,o),
(292,937,o),
(597,923,c)
);
}
);
width = 718;
},
{
associatedMasterId = "C2F00A16-B8FC-45C7-B93F-EF9B74B5AB22";
layerId = "942694AB-FFF7-456E-A631-DD70D9BC4F03";
name = "2";
shapes = (
{
attr = {
strokeWidth = 80;
};
closed = 0;
nodes = (
(50,660,l),
(769,660,l)
);
},
{
attr = {
strokeWidth = 80;
};
closed = 0;
nodes = (
(519,643,l),
(519,459,l),
(319,459,l),
(178,463,o),
(191,262,o),
(275,262,cs),
(506,262,ls),
(575,262,o),
(584,52,o),
(466,39,cs),
(284,19,o),
(138,75,o),
(214,147,cs),
(232,164,o),
(222,0,o),
(261,-64,cs),
(296,-121,o),
(335,-114,o),
(349,-114,c)
);
},
{
attr = {
strokeWidth = 80;
};
closed = 0;
nodes = (
(597,660,l),
(345,637,o),
(292,937,o),
(597,923,c)
);
}
);
width = 718;
},
{
associatedMasterId = "C2F00A16-B8FC-45C7-B93F-EF9B74B5AB22";
layerId = "74287EE6-C037-4679-A01B-34EB5C0D0D36";
name = "4";
shapes = (
{
attr = {
strokeWidth = 80;
};
closed = 0;
nodes = (
(50,660,l),
(769,660,l)
);
},
{
attr = {
strokeWidth = 80;
};
closed = 0;
nodes = (
(519,643,l),
(519,459,l),
(319,459,l),
(178,463,o),
(191,262,o),
(275,262,cs),
(506,262,ls),
(575,262,o),
(584,52,o),
(466,39,cs),
(284,19,o),
(138,75,o),
(214,147,cs),
(232,164,o),
(222,0,o),
(261,-64,cs),
(296,-121,o),
(335,-114,o),
(349,-114,c)
);
},
{
attr = {
strokeWidth = 80;
};
closed = 0;
nodes = (
(597,660,l),
(345,637,o),
(292,937,o),
(597,923,c)
);
}
);
width = 718;
},
{
associatedMasterId = "C2F00A16-B8FC-45C7-B93F-EF9B74B5AB22";
layerId = "9E252814-83E5-476D-BD5F-9B74F315E1C1";
name = "5";
shapes = (
{
attr = {
strokeWidth = 80;
};
closed = 0;
nodes = (
(50,660,l),
(769,660,l)
);
},
{
attr = {
strokeWidth = 80;
};
closed = 0;
nodes = (
(519,643,l),
(519,459,l),
(319,459,l),
(178,463,o),
(191,262,o),
(275,262,cs),
(506,262,ls),
(575,262,o),
(584,52,o),
(466,39,cs),
(284,19,o),
(138,75,o),
(214,147,cs),
(232,164,o),
(222,0,o),
(261,-64,cs),
(296,-121,o),
(335,-114,o),
(349,-114,c)
);
},
{
attr = {
strokeWidth = 80;
};
closed = 0;
nodes = (
(597,660,l),
(345,637,o),
(292,937,o),
(597,923,c)
);
}
);
width = 718;
},
{
layerId = "C2F00A16-B8FC-45C7-B93F-EF9B74B5AB22";
shapes = (
{
attr = {
strokeWidth = 80;
};
closed = 0;
nodes = (
(50,660,l),
(769,660,l)
);
},
{
attr = {
strokeWidth = 80;
};
closed = 0;
nodes = (
(519,643,l),
(519,459,l),
(319,459,l),
(178,463,o),
(191,262,o),
(275,262,cs),
(506,262,l),
(575,262,o),
(584,52,o),
(466,39,cs),
(284,19,o),
(138,75,o),
(214,147,cs),
(232,164,o),
(222,0,o),
(261,-64,cs),
(296,-121,o),
(335,-114,o),
(349,-114,c)
);
},
{
attr = {
strokeWidth = 80;
};
closed = 0;
nodes = (
(597,660,l),
(345,637,o),
(292,937,o),
(597,923,cs)
);
}
);
width = 718;
}
);
unicode = 2312;
},
{
color = (153,154,255,255);
glyphname = "u-deva";
layers = (
{
associatedMasterId = "C2F00A16-B8FC-45C7-B93F-EF9B74B5AB22";
layerId = "36EA3D75-F920-4DC1-A723-CC5553715AE8";
name = "11";
shapes = (
{
attr = {
strokeWidth = 80;
};
closed = 0;
nodes = (
(-45,665,l),
(675,665,l)
);
},
{
attr = {
strokeWidth = 80;
};
closed = 0;
nodes = (
(243,359,l),
(289,359,o),
(409,353,o),
(428,480,cs),
(442,572,o),
(405,665,o),
(267,665,c)
);
},
{
attr = {
strokeWidth = 80;
};
closed = 0;
nodes = (
(115,197,l),
(115,-35,o),
(453,-15,o),
(469,166,cs),
(486,361,o),
(317,361,o),
(244,360,c)
);
}
);
width = 715;
},
{
associatedMasterId = "C2F00A16-B8FC-45C7-B93F-EF9B74B5AB22";
layerId = "CAE1915B-9FDE-4489-97BD-7D6B90151569";
name = "10";
shapes = (
{
attr = {
strokeWidth = 80;
};
closed = 0;
nodes = (
(-45,665,l),
(675,665,l)
);
},
{
attr = {
strokeWidth = 80;
};
closed = 0;
nodes = (
(243,359,l),
(289,359,o),
(409,353,o),
(428,480,cs),
(442,572,o),
(405,665,o),
(267,665,c)
);
},
{
attr = {
strokeWidth = 80;
};
closed = 0;
nodes = (
(115,197,l),
(115,-35,o),
(453,-15,o),
(469,166,cs),
(486,361,o),
(317,361,o),
(244,360,c)
);
}
);
width = 715;
},
{
associatedMasterId = "C2F00A16-B8FC-45C7-B93F-EF9B74B5AB22";
layerId = "260935F4-0920-4742-A130-A8234FBF7728";
name = "9";
shapes = (
{
attr = {
strokeWidth = 80;
};
closed = 0;
nodes = (
(-45,665,l),
(675,665,l)
);
},
{
attr = {
strokeWidth = 80;
};
closed = 0;
nodes = (
(243,359,l),
(289,359,o),
(409,353,o),
(428,480,cs),
(442,572,o),
(405,665,o),
(267,665,c)
);
},
{
attr = {
strokeWidth = 80;
};
closed = 0;
nodes = (
(115,197,l),
(115,-35,o),
(453,-15,o),
(469,166,cs),
(486,361,o),
(317,361,o),
(244,360,c)
);
}
);
width = 715;
},
{
associatedMasterId = "C2F00A16-B8FC-45C7-B93F-EF9B74B5AB22";
layerId = "79D9A9A0-51C8-477C-8261-CB1E9E61E647";
name = "8";
shapes = (
{
attr = {
strokeWidth = 80;
};
closed = 0;
nodes = (
(-45,665,l),
(675,665,l)
);
},
{
attr = {
strokeWidth = 80;
};
closed = 0;
nodes = (
(243,359,l),
(289,359,o),
(409,353,o),
(428,480,cs),
(442,572,o),
(405,665,o),
(267,665,c)
);
},
{
attr = {
strokeWidth = 80;
};
closed = 0;
nodes = (
(115,197,l),
(115,-35,o),
(453,-15,o),
(469,166,cs),
(486,361,o),
(317,361,o),
(244,360,c)
);
}
);
width = 715;
},
{
associatedMasterId = "C2F00A16-B8FC-45C7-B93F-EF9B74B5AB22";
layerId = "4170FEE2-2F45-413A-BF89-0C4C760EB048";
name = "1";
shapes = (
{
attr = {
strokeWidth = 80;
};
closed = 0;
nodes = (
(-45,665,l),
(675,665,l)
);
},
{
attr = {
strokeWidth = 80;
};
closed = 0;
nodes = (
(243,359,l),
(289,359,o),
(409,353,o),
(428,480,cs),
(442,572,o),
(405,665,o),
(267,665,c)
);
},
{
attr = {
strokeWidth = 80;
};
closed = 0;
nodes = (
(115,197,l),
(115,-35,o),
(453,-15,o),
(469,166,cs),
(486,361,o),
(317,361,o),
(244,360,c)
);
}
);
width = 715;
},
{
associatedMasterId = "C2F00A16-B8FC-45C7-B93F-EF9B74B5AB22";
layerId = "B0096FDF-59B7-4C62-87EE-8D10DBD6B80A";
name = "7";
shapes = (
{
attr = {
strokeWidth = 80;
};
closed = 0;
nodes = (
(-45,665,l),
(675,665,l)
);
},
{
attr = {
strokeWidth = 80;
};
closed = 0;
nodes = (
(243,359,l),
(289,359,o),
(409,353,o),
(428,480,cs),
(442,572,o),
(405,665,o),
(267,665,c)
);
},
{
attr = {
strokeWidth = 80;
};
closed = 0;
nodes = (
(115,197,l),
(115,-35,o),
(453,-15,o),
(469,166,cs),
(486,361,o),
(317,361,o),
(244,360,c)
);
}
);
width = 715;
},
{
associatedMasterId = "C2F00A16-B8FC-45C7-B93F-EF9B74B5AB22";
layerId = "74A7CB8F-5DF7-4588-B7E3-78EF3C7FB18D";
name = "6";
shapes = (
{
attr = {
strokeWidth = 80;
};
closed = 0;
nodes = (
(-45,665,l),
(675,665,l)
);
},
{
attr = {
strokeWidth = 80;
};
closed = 0;
nodes = (
(243,359,l),
(289,359,o),
(409,353,o),
(428,480,cs),
(442,572,o),
(405,665,o),
(267,665,c)
);
},
{
attr = {
strokeWidth = 80;
};
closed = 0;
nodes = (
(115,197,l),
(115,-35,o),
(453,-15,o),
(469,166,cs),
(486,361,o),
(317,361,o),
(244,360,c)
);
}
);
width = 715;
},
{
associatedMasterId = "C2F00A16-B8FC-45C7-B93F-EF9B74B5AB22";
layerId = "16D08582-E3A6-4222-91FC-A2475832A6BD";
name = "3";
shapes = (
{
attr = {
strokeWidth = 80;
};
closed = 0;
nodes = (
(-45,665,l),
(675,665,l)
);
},
{
attr = {
strokeWidth = 80;
};
closed = 0;
nodes = (
(243,359,l),
(289,359,o),
(409,353,o),
(428,480,cs),
(442,572,o),
(405,665,o),
(267,665,c)
);
},
{
attr = {
strokeWidth = 80;
};
closed = 0;
nodes = (
(115,197,l),
(115,-35,o),
(453,-15,o),
(469,166,cs),
(486,361,o),
(317,361,o),
(244,360,c)
);
}
);
width = 715;
},
{
associatedMasterId = "C2F00A16-B8FC-45C7-B93F-EF9B74B5AB22";
layerId = "942694AB-FFF7-456E-A631-DD70D9BC4F03";
name = "2";
shapes = (
{
attr = {
strokeWidth = 80;
};
closed = 0;
nodes = (
(-45,665,l),
(675,665,l)
);
},
{
attr = {
strokeWidth = 80;
};
closed = 0;
nodes = (
(243,359,l),
(289,359,o),
(409,353,o),
(428,480,cs),
(442,572,o),
(405,665,o),
(267,665,c)
);
},
{
attr = {
strokeWidth = 80;
};
closed = 0;
nodes = (
(115,197,l),
(115,-35,o),
(453,-15,o),
(469,166,cs),
(486,361,o),
(317,361,o),
(244,360,c)
);
}
);
width = 715;
},
{
associatedMasterId = "C2F00A16-B8FC-45C7-B93F-EF9B74B5AB22";
layerId = "74287EE6-C037-4679-A01B-34EB5C0D0D36";
name = "4";
shapes = (
{
attr = {
strokeWidth = 80;
};
closed = 0;
nodes = (
(-45,665,l),
(675,665,l)
);
},
{
attr = {
strokeWidth = 80;
};
closed = 0;
nodes = (
(243,359,l),
(289,359,o),
(409,353,o),
(428,480,cs),
(442,572,o),
(405,665,o),
(267,665,c)
);
},
{
attr = {
strokeWidth = 80;
};
closed = 0;
nodes = (
(115,197,l),
(115,-35,o),
(453,-15,o),
(469,166,cs),
(486,361,o),
(317,361,o),
(244,360,c)
);
}
);
width = 715;
},
{
associatedMasterId = "C2F00A16-B8FC-45C7-B93F-EF9B74B5AB22";
layerId = "9E252814-83E5-476D-BD5F-9B74F315E1C1";
name = "5";
shapes = (
{
attr = {
strokeWidth = 80;
};
closed = 0;
nodes = (
(-45,665,l),
(675,665,l)
);
},
{
attr = {
strokeWidth = 80;
};
closed = 0;
nodes = (
(243,359,l),
(289,359,o),
(409,353,o),
(428,480,cs),
(442,572,o),
(405,665,o),
(267,665,c)
);
},
{
attr = {
strokeWidth = 80;
};
closed = 0;
nodes = (
(115,197,l),
(115,-35,o),
(453,-15,o),
(469,166,cs),
(486,361,o),
(317,361,o),
(244,360,c)
);
}
);
width = 715;
},
{
layerId = "C2F00A16-B8FC-45C7-B93F-EF9B74B5AB22";
shapes = (
{
attr = {
strokeWidth = 80;
};
closed = 0;
nodes = (
(-45,665,l),
(675,665,l)
);
},
{
attr = {
strokeWidth = 80;
};
closed = 0;
nodes = (
(243,359,l),
(289,359,o),
(409,353,o),
(428,480,cs),
(442,572,o),
(405,665,o),
(267,665,c)
);
},
{
attr = {
strokeWidth = 80;
};
closed = 0;
nodes = (
(115,197,l),
(115,-35,o),
(453,-15,o),
(469,166,cs),
(486,361,o),
(317,361,o),
(244,360,c)
);
}
);
width = 715;
}
);
unicode = 2313;
},
{
color = (153,154,255,255);
glyphname = "uu-deva";
layers = (
{
associatedMasterId = "C2F00A16-B8FC-45C7-B93F-EF9B74B5AB22";
layerId = "36EA3D75-F920-4DC1-A723-CC5553715AE8";
name = "11";
shapes = (
{
attr = {
strokeWidth = 80;
};
closed = 0;
nodes = (
(-95,665,l),
(625,665,l)
);
},
{
attr = {
strokeWidth = 80;
};
closed = 0;
nodes = (
(193,359,l),
(239,359,o),
(359,353,o),
(378,480,cs),
(392,572,o),
(355,665,o),
(217,665,c)
);
},
{
attr = {
strokeWidth = 80;
};
closed = 0;
nodes = (
(65,197,l),
(65,-35,o),
(403,-15,o),
(419,166,cs),
(436,361,o),
(267,361,o),
(194,360,c)
);
},
{
attr = {
strokeWidth = 80;
};
closed = 0;
nodes = (
(366,342,l),
(388,374,o),
(459,412,o),
(541,358,cs),
(641,292,o),
(602,137,o),
(490,117,c)
);
}
);
width = 720;
},
{
associatedMasterId = "C2F00A16-B8FC-45C7-B93F-EF9B74B5AB22";
layerId = "CAE1915B-9FDE-4489-97BD-7D6B90151569";
name = "10";
shapes = (
{
attr = {
strokeWidth = 80;
};
closed = 0;
nodes = (
(-95,665,l),
(625,665,l)
);
},
{
attr = {
strokeWidth = 80;
};
closed = 0;
nodes = (
(193,359,l),
(239,359,o),
(359,353,o),
(378,480,cs),
(392,572,o),
(355,665,o),
(217,665,c)
);
},
{
attr = {
strokeWidth = 80;
};
closed = 0;
nodes = (
(65,197,l),
(65,-35,o),
(403,-15,o),
(419,166,cs),
(436,361,o),
(267,361,o),
(194,360,c)
);
},
{
attr = {
strokeWidth = 80;
};
closed = 0;
nodes = (
(366,342,l),
(388,374,o),
(459,412,o),
(541,358,cs),
(641,292,o),
(602,137,o),
(490,117,c)
);
}
);
width = 720;
},
{
associatedMasterId = "C2F00A16-B8FC-45C7-B93F-EF9B74B5AB22";
layerId = "260935F4-0920-4742-A130-A8234FBF7728";
name = "9";
shapes = (
{
attr = {
strokeWidth = 80;
};
closed = 0;
nodes = (
(-95,665,l),
(625,665,l)
);
},
{
attr = {
strokeWidth = 80;
};
closed = 0;
nodes = (
(193,359,l),
(239,359,o),
(359,353,o),
(378,480,cs),
(392,572,o),
(355,665,o),
(217,665,c)
);
},
{
attr = {
strokeWidth = 80;
};
closed = 0;
nodes = (
(65,197,l),
(65,-35,o),
(403,-15,o),
(419,166,cs),
(436,361,o),
(267,361,o),
(194,360,c)
);
},
{
attr = {
strokeWidth = 80;
};
closed = 0;
nodes = (
(366,342,l),
(388,374,o),
(459,412,o),
(541,358,cs),
(641,292,o),
(602,137,o),
(490,117,c)
);
}
);
width = 720;
},
{
associatedMasterId = "C2F00A16-B8FC-45C7-B93F-EF9B74B5AB22";
layerId = "79D9A9A0-51C8-477C-8261-CB1E9E61E647";
name = "8";
shapes = (
{
attr = {
strokeWidth = 80;
};
closed = 0;
nodes = (
(-95,665,l),
(625,665,l)
);
},
{
attr = {
strokeWidth = 80;
};
closed = 0;
nodes = (
(193,359,l),
(239,359,o),
(359,353,o),
(378,480,cs),
(392,572,o),
(355,665,o),
(217,665,c)
);
},
{
attr = {
strokeWidth = 80;
};
closed = 0;
nodes = (
(65,197,l),
(65,-35,o),
(403,-15,o),
(419,166,cs),
(436,361,o),
(267,361,o),
(194,360,c)
);
},
{
attr = {
strokeWidth = 80;
};
closed = 0;
nodes = (
(366,342,l),
(388,374,o),
(459,412,o),
(541,358,cs),
(641,292,o),
(602,137,o),
(490,117,c)
);
}
);
width = 720;
},
{
associatedMasterId = "C2F00A16-B8FC-45C7-B93F-EF9B74B5AB22";
layerId = "4170FEE2-2F45-413A-BF89-0C4C760EB048";
name = "1";
shapes = (
{
attr = {
strokeWidth = 80;
};
closed = 0;
nodes = (
(-95,665,l),
(625,665,l)
);
},
{
attr = {
strokeWidth = 80;
};
closed = 0;
nodes = (
(193,359,l),
(239,359,o),
(359,353,o),
(378,480,cs),
(392,572,o),
(355,665,o),
(217,665,c)
);
},
{
attr = {
strokeWidth = 80;
};
closed = 0;
nodes = (
(65,197,l),
(65,-35,o),
(403,-15,o),
(419,166,cs),
(436,361,o),
(267,361,o),
(194,360,c)
);
},
{
attr = {
strokeWidth = 80;
};
closed = 0;
nodes = (
(366,342,l),
(388,374,o),
(459,412,o),
(541,358,cs),
(641,292,o),
(602,137,o),
(490,117,c)
);
}
);
width = 720;
},
{
associatedMasterId = "C2F00A16-B8FC-45C7-B93F-EF9B74B5AB22";
layerId = "B0096FDF-59B7-4C62-87EE-8D10DBD6B80A";
name = "7";
shapes = (
{
attr = {
strokeWidth = 80;
};
closed = 0;
nodes = (
(-95,665,l),
(625,665,l)
);
},
{
attr = {
strokeWidth = 80;
};
closed = 0;
nodes = (
(193,359,l),
(239,359,o),
(359,353,o),
(378,480,cs),
(392,572,o),
(355,665,o),
(217,665,c)
);
},
{
attr = {
strokeWidth = 80;
};
closed = 0;
nodes = (
(65,197,l),
(65,-35,o),
(403,-15,o),
(419,166,cs),
(436,361,o),
(267,361,o),
(194,360,c)
);
},
{
attr = {
strokeWidth = 80;
};
closed = 0;
nodes = (
(366,342,l),
(388,374,o),
(459,412,o),
(541,358,cs),
(641,292,o),
(602,137,o),
(490,117,c)
);
}
);
width = 720;
},
{
associatedMasterId = "C2F00A16-B8FC-45C7-B93F-EF9B74B5AB22";
layerId = "74A7CB8F-5DF7-4588-B7E3-78EF3C7FB18D";
name = "6";
shapes = (
{
attr = {
strokeWidth = 80;
};
closed = 0;
nodes = (
(-95,665,l),
(625,665,l)
);
},
{
attr = {
strokeWidth = 80;
};
closed = 0;
nodes = (
(193,359,l),
(239,359,o),
(359,353,o),
(378,480,cs),
(392,572,o),
(355,665,o),
(217,665,c)
);
},
{
attr = {
strokeWidth = 80;
};
closed = 0;
nodes = (
(65,197,l),
(65,-35,o),
(403,-15,o),
(419,166,cs),
(436,361,o),
(267,361,o),
(194,360,c)
);
},
{
attr = {
strokeWidth = 80;
};
closed = 0;
nodes = (
(366,342,l),
(388,374,o),
(459,412,o),
(541,358,cs),
(641,292,o),
(602,137,o),
(490,117,c)
);
}
);
width = 720;
},
{
associatedMasterId = "C2F00A16-B8FC-45C7-B93F-EF9B74B5AB22";
layerId = "16D08582-E3A6-4222-91FC-A2475832A6BD";
name = "3";
shapes = (
{
attr = {
strokeWidth = 80;
};
closed = 0;
nodes = (
(-95,665,l),
(625,665,l)
);
},
{
attr = {
strokeWidth = 80;
};
closed = 0;
nodes = (
(193,359,l),
(239,359,o),
(359,353,o),
(378,480,cs),
(392,572,o),
(355,665,o),
(217,665,c)
);
},
{
attr = {
strokeWidth = 80;
};
closed = 0;
nodes = (
(65,197,l),
(65,-35,o),
(403,-15,o),
(419,166,cs),
(436,361,o),
(267,361,o),
(194,360,c)
);
},
{
attr = {
strokeWidth = 80;
};
closed = 0;
nodes = (
(366,342,l),
(388,374,o),
(459,412,o),
(541,358,cs),
(641,292,o),
(602,137,o),
(490,117,c)
);
}
);
width = 720;
},
{
associatedMasterId = "C2F00A16-B8FC-45C7-B93F-EF9B74B5AB22";
layerId = "942694AB-FFF7-456E-A631-DD70D9BC4F03";
name = "2";
shapes = (
{
attr = {
strokeWidth = 80;
};
closed = 0;
nodes = (
(-95,665,l),
(625,665,l)
);
},
{
attr = {
strokeWidth = 80;
};
closed = 0;
nodes = (
(193,359,l),
(239,359,o),
(359,353,o),
(378,480,cs),
(392,572,o),
(355,665,o),
(217,665,c)
);
},
{
attr = {
strokeWidth = 80;
};
closed = 0;
nodes = (
(65,197,l),
(65,-35,o),
(403,-15,o),
(419,166,cs),
(436,361,o),
(267,361,o),
(194,360,c)
);
},
{
attr = {
strokeWidth = 80;
};
closed = 0;
nodes = (
(366,342,l),
(388,374,o),
(459,412,o),
(541,358,cs),
(641,292,o),
(602,137,o),
(490,117,c)
);
}
);
width = 720;
},
{
associatedMasterId = "C2F00A16-B8FC-45C7-B93F-EF9B74B5AB22";
layerId = "74287EE6-C037-4679-A01B-34EB5C0D0D36";
name = "4";
shapes = (
{
attr = {
strokeWidth = 80;
};
closed = 0;
nodes = (
(-95,665,l),
(625,665,l)
);
},
{
attr = {
strokeWidth = 80;
};
closed = 0;
nodes = (
(193,359,l),
(239,359,o),
(359,353,o),
(378,480,cs),
(392,572,o),
(355,665,o),
(217,665,c)
);
},
{
attr = {
strokeWidth = 80;
};
closed = 0;
nodes = (
(65,197,l),
(65,-35,o),
(403,-15,o),
(419,166,cs),
(436,361,o),
(267,361,o),
(194,360,c)
);
},
{
attr = {
strokeWidth = 80;
};
closed = 0;
nodes = (
(366,342,l),
(388,374,o),
(459,412,o),
(541,358,cs),
(641,292,o),
(602,137,o),
(490,117,c)
);
}
);
width = 720;
},
{
associatedMasterId = "C2F00A16-B8FC-45C7-B93F-EF9B74B5AB22";
layerId = "9E252814-83E5-476D-BD5F-9B74F315E1C1";
name = "5";
shapes = (
{
attr = {
strokeWidth = 80;
};
closed = 0;
nodes = (
(-95,665,l),
(625,665,l)
);
},
{
attr = {
strokeWidth = 80;
};
closed = 0;
nodes = (
(193,359,l),
(239,359,o),
(359,353,o),
(378,480,cs),
(392,572,o),
(355,665,o),
(217,665,c)
);
},
{
attr = {
strokeWidth = 80;
};
closed = 0;
nodes = (
(65,197,l),
(65,-35,o),
(403,-15,o),
(419,166,cs),
(436,361,o),
(267,361,o),
(194,360,c)
);
},
{
attr = {
strokeWidth = 80;
};
closed = 0;
nodes = (
(366,342,l),
(388,374,o),
(459,412,o),
(541,358,cs),
(641,292,o),
(602,137,o),
(490,117,c)
);
}
);
width = 720;
},
{
layerId = "C2F00A16-B8FC-45C7-B93F-EF9B74B5AB22";
shapes = (
{
attr = {
strokeWidth = 80;
};
closed = 0;
nodes = (
(-95,665,l),
(625,665,l)
);
},
{
attr = {
strokeWidth = 80;
};
closed = 0;
nodes = (
(193,359,l),
(239,359,o),
(359,353,o),
(378,480,cs),
(392,572,o),
(355,665,o),
(217,665,c)
);
},
{
attr = {
strokeWidth = 80;
};
closed = 0;
nodes = (
(65,197,l),
(65,-35,o),
(403,-15,o),
(419,166,cs),
(436,361,o),
(267,361,o),
(194,360,c)
);
},
{
attr = {
strokeWidth = 80;
};
closed = 0;
nodes = (
(366,342,l),
(388,374,o),
(459,412,o),
(541,358,cs),
(641,292,o),
(602,137,o),
(490,117,c)
);
}
);
width = 720;
}
);
unicode = 2314;
},
{
color = (153,154,255,255);
glyphname = "ka-deva";
lastChange = "2026-04-13 05:41:36 +0000";
layers = (
{
associatedMasterId = "C2F00A16-B8FC-45C7-B93F-EF9B74B5AB22";
guides = (
{
pos = (0,114);
}
);
layerId = "36EA3D75-F920-4DC1-A723-CC5553715AE8";
name = "11";
shapes = (
{
attr = {
strokeWidth = 80;
};
closed = 0;
nodes = (
(402,627,l),
(402,0,l)
);
},
{
attr = {
strokeWidth = 80;
};
closed = 0;
nodes = (
(-60,660,l),
(844,660,l)
);
},
{
attr = {
strokeWidth = 80;
};
closed = 0;
nodes = (
(399,371,l),
(441,484,o),
(583,517,o),
(672,430,cs),
(765,340,o),
(744,119,o),
(523,160,c)
);
},
{
attr = {
strokeWidth = 80;
};
closed = 0;
nodes = (
(403,204,l),
(403,204,o),
(320,122,o),
(201,146,cs),
(52,175,o),
(33,376,o),
(131,448,cs),
(191,493,o),
(335,500,o),
(404,410,c)
);
}
);
width = 801;
},
{
associatedMasterId = "C2F00A16-B8FC-45C7-B93F-EF9B74B5AB22";
guides = (
{
pos = (0,114);
}
);
layerId = "CAE1915B-9FDE-4489-97BD-7D6B90151569";
name = "10";
shapes = (
{
attr = {
strokeWidth = 80;
};
closed = 0;
nodes = (
(438,627,l),
(438,0,l)
);
},
{
attr = {
strokeWidth = 80;
};
closed = 0;
nodes = (
(-24,660,l),
(880,660,l)
);
},
{
attr = {
strokeWidth = 80;
};
closed = 0;
nodes = (
(435,371,l),
(477,484,o),
(619,517,o),
(708,430,cs),
(801,340,o),
(780,119,o),
(559,160,c)
);
},
{
attr = {
strokeWidth = 80;
};
closed = 0;
nodes = (
(439,204,l),
(439,204,o),
(356,122,o),
(237,146,cs),
(88,175,o),
(69,376,o),
(167,448,cs),
(227,493,o),
(371,500,o),
(440,410,c)
);
}
);
width = 852;
},
{
associatedMasterId = "C2F00A16-B8FC-45C7-B93F-EF9B74B5AB22";
guides = (
{
pos = (0,114);
}
);
layerId = "260935F4-0920-4742-A130-A8234FBF7728";
name = "9";
shapes = (
{
attr = {
strokeWidth = 80;
};
closed = 0;
nodes = (
(440,627,l),
(440,0,l)
);
},
{
attr = {
strokeWidth = 80;
};
closed = 0;
nodes = (
(-22,660,l),
(882,660,l)
);
},
{
attr = {
strokeWidth = 80;
};
closed = 0;
nodes = (
(437,371,l),
(479,484,o),
(618,517,o),
(707,430,cs),
(800,340,o),
(779,119,o),
(558,160,c)
);
},
{
attr = {
strokeWidth = 80;
};
closed = 0;
nodes = (
(441,204,l),
(441,204,o),
(348,122,o),
(229,146,cs),
(80,175,o),
(61,376,o),
(159,448,cs),
(219,493,o),
(373,500,o),
(442,410,c)
);
}
);
width = 841;
},
{
associatedMasterId = "C2F00A16-B8FC-45C7-B93F-EF9B74B5AB22";
guides = (
{
pos = (0,114);
}
);
layerId = "79D9A9A0-51C8-477C-8261-CB1E9E61E647";
name = "8";
shapes = (
{
attr = {
strokeWidth = 80;
};
closed = 0;
nodes = (
(438,627,l),
(438,0,l)
);
},
{
attr = {
strokeWidth = 80;
};
closed = 0;
nodes = (
(-24,660,l),
(880,660,l)
);
},
{
attr = {
strokeWidth = 80;
};
closed = 0;
nodes = (
(433,211,l),
(381,156,o),
(235,124,o),
(154,172,cs),
(27,248,o),
(67,412,o),
(154,459,cs),
(220,495,o),
(392,495,o),
(435,373,c)
);
},
{
attr = {
strokeWidth = 80;
};
closed = 0;
nodes = (
(433,371,l),
(475,484,o),
(626,495,o),
(709,437,cs),
(812,366,o),
(814,142,o),
(573,151,c)
);
}
);
width = 852;
},
{
associatedMasterId = "C2F00A16-B8FC-45C7-B93F-EF9B74B5AB22";
guides = (
{
pos = (0,114);
}
);
layerId = "B0096FDF-59B7-4C62-87EE-8D10DBD6B80A";
name = "7";
shapes = (
{
attr = {
strokeWidth = 80;
};
closed = 0;
nodes = (
(438,627,l),
(438,0,l)
);
},
{
attr = {
strokeWidth = 80;
};
closed = 0;
nodes = (
(-24,660,l),
(918,660,l)
);
},
{
attr = {
strokeWidth = 80;
};
closed = 0;
nodes = (
(433,211,l),
(381,156,o),
(235,124,o),
(154,172,cs),
(27,248,o),
(67,412,o),
(154,459,cs),
(220,495,o),
(392,495,o),
(435,373,c)
);
},
{
attr = {
strokeWidth = 80;
};
closed = 0;
nodes = (
(433,371,l),
(475,484,o),
(626,495,o),
(709,437,cs),
(812,366,o),
(814,142,o),
(573,151,c)
);
}
);
width = 882;
},
{
associatedMasterId = "C2F00A16-B8FC-45C7-B93F-EF9B74B5AB22";
layerId = "74A7CB8F-5DF7-4588-B7E3-78EF3C7FB18D";
name = "6";
shapes = (
{
attr = {
strokeWidth = 80;
};
closed = 0;
nodes = (
(438,627,l),
(438,0,l)
);
},
{
attr = {
strokeWidth = 80;
};
closed = 0;
nodes = (
(-24,660,l),
(918,660,l)
);
},
{
attr = {
strokeWidth = 80;
};
closed = 0;
nodes = (
(440,217,l),
(387,161,o),
(240,129,o),
(157,178,cs),
(29,254,o),
(70,420,o),
(157,468,cs),
(224,505,o),
(399,505,o),
(443,382,c)
);
},
{
attr = {
strokeWidth = 80;
};
closed = 0;
nodes = (
(441,380,l),
(482,494,o),
(636,505,o),
(719,447,cs),
(824,374,o),
(826,148,o),
(581,156,c)
);
}
);
width = 882;
},
{
associatedMasterId = "C2F00A16-B8FC-45C7-B93F-EF9B74B5AB22";
layerId = "4170FEE2-2F45-413A-BF89-0C4C760EB048";
name = "1";
shapes = (
{
attr = {
strokeWidth = 80;
};
closed = 0;
nodes = (
(438,627,l),
(438,0,l)
);
},
{
attr = {
strokeWidth = 80;
};
closed = 0;
nodes = (
(-24,660,l),
(918,660,l)
);
},
{
attr = {
strokeWidth = 80;
};
closed = 0;
nodes = (
(440,217,l),
(387,161,o),
(240,129,o),
(157,178,cs),
(29,254,o),
(70,420,o),
(157,468,cs),
(224,505,o),
(399,505,o),
(443,382,c)
);
},
{
attr = {
strokeWidth = 80;
};
closed = 0;
nodes = (
(441,380,l),
(482,494,o),
(636,505,o),
(719,447,cs),
(824,374,o),
(826,148,o),
(581,156,c)
);
}
);
width = 882;
},
{
associatedMasterId = "C2F00A16-B8FC-45C7-B93F-EF9B74B5AB22";
layerId = "16D08582-E3A6-4222-91FC-A2475832A6BD";
name = "3";
shapes = (
{
attr = {
strokeWidth = 80;
};
closed = 0;
nodes = (
(438,627,l),
(438,0,l)
);
},
{
attr = {
strokeWidth = 80;
};
closed = 0;
nodes = (
(-24,660,l),
(918,660,l)
);
},
{
attr = {
strokeWidth = 80;
};
closed = 0;
nodes = (
(440,217,l),
(387,161,o),
(240,129,o),
(157,178,cs),
(29,254,o),
(70,420,o),
(157,468,cs),
(224,505,o),
(399,505,o),
(443,382,c)
);
},
{
attr = {
strokeWidth = 80;
};
closed = 0;
nodes = (
(441,380,l),
(482,494,o),
(636,505,o),
(719,447,cs),
(824,374,o),
(826,148,o),
(581,156,c)
);
}
);
width = 882;
},
{
associatedMasterId = "C2F00A16-B8FC-45C7-B93F-EF9B74B5AB22";
layerId = "942694AB-FFF7-456E-A631-DD70D9BC4F03";
name = "2";
shapes = (
{
attr = {
strokeWidth = 80;
};
closed = 0;
nodes = (
(438,627,l),
(438,0,l)
);
},
{
attr = {
strokeWidth = 80;
};
closed = 0;
nodes = (
(-24,660,l),
(918,660,l)
);
},
{
attr = {
strokeWidth = 80;
};
closed = 0;
nodes = (
(440,217,l),
(387,161,o),
(240,129,o),
(157,178,cs),
(29,254,o),
(70,420,o),
(157,468,cs),
(224,505,o),
(399,505,o),
(443,382,c)
);
},
{
attr = {
strokeWidth = 80;
};
closed = 0;
nodes = (
(441,380,l),
(482,494,o),
(636,505,o),
(719,447,cs),
(824,374,o),
(826,148,o),
(581,156,c)
);
}
);
width = 882;
},
{
associatedMasterId = "C2F00A16-B8FC-45C7-B93F-EF9B74B5AB22";
layerId = "74287EE6-C037-4679-A01B-34EB5C0D0D36";
name = "4";
shapes = (
{
attr = {
strokeWidth = 160;
};
closed = 0;
nodes = (
(480,627,l),
(480,0,l)
);
},
{
attr = {
strokeWidth = 160;
};
closed = 0;
nodes = (
(-9,620,l),
(982,620,l)
);
},
{
attr = {
strokeWidth = 160;
};
closed = 0;
nodes = (
(482,177,l),
(429,121,o),
(282,89,o),
(199,138,cs),
(71,214,o),
(112,380,o),
(199,428,cs),
(266,465,o),
(451,465,o),
(495,342,c)
);
},
{
attr = {
strokeWidth = 160;
};
closed = 0;
nodes = (
(483,340,l),
(524,454,o),
(678,465,o),
(761,407,cs),
(866,334,o),
(868,108,o),
(623,116,c)
);
}
);
width = 959;
},
{
associatedMasterId = "C2F00A16-B8FC-45C7-B93F-EF9B74B5AB22";
layerId = "9E252814-83E5-476D-BD5F-9B74F315E1C1";
name = "5";
shapes = (
{
attr = {
strokeWidth = 20;
};
closed = 0;
nodes = (
(438,687,l),
(438,0,l)
);
},
{
attr = {
strokeWidth = 20;
};
closed = 0;
nodes = (
(-24,690,l),
(918,690,l)
);
},
{
attr = {
strokeWidth = 20;
};
closed = 0;
nodes = (
(440,251,l),
(387,188,o),
(240,152,o),
(157,207,cs),
(29,292,o),
(70,479,o),
(157,533,cs),
(224,574,o),
(397,574,o),
(441,436,c)
);
},
{
attr = {
strokeWidth = 20;
};
closed = 0;
nodes = (
(438,434,l),
(479,563,o),
(636,574,o),
(719,509,cs),
(824,427,o),
(826,173,o),
(581,182,c)
);
}
);
width = 882;
},
{
layerId = "C2F00A16-B8FC-45C7-B93F-EF9B74B5AB22";
shapes = (
{
attr = {
strokeWidth = 80;
};
closed = 0;
nodes = (
(438,627,l),
(438,0,l)
);
},
{
attr = {
strokeWidth = 80;
};
closed = 0;
nodes = (
(-24,660,l),
(876,660,l)
);
},
{
attr = {
strokeWidth = 80;
};
closed = 0;
nodes = (
(440,217,ls),
(381,185,o),
(283,135,o),
(200,184,cs),
(72,260,o),
(107,415,o),
(194,464,cs),
(247,494,o),
(399,505,o),
(443,382,cs)
);
},
{
attr = {
strokeWidth = 80;
};
closed = 0;
nodes = (
(441,380,ls),
(482,494,o),
(618,493,o),
(690,444,cs),
(796,372,o),
(804,151,o),
(559,159,cs)
);
}
);
width = 878;
},
{
layerId = "0F5BFDAC-7F6A-4DA8-AB27-34DF6552C2B9";
width = 600;
}
);
unicode = 2325;
},
{
color = (153,154,255,255);
glyphname = "kha-deva";
lastChange = "2026-04-13 05:41:36 +0000";
layers = (
{
associatedMasterId = "C2F00A16-B8FC-45C7-B93F-EF9B74B5AB22";
layerId = "36EA3D75-F920-4DC1-A723-CC5553715AE8";
name = "11";
shapes = (
{
attr = {
strokeWidth = 80;
};
closed = 0;
nodes = (
(638,627,l),
(638,0,l)
);
},
{
attr = {
strokeWidth = 80;
};
closed = 0;
nodes = (
(14,660,l),
(257,660,o),
(530,660,o),
(773,660,c)
);
},
{
attr = {
strokeWidth = 80;
};
closed = 0;
nodes = (
(638,314,l),
(638,314,o),
(574,195,o),
(446,252,cs),
(359,290,o),
(346,394,o),
(399,457,cs),
(443,509,o),
(558,531,o),
(638,437,c)
);
},
{
attr = {
strokeWidth = 80;
};
closed = 0;
nodes = (
(77,401,l),
(75,214,o),
(173,81,o),
(359,81,cs),
(552,81,o),
(612,155,o),
(638,218,c)
);
},
{
attr = {
strokeWidth = 80;
};
closed = 0;
nodes = (
(50,660,l),
(276,660,o),
(315,350,o),
(52,350,c)
);
}
);
width = 758;
},
{
associatedMasterId = "C2F00A16-B8FC-45C7-B93F-EF9B74B5AB22";
layerId = "CAE1915B-9FDE-4489-97BD-7D6B90151569";
name = "10";
shapes = (
{
attr = {
strokeWidth = 80;
};
closed = 0;
nodes = (
(638,627,l),
(638,0,l)
);
},
{
attr = {
strokeWidth = 80;
};
closed = 0;
nodes = (
(14,660,l),
(257,660,o),
(530,660,o),
(773,660,c)
);
},
{
attr = {
strokeWidth = 80;
};
closed = 0;
nodes = (
(638,314,l),
(638,314,o),
(574,195,o),
(446,252,cs),
(359,290,o),
(346,394,o),
(399,457,cs),
(443,509,o),
(558,531,o),
(638,437,c)
);
},
{
attr = {
strokeWidth = 80;
};
closed = 0;
nodes = (
(77,401,l),
(75,214,o),
(173,81,o),
(359,81,cs),
(552,81,o),
(612,155,o),
(638,218,c)
);
},
{
attr = {
strokeWidth = 80;
};
closed = 0;
nodes = (
(50,660,l),
(276,660,o),
(315,350,o),
(52,350,c)
);
}
);
width = 758;
},
{
associatedMasterId = "C2F00A16-B8FC-45C7-B93F-EF9B74B5AB22";
layerId = "260935F4-0920-4742-A130-A8234FBF7728";
name = "9";
shapes = (
{
attr = {
strokeWidth = 80;
};
closed = 0;
nodes = (
(661,627,l),
(661,0,l)
);
},
{
attr = {
strokeWidth = 80;
};
closed = 0;
nodes = (
(-10,660,l),
(233,660,o),
(568,660,o),
(811,660,c)
);
},
{
attr = {
strokeWidth = 80;
};
closed = 0;
nodes = (
(661,314,l),
(661,314,o),
(597,195,o),
(469,252,cs),
(382,290,o),
(369,394,o),
(422,457,cs),
(466,509,o),
(581,531,o),
(661,437,c)
);
},
{
attr = {
strokeWidth = 80;
};
closed = 0;
nodes = (
(100,401,l),
(98,214,o),
(196,81,o),
(382,81,cs),
(575,81,o),
(635,182,o),
(661,245,c)
);
},
{
attr = {
strokeWidth = 80;
};
closed = 0;
nodes = (
(73,660,l),
(318,660,o),
(357,352,o),
(75,352,c)
);
}
);
width = 760;
},
{
associatedMasterId = "C2F00A16-B8FC-45C7-B93F-EF9B74B5AB22";
layerId = "79D9A9A0-51C8-477C-8261-CB1E9E61E647";
name = "8";
shapes = (
{
attr = {
strokeWidth = 80;
};
closed = 0;
nodes = (
(600,627,l),
(600,0,l)
);
},
{
attr = {
strokeWidth = 80;
};
closed = 0;
nodes = (
(-24,660,l),
(219,660,o),
(492,660,o),
(735,660,c)
);
},
{
attr = {
strokeWidth = 80;
};
closed = 0;
nodes = (
(600,314,l),
(600,314,o),
(536,195,o),
(408,252,cs),
(321,290,o),
(308,394,o),
(361,457,cs),
(405,509,o),
(520,531,o),
(600,437,c)
);
},
{
attr = {
strokeWidth = 80;
};
closed = 0;
nodes = (
(42,389,l),
(40,202,o),
(143,96,o),
(324,81,cs),
(516,65,o),
(574,155,o),
(600,218,c)
);
},
{
attr = {
strokeWidth = 80;
};
closed = 0;
nodes = (
(12,660,l),
(238,660,o),
(277,347,o),
(14,347,c)
);
}
);
width = 720;
},
{
associatedMasterId = "C2F00A16-B8FC-45C7-B93F-EF9B74B5AB22";
layerId = "B0096FDF-59B7-4C62-87EE-8D10DBD6B80A";
name = "7";
shapes = (
{
attr = {
strokeWidth = 80;
};
closed = 0;
nodes = (
(600,627,l),
(600,0,l)
);
},
{
attr = {
strokeWidth = 80;
};
closed = 0;
nodes = (
(-24,660,l),
(219,660,o),
(492,660,o),
(735,660,c)
);
},
{
attr = {
strokeWidth = 80;
};
closed = 0;
nodes = (
(600,326,l),
(600,326,o),
(536,207,o),
(408,264,cs),
(321,302,o),
(308,406,o),
(361,469,cs),
(405,521,o),
(520,543,o),
(600,449,c)
);
},
{
attr = {
strokeWidth = 80;
};
closed = 0;
nodes = (
(42,389,l),
(40,202,o),
(143,96,o),
(324,81,cs),
(516,65,o),
(574,155,o),
(600,218,c)
);
},
{
attr = {
strokeWidth = 80;
};
closed = 0;
nodes = (
(12,660,l),
(238,660,o),
(277,347,o),
(14,347,c)
);
}
);
width = 720;
},
{
associatedMasterId = "C2F00A16-B8FC-45C7-B93F-EF9B74B5AB22";
layerId = "74A7CB8F-5DF7-4588-B7E3-78EF3C7FB18D";
name = "6";
shapes = (
{
attr = {
strokeWidth = 80;
};
closed = 0;
nodes = (
(600,627,l),
(600,0,l)
);
},
{
attr = {
strokeWidth = 80;
};
closed = 0;
nodes = (
(-24,660,l),
(219,660,o),
(492,660,o),
(735,660,c)
);
},
{
attr = {
strokeWidth = 80;
};
closed = 0;
nodes = (
(600,324,l),
(600,324,o),
(546,224,o),
(439,271,cs),
(365,304,o),
(354,391,o),
(399,444,cs),
(436,488,o),
(515,517,o),
(600,427,c)
);
},
{
attr = {
strokeWidth = 80;
};
closed = 0;
nodes = (
(52,399,l),
(50,212,o),
(152,81,o),
(334,81,cs),
(500,81,o),
(574,155,o),
(600,218,c)
);
},
{
attr = {
strokeWidth = 80;
};
closed = 0;
nodes = (
(52,660,l),
(218,660,o),
(247,348,o),
(24,360,c)
);
}
);
width = 720;
},
{
associatedMasterId = "C2F00A16-B8FC-45C7-B93F-EF9B74B5AB22";
layerId = "16D08582-E3A6-4222-91FC-A2475832A6BD";
name = "3";
shapes = (
{
attr = {
strokeWidth = 80;
};
closed = 0;
nodes = (
(600,627,l),
(600,0,l)
);
},
{
attr = {
strokeWidth = 80;
};
closed = 0;
nodes = (
(-13,660,l),
(230,660,o),
(492,660,o),
(735,660,c)
);
},
{
attr = {
strokeWidth = 80;
};
closed = 0;
nodes = (
(600,324,l),
(600,324,o),
(546,224,o),
(439,271,cs),
(365,304,o),
(354,391,o),
(399,444,cs),
(436,488,o),
(515,517,o),
(600,427,c)
);
},
{
attr = {
strokeWidth = 80;
};
closed = 0;
nodes = (
(73,399,l),
(66,254,o),
(155,93,o),
(334,81,cs),
(500,70,o),
(574,155,o),
(600,218,c)
);
},
{
attr = {
strokeWidth = 80;
};
closed = 0;
nodes = (
(63,660,l),
(229,660,o),
(268,348,o),
(45,360,c)
);
}
);
width = 720;
},
{
associatedMasterId = "C2F00A16-B8FC-45C7-B93F-EF9B74B5AB22";
layerId = "4170FEE2-2F45-413A-BF89-0C4C760EB048";
name = "1";
shapes = (
{
attr = {
strokeWidth = 80;
};
closed = 0;
nodes = (
(600,627,l),
(600,0,l)
);
},
{
attr = {
strokeWidth = 80;
};
closed = 0;
nodes = (
(-22,660,l),
(221,660,o),
(556,660,o),
(799,660,c)
);
},
{
attr = {
strokeWidth = 80;
};
closed = 0;
nodes = (
(600,324,l),
(600,324,o),
(546,224,o),
(439,271,cs),
(365,304,o),
(354,391,o),
(399,444,cs),
(436,488,o),
(515,517,o),
(600,427,c)
);
},
{
attr = {
strokeWidth = 80;
};
closed = 0;
nodes = (
(73,399,l),
(66,254,o),
(155,93,o),
(334,81,cs),
(500,70,o),
(574,155,o),
(600,218,c)
);
},
{
attr = {
strokeWidth = 80;
};
closed = 0;
nodes = (
(83,660,l),
(238,660,o),
(238,359,o),
(65,359,c)
);
}
);
width = 757;
},
{
associatedMasterId = "C2F00A16-B8FC-45C7-B93F-EF9B74B5AB22";
layerId = "74287EE6-C037-4679-A01B-34EB5C0D0D36";
name = "4";
shapes = (
{
attr = {
strokeWidth = 160;
};
closed = 0;
nodes = (
(719,626,l),
(719,-1,l)
);
},
{
attr = {
strokeWidth = 160;
};
closed = 0;
nodes = (
(-31,620,l),
(-31,620,o),
(897,620,o),
(897,620,c)
);
},
{
attr = {
strokeWidth = 160;
};
closed = 0;
nodes = (
(719,261,l),
(719,261,o),
(624,175,o),
(516,215,cs),
(441,243,o),
(434,363,o),
(475,411,cs),
(520,463,o),
(627,466,o),
(712,389,c)
);
},
{
attr = {
strokeWidth = 160;
};
closed = 0;
nodes = (
(109,399,l),
(102,254,o),
(191,93,o),
(370,81,cs),
(536,70,o),
(610,155,o),
(636,218,c)
);
},
{
attr = {
strokeWidth = 160;
};
closed = 0;
nodes = (
(99,620,l),
(265,620,o),
(304,308,o),
(81,320,c)
);
}
);
width = 880;
},
{
associatedMasterId = "C2F00A16-B8FC-45C7-B93F-EF9B74B5AB22";
layerId = "9E252814-83E5-476D-BD5F-9B74F315E1C1";
name = "5";
shapes = (
{
attr = {
strokeWidth = 20;
};
closed = 0;
nodes = (
(600,690,l),
(600,0,l)
);
},
{
attr = {
strokeWidth = 20;
};
closed = 0;
nodes = (
(-13,690,l),
(-13,690,o),
(735,690,o),
(735,690,c)
);
},
{
attr = {
strokeWidth = 20;
};
closed = 0;
nodes = (
(600,319,l),
(600,319,o),
(540,206,o),
(420,259,cs),
(337,295,o),
(325,393,o),
(375,453,cs),
(417,502,o),
(505,534,o),
(600,434,c)
);
},
{
attr = {
strokeWidth = 20;
};
closed = 0;
nodes = (
(63,690,l),
(229,690,o),
(268,378,o),
(45,390,c),
(38,245,o),
(155,93,o),
(334,81,cs),
(500,70,o),
(574,155,o),
(600,218,c)
);
}
);
width = 720;
},
{
associatedMasterId = "C2F00A16-B8FC-45C7-B93F-EF9B74B5AB22";
layerId = "942694AB-FFF7-456E-A631-DD70D9BC4F03";
name = "2";
shapes = (
{
attr = {
strokeWidth = 80;
};
closed = 0;
nodes = (
(600,627,l),
(600,0,l)
);
},
{
attr = {
strokeWidth = 80;
};
closed = 0;
nodes = (
(-13,660,l),
(230,660,o),
(492,660,o),
(735,660,c)
);
},
{
attr = {
strokeWidth = 80;
};
closed = 0;
nodes = (
(600,324,l),
(600,324,o),
(546,224,o),
(439,271,cs),
(365,304,o),
(354,391,o),
(399,444,cs),
(436,488,o),
(515,517,o),
(600,427,c)
);
},
{
attr = {
strokeWidth = 80;
};
closed = 0;
nodes = (
(73,399,l),
(66,254,o),
(155,93,o),
(334,81,cs),
(500,70,o),
(574,155,o),
(600,218,c)
);
},
{
attr = {
strokeWidth = 80;
};
closed = 0;
nodes = (
(63,660,l),
(229,660,o),
(268,348,o),
(45,360,c)
);
}
);
width = 720;
},
{
layerId = "C2F00A16-B8FC-45C7-B93F-EF9B74B5AB22";
shapes = (
{
attr = {
strokeWidth = 80;
};
closed = 0;
nodes = (
(600,627,l),
(600,0,l)
);
},
{
attr = {
strokeWidth = 80;
};
closed = 0;
nodes = (
(-22,660,l),
(221,660,o),
(585,660,o),
(828,660,c)
);
},
{
attr = {
strokeWidth = 80;
};
closed = 0;
nodes = (
(600,324,l),
(600,324,o),
(546,224,o),
(439,271,cs),
(365,304,o),
(354,391,o),
(399,444,cs),
(436,488,o),
(515,517,o),
(600,427,cs)
);
},
{
attr = {
strokeWidth = 80;
};
closed = 0;
nodes = (
(79,385,l),
(60,258,o),
(155,93,o),
(334,81,cs),
(500,70,o),
(574,155,o),
(600,218,c)
);
},
{
attr = {
strokeWidth = 80;
};
closed = 0;
nodes = (
(76,661,l),
(243,625,o),
(244,355,o),
(39,355,c)
);
}
);
width = 800;
},
{
layerId = "0F5BFDAC-7F6A-4DA8-AB27-34DF6552C2B9";
width = 600;
}
);
unicode = 2326;
},
{
color = (153,154,255,255);
glyphname = "ga-deva";
lastChange = "2026-04-13 05:41:36 +0000";
layers = (
{
associatedMasterId = "C2F00A16-B8FC-45C7-B93F-EF9B74B5AB22";
layerId = "36EA3D75-F920-4DC1-A723-CC5553715AE8";
name = "11";
shapes = (
{
attr = {
strokeWidth = 80;
};
closed = 0;
nodes = (
(480,627,l),
(480,0,l)
);
},
{
attr = {
strokeWidth = 80;
};
closed = 0;
nodes = (
(-14,660,l),
(617,660,l)
);
},
{
attr = {
strokeWidth = 80;
};
closed = 0;
nodes = (
(200,636,l),
(200,336,ls),
(200,314,o),
(214,232,o),
(61,241,c)
);
}
);
width = 601;
},
{
associatedMasterId = "C2F00A16-B8FC-45C7-B93F-EF9B74B5AB22";
layerId = "CAE1915B-9FDE-4489-97BD-7D6B90151569";
name = "10";
shapes = (
{
attr = {
strokeWidth = 80;
};
closed = 0;
nodes = (
(480,627,l),
(480,0,l)
);
},
{
attr = {
strokeWidth = 80;
};
closed = 0;
nodes = (
(-14,660,l),
(617,660,l)
);
},
{
attr = {
strokeWidth = 80;
};
closed = 0;
nodes = (
(200,636,l),
(200,336,ls),
(200,314,o),
(207,206,o),
(103,244,cs),
(92,248,o),
(92,298,o),
(100,315,cs),
(113,343,o),
(123,306,o),
(124,272,c)
);
}
);
width = 601;
},
{
associatedMasterId = "C2F00A16-B8FC-45C7-B93F-EF9B74B5AB22";
layerId = "260935F4-0920-4742-A130-A8234FBF7728";
name = "9";
shapes = (
{
attr = {
strokeWidth = 80;
};
closed = 0;
nodes = (
(480,627,l),
(480,0,l)
);
},
{
attr = {
strokeWidth = 80;
};
closed = 0;
nodes = (
(-14,660,l),
(617,660,l)
);
},
{
attr = {
strokeWidth = 80;
};
closed = 0;
nodes = (
(200,636,l),
(200,336,ls),
(200,314,o),
(214,232,o),
(61,241,c)
);
}
);
width = 601;
},
{
associatedMasterId = "C2F00A16-B8FC-45C7-B93F-EF9B74B5AB22";
layerId = "79D9A9A0-51C8-477C-8261-CB1E9E61E647";
name = "8";
shapes = (
{
attr = {
strokeWidth = 80;
};
closed = 0;
nodes = (
(440,627,l),
(440,0,l)
);
},
{
attr = {
strokeWidth = 80;
};
closed = 0;
nodes = (
(-14,660,l),
(582,660,l)
);
},
{
attr = {
strokeWidth = 80;
};
closed = 0;
nodes = (
(200,636,l),
(200,343,ls),
(200,321,o),
(214,239,o),
(61,248,c)
);
}
);
width = 559;
},
{
associatedMasterId = "C2F00A16-B8FC-45C7-B93F-EF9B74B5AB22";
layerId = "B0096FDF-59B7-4C62-87EE-8D10DBD6B80A";
name = "7";
shapes = (
{
attr = {
strokeWidth = 80;
};
closed = 0;
nodes = (
(440,627,l),
(440,0,l)
);
},
{
attr = {
strokeWidth = 80;
};
closed = 0;
nodes = (
(-14,660,l),
(582,660,l)
);
},
{
attr = {
strokeWidth = 80;
};
closed = 0;
nodes = (
(200,636,l),
(200,343,ls),
(200,321,o),
(214,239,o),
(61,248,c)
);
}
);
width = 559;
},
{
associatedMasterId = "C2F00A16-B8FC-45C7-B93F-EF9B74B5AB22";
layerId = "74A7CB8F-5DF7-4588-B7E3-78EF3C7FB18D";
name = "6";
shapes = (
{
attr = {
strokeWidth = 80;
};
closed = 0;
nodes = (
(440,627,l),
(440,0,l)
);
},
{
attr = {
strokeWidth = 80;
};
closed = 0;
nodes = (
(-14,660,l),
(582,660,l)
);
},
{
attr = {
strokeWidth = 80;
};
closed = 0;
nodes = (
(200,636,l),
(200,363,ls),
(200,341,o),
(214,259,o),
(61,268,c)
);
}
);
width = 559;
},
{
associatedMasterId = "C2F00A16-B8FC-45C7-B93F-EF9B74B5AB22";
layerId = "16D08582-E3A6-4222-91FC-A2475832A6BD";
name = "3";
shapes = (
{
attr = {
strokeWidth = 80;
};
closed = 0;
nodes = (
(440,627,l),
(440,0,l)
);
},
{
attr = {
strokeWidth = 80;
};
closed = 0;
nodes = (
(-14,660,l),
(582,660,l)
);
},
{
attr = {
strokeWidth = 80;
};
closed = 0;
nodes = (
(200,636,l),
(200,363,ls),
(200,341,o),
(214,259,o),
(61,268,c)
);
}
);
width = 559;
},
{
associatedMasterId = "C2F00A16-B8FC-45C7-B93F-EF9B74B5AB22";
layerId = "4170FEE2-2F45-413A-BF89-0C4C760EB048";
name = "1";
shapes = (
{
attr = {
strokeWidth = 80;
};
closed = 0;
nodes = (
(440,627,l),
(440,0,l)
);
},
{
attr = {
strokeWidth = 80;
};
closed = 0;
nodes = (
(-14,660,l),
(639,660,l)
);
},
{
attr = {
strokeWidth = 80;
};
closed = 0;
nodes = (
(200,636,l),
(200,363,ls),
(200,341,o),
(214,259,o),
(61,268,c)
);
}
);
width = 600;
},
{
associatedMasterId = "C2F00A16-B8FC-45C7-B93F-EF9B74B5AB22";
layerId = "74287EE6-C037-4679-A01B-34EB5C0D0D36";
name = "4";
shapes = (
{
attr = {
strokeWidth = 160;
};
closed = 0;
nodes = (
(519,628,l),
(519,1,l)
);
},
{
attr = {
strokeWidth = 160;
};
closed = 0;
nodes = (
(-25,620,l),
(696,620,l)
);
},
{
attr = {
strokeWidth = 160;
};
closed = 0;
nodes = (
(239,606,l),
(239,333,ls),
(239,311,o),
(273,209,o),
(124,244,cs),
(88,253,o),
(100,367,o),
(151,298,cs)
);
}
);
width = 681;
},
{
associatedMasterId = "C2F00A16-B8FC-45C7-B93F-EF9B74B5AB22";
layerId = "9E252814-83E5-476D-BD5F-9B74F315E1C1";
name = "5";
shapes = (
{
attr = {
strokeWidth = 20;
};
closed = 0;
nodes = (
(440,687,l),
(440,0,l)
);
},
{
attr = {
strokeWidth = 20;
};
closed = 0;
nodes = (
(-14,691,l),
(582,691,l)
);
},
{
attr = {
strokeWidth = 20;
};
closed = 0;
nodes = (
(200,696,l),
(200,363,ls),
(200,341,o),
(214,259,o),
(61,268,c)
);
}
);
width = 559;
},
{
associatedMasterId = "C2F00A16-B8FC-45C7-B93F-EF9B74B5AB22";
layerId = "942694AB-FFF7-456E-A631-DD70D9BC4F03";
name = "2";
shapes = (
{
attr = {
strokeWidth = 80;
};
closed = 0;
nodes = (
(440,627,l),
(440,0,l)
);
},
{
attr = {
strokeWidth = 80;
};
closed = 0;
nodes = (
(-14,660,l),
(582,660,l)
);
},
{
attr = {
strokeWidth = 80;
};
closed = 0;
nodes = (
(200,636,l),
(200,363,ls),
(200,341,o),
(214,259,o),
(61,268,c)
);
}
);
width = 559;
},
{
layerId = "C2F00A16-B8FC-45C7-B93F-EF9B74B5AB22";
shapes = (
{
attr = {
strokeWidth = 80;
};
closed = 0;
nodes = (
(519,627,l),
(519,0,l)
);
},
{
attr = {
strokeWidth = 80;
};
closed = 0;
nodes = (
(-32,660,l),
(758,660,l)
);
},
{
attr = {
strokeWidth = 80;
};
closed = 0;
nodes = (
(279,636,l),
(279,363,l),
(279,341,o),
(293,259,o),
(140,268,cs)
);
}
);
width = 720;
},
{
layerId = "0F5BFDAC-7F6A-4DA8-AB27-34DF6552C2B9";
width = 600;
}
);
unicode = 2327;
},
{
color = (153,154,255,255);
glyphname = "gha-deva";
lastChange = "2026-04-13 05:41:36 +0000";
layers = (
{
associatedMasterId = "C2F00A16-B8FC-45C7-B93F-EF9B74B5AB22";
guides = (
{
pos = (0,116);
}
);
layerId = "36EA3D75-F920-4DC1-A723-CC5553715AE8";
name = "11";
shapes = (
{
attr = {
strokeWidth = 80;
};
closed = 0;
nodes = (
(519,627,l),
(519,0,l)
);
},
{
attr = {
strokeWidth = 80;
};
closed = 0;
nodes = (
(-30,660,l),
(656,660,l)
);
},
{
attr = {
strokeWidth = 80;
};
closed = 0;
nodes = (
(292,423,l),
(13,389,o),
(39,660,o),
(213,660,c)
);
},
{
attr = {
strokeWidth = 80;
};
closed = 0;
nodes = (
(319,423,l),
(201,423,o),
(143,378,o),
(135,312,cs),
(118,168,o),
(247,154,o),
(332,156,cs),
(491,159,o),
(512,277,o),
(519,349,c)
);
}
);
width = 641;
},
{
associatedMasterId = "C2F00A16-B8FC-45C7-B93F-EF9B74B5AB22";
guides = (
{
pos = (0,116);
}
);
layerId = "CAE1915B-9FDE-4489-97BD-7D6B90151569";
name = "10";
shapes = (
{
attr = {
strokeWidth = 80;
};
closed = 0;
nodes = (
(519,627,l),
(519,0,l)
);
},
{
attr = {
strokeWidth = 80;
};
closed = 0;
nodes = (
(-30,660,l),
(656,660,l)
);
},
{
attr = {
strokeWidth = 80;
};
closed = 0;
nodes = (
(292,423,l),
(13,389,o),
(39,660,o),
(213,660,c)
);
},
{
attr = {
strokeWidth = 80;
};
closed = 0;
nodes = (
(319,423,l),
(201,423,o),
(143,378,o),
(135,312,cs),
(118,168,o),
(247,150,o),
(332,156,cs),
(426,163,o),
(519,205,o),
(519,349,c)
);
}
);
width = 641;
},
{
associatedMasterId = "C2F00A16-B8FC-45C7-B93F-EF9B74B5AB22";
guides = (
{
pos = (0,116);
}
);
layerId = "260935F4-0920-4742-A130-A8234FBF7728";
name = "9";
shapes = (
{
attr = {
strokeWidth = 80;
};
closed = 0;
nodes = (
(-30,660,l),
(656,660,l)
);
},
{
attr = {
strokeWidth = 80;
};
closed = 0;
nodes = (
(519,627,l),
(519,0,l)
);
},
{
attr = {
strokeWidth = 80;
};
closed = 0;
nodes = (
(279,422,l),
(0,388,o),
(14,660,o),
(175,660,cs)
);
},
{
attr = {
strokeWidth = 80;
};
closed = 0;
nodes = (
(306,422,l),
(188,422,o),
(130,378,o),
(122,312,cs),
(105,168,o),
(234,154,o),
(319,154,cs),
(478,154,o),
(512,277,o),
(519,349,c)
);
}
);
width = 641;
},
{
associatedMasterId = "C2F00A16-B8FC-45C7-B93F-EF9B74B5AB22";
guides = (
{
pos = (0,116);
}
);
layerId = "79D9A9A0-51C8-477C-8261-CB1E9E61E647";
name = "8";
shapes = (
{
attr = {
strokeWidth = 80;
};
closed = 0;
nodes = (
(519,627,l),
(519,0,l)
);
},
{
attr = {
strokeWidth = 80;
};
closed = 0;
nodes = (
(-30,660,l),
(656,660,l)
);
},
{
attr = {
strokeWidth = 80;
};
closed = 0;
nodes = (
(292,423,l),
(13,389,o),
(39,660,o),
(213,660,c)
);
},
{
attr = {
strokeWidth = 80;
};
closed = 0;
nodes = (
(319,423,l),
(201,423,o),
(143,378,o),
(135,312,cs),
(118,168,o),
(247,154,o),
(332,156,cs),
(491,159,o),
(512,277,o),
(519,349,c)
);
}
);
width = 641;
},
{
associatedMasterId = "C2F00A16-B8FC-45C7-B93F-EF9B74B5AB22";
guides = (
{
pos = (0,116);
}
);
layerId = "B0096FDF-59B7-4C62-87EE-8D10DBD6B80A";
name = "7";
shapes = (
{
attr = {
strokeWidth = 80;
};
closed = 0;
nodes = (
(519,627,l),
(519,0,l)
);
},
{
attr = {
strokeWidth = 80;
};
closed = 0;
nodes = (
(-30,660,l),
(656,660,l)
);
},
{
attr = {
strokeWidth = 80;
};
closed = 0;
nodes = (
(292,423,l),
(13,389,o),
(39,660,o),
(213,660,c)
);
},
{
attr = {
strokeWidth = 80;
};
closed = 0;
nodes = (
(319,423,l),
(201,423,o),
(143,378,o),
(135,312,cs),
(118,168,o),
(247,154,o),
(332,156,cs),
(491,159,o),
(512,277,o),
(519,349,c)
);
}
);
width = 641;
},
{
associatedMasterId = "C2F00A16-B8FC-45C7-B93F-EF9B74B5AB22";
layerId = "74A7CB8F-5DF7-4588-B7E3-78EF3C7FB18D";
name = "6";
shapes = (
{
attr = {
strokeWidth = 80;
};
closed = 0;
nodes = (
(599,627,l),
(599,0,l)
);
},
{
attr = {
strokeWidth = 80;
};
closed = 0;
nodes = (
(-18,660,l),
(744,660,l)
);
},
{
attr = {
strokeWidth = 80;
};
closed = 0;
nodes = (
(598,627,l),
(598,0,l)
);
},
{
attr = {
strokeWidth = 80;
};
closed = 0;
nodes = (
(355,419,l),
(355,419,o),
(211,346,o),
(143,452,cs),
(81,549,o),
(154,660,o),
(243,660,c)
);
},
{
attr = {
strokeWidth = 80;
};
closed = 0;
nodes = (
(312,404,l),
(192,370,o),
(180,265,o),
(192,218,cs),
(213,136,o),
(280,103,o),
(388,102,cs),
(548,101,o),
(575,211,o),
(599,271,c)
);
}
);
width = 718;
},
{
associatedMasterId = "C2F00A16-B8FC-45C7-B93F-EF9B74B5AB22";
layerId = "16D08582-E3A6-4222-91FC-A2475832A6BD";
name = "3";
shapes = (
{
attr = {
strokeWidth = 80;
};
closed = 0;
nodes = (
(599,627,l),
(599,0,l)
);
},
{
attr = {
strokeWidth = 80;
};
closed = 0;
nodes = (
(-18,660,l),
(744,660,l)
);
},
{
attr = {
strokeWidth = 80;
};
closed = 0;
nodes = (
(598,627,l),
(598,0,l)
);
},
{
attr = {
strokeWidth = 80;
};
closed = 0;
nodes = (
(355,419,l),
(355,419,o),
(211,346,o),
(143,452,cs),
(81,549,o),
(154,660,o),
(243,660,c)
);
},
{
attr = {
strokeWidth = 80;
};
closed = 0;
nodes = (
(312,404,l),
(192,370,o),
(180,265,o),
(192,218,cs),
(213,136,o),
(280,103,o),
(388,102,cs),
(548,101,o),
(575,211,o),
(599,271,c)
);
}
);
width = 718;
},
{
associatedMasterId = "C2F00A16-B8FC-45C7-B93F-EF9B74B5AB22";
layerId = "4170FEE2-2F45-413A-BF89-0C4C760EB048";
name = "1";
shapes = (
{
attr = {
strokeWidth = 80;
};
closed = 0;
nodes = (
(599,627,l),
(599,0,l)
);
},
{
attr = {
strokeWidth = 80;
};
closed = 0;
nodes = (
(-18,660,l),
(799,660,l)
);
},
{
attr = {
strokeWidth = 80;
};
closed = 0;
nodes = (
(598,627,l),
(598,0,l)
);
},
{
attr = {
strokeWidth = 80;
};
closed = 0;
nodes = (
(355,419,l),
(355,419,o),
(211,346,o),
(143,452,cs),
(81,549,o),
(154,660,o),
(243,660,c)
);
},
{
attr = {
strokeWidth = 80;
};
closed = 0;
nodes = (
(312,404,l),
(192,370,o),
(180,265,o),
(192,218,cs),
(213,136,o),
(280,103,o),
(388,102,cs),
(548,101,o),
(575,211,o),
(599,271,c)
);
}
);
width = 762;
},
{
associatedMasterId = "C2F00A16-B8FC-45C7-B93F-EF9B74B5AB22";
layerId = "74287EE6-C037-4679-A01B-34EB5C0D0D36";
name = "4";
shapes = (
{
attr = {
strokeWidth = 160;
};
closed = 0;
nodes = (
(639,587,l),
(639,0,l)
);
},
{
attr = {
strokeWidth = 160;
};
closed = 0;
nodes = (
(-18,620,l),
(809,620,l)
);
},
{
attr = {
strokeWidth = 160;
};
closed = 0;
nodes = (
(370,392,l),
(370,392,o),
(181,314,o),
(124,426,cs),
(68,536,o),
(164,619,o),
(253,619,c)
);
},
{
attr = {
strokeWidth = 160;
};
closed = 0;
nodes = (
(343,382,l),
(223,348,o),
(188,307,o),
(211,214,cs),
(235,115,o),
(343,99,o),
(429,106,cs),
(588,119,o),
(632,259,o),
(639,339,c)
);
}
);
width = 800;
},
{
associatedMasterId = "C2F00A16-B8FC-45C7-B93F-EF9B74B5AB22";
layerId = "9E252814-83E5-476D-BD5F-9B74F315E1C1";
name = "5";
shapes = (
{
attr = {
strokeWidth = 20;
};
closed = 0;
nodes = (
(599,680,l),
(599,0,l)
);
},
{
attr = {
strokeWidth = 20;
};
closed = 0;
nodes = (
(-18,690,l),
(744,690,l)
);
},
{
attr = {
strokeWidth = 20;
};
closed = 0;
nodes = (
(355,439,l),
(355,439,o),
(200,366,o),
(132,472,cs),
(70,569,o),
(154,690,o),
(243,690,c)
);
},
{
attr = {
strokeWidth = 20;
};
closed = 0;
nodes = (
(312,424,l),
(192,390,o),
(148,328,o),
(170,229,cs),
(188,146,o),
(295,82,o),
(396,91,cs),
(555,105,o),
(575,211,o),
(599,271,c)
);
}
);
width = 718;
},
{
associatedMasterId = "C2F00A16-B8FC-45C7-B93F-EF9B74B5AB22";
layerId = "942694AB-FFF7-456E-A631-DD70D9BC4F03";
name = "2";
shapes = (
{
attr = {
strokeWidth = 80;
};
closed = 0;
nodes = (
(599,627,l),
(599,0,l)
);
},
{
attr = {
strokeWidth = 80;
};
closed = 0;
nodes = (
(-18,660,l),
(744,660,l)
);
},
{
attr = {
strokeWidth = 80;
};
closed = 0;
nodes = (
(598,627,l),
(598,0,l)
);
},
{
attr = {
strokeWidth = 80;
};
closed = 0;
nodes = (
(355,419,l),
(355,419,o),
(211,346,o),
(143,452,cs),
(81,549,o),
(154,660,o),
(243,660,c)
);
},
{
attr = {
strokeWidth = 80;
};
closed = 0;
nodes = (
(312,404,l),
(192,370,o),
(180,265,o),
(192,218,cs),
(213,136,o),
(280,103,o),
(388,102,cs),
(548,101,o),
(575,211,o),
(599,271,c)
);
}
);
width = 718;
},
{
layerId = "C2F00A16-B8FC-45C7-B93F-EF9B74B5AB22";
shapes = (
{
attr = {
strokeWidth = 80;
};
closed = 0;
nodes = (
(599,627,l),
(599,0,l)
);
},
{
attr = {
strokeWidth = 80;
};
closed = 0;
nodes = (
(-18,660,l),
(852,660,l)
);
},
{
attr = {
strokeWidth = 80;
};
closed = 0;
nodes = (
(598,627,l),
(598,0,l)
);
},
{
attr = {
strokeWidth = 80;
};
closed = 0;
nodes = (
(365,419,l),
(365,419,o),
(211,346,o),
(143,452,cs),
(81,549,o),
(154,660,o),
(243,660,c)
);
},
{
attr = {
strokeWidth = 80;
};
closed = 0;
nodes = (
(322,404,l),
(202,370,o),
(189,265,o),
(202,218,cs),
(215,171,o),
(266,109,o),
(380,109,cs),
(525,109,o),
(575,204,o),
(599,264,c)
);
}
);
width = 799;
},
{
layerId = "0F5BFDAC-7F6A-4DA8-AB27-34DF6552C2B9";
width = 600;
}
);
unicode = 2328;
},
{
color = (153,154,255,255);
glyphname = "nga-deva";
lastChange = "2026-04-13 05:41:36 +0000";
layers = (
{
associatedMasterId = "C2F00A16-B8FC-45C7-B93F-EF9B74B5AB22";
layerId = "36EA3D75-F920-4DC1-A723-CC5553715AE8";
name = "11";
shapes = (
{
attr = {
strokeWidth = 80;
};
closed = 0;
nodes = (
(-29,660,l),
(667,660,l)
);
},
{
attr = {
strokeWidth = 80;
};
closed = 0;
nodes = (
(553,281,l),
(644,281,l)
);
},
{
attr = {
strokeWidth = 80;
};
closed = 0;
nodes = (
(440,643,l),
(440,480,l),
(240,480,l),
(93,484,o),
(112,281,o),
(196,281,cs),
(442,281,ls),
(511,281,o),
(534,56,o),
(395,40,cs),
(213,19,o),
(118,66,o),
(118,161,c)
);
}
);
width = 641;
},
{
associatedMasterId = "C2F00A16-B8FC-45C7-B93F-EF9B74B5AB22";
layerId = "CAE1915B-9FDE-4489-97BD-7D6B90151569";
name = "10";
shapes = (
{
attr = {
strokeWidth = 80;
};
closed = 0;
nodes = (
(-29,660,l),
(667,660,l)
);
},
{
attr = {
strokeWidth = 80;
};
closed = 0;
nodes = (
(553,281,l),
(644,281,l)
);
},
{
attr = {
strokeWidth = 80;
};
closed = 0;
nodes = (
(440,643,l),
(440,480,l),
(240,480,l),
(93,484,o),
(112,281,o),
(196,281,cs),
(442,281,ls),
(511,281,o),
(534,56,o),
(395,40,cs),
(213,19,o),
(118,66,o),
(118,161,c)
);
}
);
width = 641;
},
{
associatedMasterId = "C2F00A16-B8FC-45C7-B93F-EF9B74B5AB22";
layerId = "260935F4-0920-4742-A130-A8234FBF7728";
name = "9";
shapes = (
{
attr = {
strokeWidth = 80;
};
closed = 0;
nodes = (
(-29,660,l),
(667,660,l)
);
},
{
attr = {
strokeWidth = 80;
};
closed = 0;
nodes = (
(553,281,l),
(644,281,l)
);
},
{
attr = {
strokeWidth = 80;
};
closed = 0;
nodes = (
(440,643,l),
(440,480,l),
(247,480,l),
(100,484,o),
(119,281,o),
(203,281,cs),
(445,281,ls),
(514,281,o),
(537,56,o),
(398,40,cs),
(216,19,o),
(118,66,o),
(118,161,c)
);
}
);
width = 641;
},
{
associatedMasterId = "C2F00A16-B8FC-45C7-B93F-EF9B74B5AB22";
layerId = "79D9A9A0-51C8-477C-8261-CB1E9E61E647";
name = "8";
shapes = (
{
attr = {
strokeWidth = 80;
};
closed = 0;
nodes = (
(-29,660,l),
(667,660,l)
);
},
{
attr = {
strokeWidth = 80;
};
closed = 0;
nodes = (
(553,278,l),
(644,278,l)
);
},
{
attr = {
strokeWidth = 80;
};
closed = 0;
nodes = (
(440,643,l),
(440,482,l),
(240,482,l),
(99,486,o),
(112,278,o),
(196,278,cs),
(442,278,ls),
(511,278,o),
(538,56,o),
(395,40,cs),
(213,20,o),
(118,64,o),
(118,159,c)
);
}
);
width = 641;
},
{
associatedMasterId = "C2F00A16-B8FC-45C7-B93F-EF9B74B5AB22";
layerId = "B0096FDF-59B7-4C62-87EE-8D10DBD6B80A";
name = "7";
shapes = (
{
attr = {
strokeWidth = 80;
};
closed = 0;
nodes = (
(-29,660,l),
(667,660,l)
);
},
{
attr = {
strokeWidth = 80;
};
closed = 0;
nodes = (
(553,267,l),
(644,267,l)
);
},
{
attr = {
strokeWidth = 80;
};
closed = 0;
nodes = (
(440,643,l),
(440,464,l),
(240,464,l),
(99,468,o),
(112,267,o),
(196,267,cs),
(442,267,ls),
(511,267,o),
(538,56,o),
(395,40,cs),
(213,20,o),
(118,56,o),
(118,151,c)
);
}
);
width = 641;
},
{
associatedMasterId = "C2F00A16-B8FC-45C7-B93F-EF9B74B5AB22";
layerId = "74A7CB8F-5DF7-4588-B7E3-78EF3C7FB18D";
name = "6";
shapes = (
{
attr = {
strokeWidth = 80;
};
closed = 0;
nodes = (
(-29,660,l),
(667,660,l)
);
},
{
attr = {
strokeWidth = 80;
};
closed = 0;
nodes = (
(440,643,l),
(440,479,l),
(240,479,l),
(99,483,o),
(112,282,o),
(196,282,cs),
(427,282,ls),
(496,282,o),
(502,53,o),
(384,40,cs),
(202,20,o),
(121,56,o),
(121,151,c)
);
},
{
attr = {
strokeWidth = 80;
};
closed = 0;
nodes = (
(553,282,l),
(644,282,l)
);
}
);
width = 641;
},
{
associatedMasterId = "C2F00A16-B8FC-45C7-B93F-EF9B74B5AB22";
layerId = "16D08582-E3A6-4222-91FC-A2475832A6BD";
name = "3";
shapes = (
{
attr = {
strokeWidth = 80;
};
closed = 0;
nodes = (
(-29,660,l),
(667,660,l)
);
},
{
attr = {
strokeWidth = 80;
};
closed = 0;
nodes = (
(440,643,l),
(440,479,l),
(240,479,l),
(99,483,o),
(112,282,o),
(196,282,cs),
(427,282,ls),
(496,282,o),
(502,53,o),
(384,40,cs),
(202,20,o),
(121,56,o),
(121,151,c)
);
},
{
attr = {
strokeWidth = 80;
};
closed = 0;
nodes = (
(553,282,l),
(644,282,l)
);
}
);
width = 641;
},
{
associatedMasterId = "C2F00A16-B8FC-45C7-B93F-EF9B74B5AB22";
layerId = "4170FEE2-2F45-413A-BF89-0C4C760EB048";
name = "1";
shapes = (
{
attr = {
strokeWidth = 80;
};
closed = 0;
nodes = (
(-29,660,l),
(667,660,l)
);
},
{
attr = {
strokeWidth = 80;
};
closed = 0;
nodes = (
(440,643,l),
(440,479,l),
(240,479,l),
(99,483,o),
(112,282,o),
(196,282,cs),
(427,282,ls),
(496,282,o),
(502,53,o),
(384,40,cs),
(202,20,o),
(121,56,o),
(121,151,c)
);
},
{
attr = {
strokeWidth = 80;
};
closed = 0;
nodes = (
(553,282,l),
(644,282,l)
);
}
);
width = 641;
},
{
associatedMasterId = "C2F00A16-B8FC-45C7-B93F-EF9B74B5AB22";
layerId = "74287EE6-C037-4679-A01B-34EB5C0D0D36";
name = "4";
shapes = (
{
attr = {
strokeWidth = 160;
};
closed = 0;
nodes = (
(-20,620,l),
(809,620,l)
);
},
{
attr = {
strokeWidth = 160;
};
closed = 0;
nodes = (
(479,643,l),
(479,439,l),
(259,439,l),
(118,443,o),
(131,262,o),
(215,262,cs),
(486,262,ls),
(555,262,o),
(572,83,o),
(443,81,cs),
(245,78,o),
(81,81,o),
(81,81,c)
);
},
{
attr = {
strokeWidth = 160;
};
closed = 0;
nodes = (
(639,282,l),
(748,282,l)
);
}
);
width = 800;
},
{
associatedMasterId = "C2F00A16-B8FC-45C7-B93F-EF9B74B5AB22";
layerId = "9E252814-83E5-476D-BD5F-9B74F315E1C1";
name = "5";
shapes = (
{
attr = {
strokeWidth = 20;
};
closed = 0;
nodes = (
(-29,690,l),
(667,690,l)
);
},
{
attr = {
strokeWidth = 20;
};
closed = 0;
nodes = (
(440,690,l),
(440,509,l),
(240,509,l),
(99,513,o),
(112,273,o),
(196,273,cs),
(427,273,ls),
(496,273,o),
(502,30,o),
(384,17,cs),
(202,-3,o),
(121,33,o),
(121,128,c)
);
},
{
attr = {
strokeWidth = 20;
};
closed = 0;
nodes = (
(553,282,l),
(644,282,l)
);
}
);
width = 641;
},
{
associatedMasterId = "C2F00A16-B8FC-45C7-B93F-EF9B74B5AB22";
layerId = "942694AB-FFF7-456E-A631-DD70D9BC4F03";
name = "2";
shapes = (
{
attr = {
strokeWidth = 80;
};
closed = 0;
nodes = (
(-29,660,l),
(667,660,l)
);
},
{
attr = {
strokeWidth = 80;
};
closed = 0;
nodes = (
(440,643,l),
(440,479,l),
(240,479,l),
(99,483,o),
(112,282,o),
(196,282,cs),
(427,282,ls),
(496,282,o),
(502,53,o),
(384,40,cs),
(202,20,o),
(121,56,o),
(121,151,c)
);
},
{
attr = {
strokeWidth = 80;
};
closed = 0;
nodes = (
(553,282,l),
(644,282,l)
);
}
);
width = 641;
},
{
layerId = "C2F00A16-B8FC-45C7-B93F-EF9B74B5AB22";
shapes = (
{
attr = {
strokeWidth = 80;
};
closed = 0;
nodes = (
(-29,660,l),
(690,660,l)
);
},
{
attr = {
strokeWidth = 80;
};
closed = 0;
nodes = (
(440,643,l),
(440,479,l),
(240,479,l),
(99,483,o),
(112,282,o),
(196,282,cs),
(427,282,l),
(496,282,o),
(502,53,o),
(384,40,cs),
(202,20,o),
(121,56,o),
(121,151,c)
);
},
{
attr = {
strokeWidth = 80;
};
closed = 0;
nodes = (
(553,282,l),
(644,282,l)
);
}
);
width = 641;
},
{
layerId = "0F5BFDAC-7F6A-4DA8-AB27-34DF6552C2B9";
width = 600;
}
);
unicode = 2329;
},
{
color = (153,154,255,255);
glyphname = "ca-deva";
lastChange = "2026-04-13 05:41:36 +0000";
layers = (
{
associatedMasterId = "C2F00A16-B8FC-45C7-B93F-EF9B74B5AB22";
guides = (
{
pos = (0,115);
}
);
layerId = "36EA3D75-F920-4DC1-A723-CC5553715AE8";
name = "11";
shapes = (
{
attr = {
strokeWidth = 80;
};
closed = 0;
nodes = (
(561,627,l),
(561,0,l)
);
},
{
attr = {
strokeWidth = 80;
};
closed = 0;
nodes = (
(-23,660,l),
(701,660,l)
);
},
{
attr = {
strokeWidth = 80;
};
closed = 0;
nodes = (
(39,408,l),
(324,408,l),
(209,406,o),
(186,357,o),
(188,285,cs),
(190,207,o),
(244,164,o),
(312,153,cs),
(493,125,o),
(547,276,o),
(561,323,c)
);
}
);
width = 675;
},
{
associatedMasterId = "C2F00A16-B8FC-45C7-B93F-EF9B74B5AB22";
guides = (
{
pos = (0,115);
}
);
layerId = "CAE1915B-9FDE-4489-97BD-7D6B90151569";
name = "10";
shapes = (
{
attr = {
strokeWidth = 80;
};
closed = 0;
nodes = (
(561,627,l),
(561,0,l)
);
},
{
attr = {
strokeWidth = 80;
};
closed = 0;
nodes = (
(-23,660,l),
(701,660,l)
);
},
{
attr = {
strokeWidth = 80;
};
closed = 0;
nodes = (
(39,408,l),
(324,408,l),
(209,406,o),
(186,357,o),
(188,285,cs),
(190,207,o),
(244,164,o),
(312,153,cs),
(493,125,o),
(547,276,o),
(561,323,c)
);
}
);
width = 675;
},
{
associatedMasterId = "C2F00A16-B8FC-45C7-B93F-EF9B74B5AB22";
guides = (
{
pos = (0,115);
}
);
layerId = "260935F4-0920-4742-A130-A8234FBF7728";
name = "9";
shapes = (
{
attr = {
strokeWidth = 80;
};
closed = 0;
nodes = (
(561,627,l),
(561,0,l)
);
},
{
attr = {
strokeWidth = 80;
};
closed = 0;
nodes = (
(-23,660,l),
(701,660,l)
);
},
{
attr = {
strokeWidth = 80;
};
closed = 0;
nodes = (
(39,408,l),
(316,408,l),
(201,406,o),
(178,357,o),
(180,285,cs),
(182,207,o),
(244,169,o),
(312,158,cs),
(493,130,o),
(547,281,o),
(561,328,c)
);
}
);
width = 675;
},
{
associatedMasterId = "C2F00A16-B8FC-45C7-B93F-EF9B74B5AB22";
guides = (
{
pos = (0,115);
}
);
layerId = "79D9A9A0-51C8-477C-8261-CB1E9E61E647";
name = "8";
shapes = (
{
attr = {
strokeWidth = 80;
};
closed = 0;
nodes = (
(561,627,l),
(561,0,l)
);
},
{
attr = {
strokeWidth = 80;
};
closed = 0;
nodes = (
(-23,660,l),
(701,660,l)
);
},
{
attr = {
strokeWidth = 80;
};
closed = 0;
nodes = (
(41,408,l),
(324,408,l),
(209,406,o),
(186,357,o),
(188,285,cs),
(190,207,o),
(244,164,o),
(312,153,cs),
(493,125,o),
(547,276,o),
(561,323,c)
);
}
);
width = 675;
},
{
associatedMasterId = "C2F00A16-B8FC-45C7-B93F-EF9B74B5AB22";
guides = (
{
pos = (0,115);
}
);
layerId = "B0096FDF-59B7-4C62-87EE-8D10DBD6B80A";
name = "7";
shapes = (
{
attr = {
strokeWidth = 80;
};
closed = 0;
nodes = (
(561,627,l),
(561,0,l)
);
},
{
attr = {
strokeWidth = 80;
};
closed = 0;
nodes = (
(-23,660,l),
(701,660,l)
);
},
{
attr = {
strokeWidth = 80;
};
closed = 0;
nodes = (
(41,408,l),
(324,408,l),
(209,406,o),
(186,357,o),
(188,285,cs),
(190,207,o),
(244,164,o),
(312,153,cs),
(493,125,o),
(547,276,o),
(561,323,c)
);
}
);
width = 675;
},
{
associatedMasterId = "C2F00A16-B8FC-45C7-B93F-EF9B74B5AB22";
layerId = "74A7CB8F-5DF7-4588-B7E3-78EF3C7FB18D";
name = "6";
shapes = (
{
attr = {
strokeWidth = 80;
};
closed = 0;
nodes = (
(561,627,l),
(561,0,l)
);
},
{
attr = {
strokeWidth = 80;
};
closed = 0;
nodes = (
(-23,660,l),
(701,660,l)
);
},
{
attr = {
strokeWidth = 80;
};
closed = 0;
nodes = (
(41,408,l),
(324,408,l),
(209,406,o),
(161,339,o),
(163,267,cs),
(165,189,o),
(219,146,o),
(287,135,cs),
(468,107,o),
(547,257,o),
(561,304,c)
);
}
);
width = 675;
},
{
associatedMasterId = "C2F00A16-B8FC-45C7-B93F-EF9B74B5AB22";
layerId = "16D08582-E3A6-4222-91FC-A2475832A6BD";
name = "3";
shapes = (
{
attr = {
strokeWidth = 80;
};
closed = 0;
nodes = (
(561,627,l),
(561,0,l)
);
},
{
attr = {
strokeWidth = 80;
};
closed = 0;
nodes = (
(-23,660,l),
(701,660,l)
);
},
{
attr = {
strokeWidth = 80;
};
closed = 0;
nodes = (
(41,408,l),
(324,408,l),
(209,406,o),
(161,339,o),
(163,267,cs),
(165,189,o),
(219,146,o),
(287,135,cs),
(468,107,o),
(547,257,o),
(561,304,c)
);
}
);
width = 682;
},
{
associatedMasterId = "C2F00A16-B8FC-45C7-B93F-EF9B74B5AB22";
layerId = "4170FEE2-2F45-413A-BF89-0C4C760EB048";
name = "1";
shapes = (
{
attr = {
strokeWidth = 80;
};
closed = 0;
nodes = (
(520,627,l),
(520,0,l)
);
},
{
attr = {
strokeWidth = 80;
};
closed = 0;
nodes = (
(-13,660,l),
(720,660,l)
);
},
{
attr = {
strokeWidth = 80;
};
closed = 0;
nodes = (
(0,408,l),
(283,408,l),
(168,406,o),
(120,339,o),
(122,267,cs),
(124,189,o),
(178,146,o),
(246,135,cs),
(427,107,o),
(506,257,o),
(520,304,c)
);
}
);
width = 684;
},
{
associatedMasterId = "C2F00A16-B8FC-45C7-B93F-EF9B74B5AB22";
layerId = "74287EE6-C037-4679-A01B-34EB5C0D0D36";
name = "4";
shapes = (
{
attr = {
strokeWidth = 160;
};
closed = 0;
nodes = (
(560,627,l),
(560,0,l)
);
},
{
attr = {
strokeWidth = 160;
};
closed = 0;
nodes = (
(-24,620,l),
(734,620,l)
);
},
{
attr = {
strokeWidth = 160;
};
closed = 0;
nodes = (
(0,401,l),
(344,401,l),
(229,399,o),
(161,339,o),
(163,267,cs),
(165,189,o),
(219,146,o),
(287,135,cs),
(468,107,o),
(547,257,o),
(561,304,c)
);
}
);
width = 719;
},
{
associatedMasterId = "C2F00A16-B8FC-45C7-B93F-EF9B74B5AB22";
layerId = "9E252814-83E5-476D-BD5F-9B74F315E1C1";
name = "5";
shapes = (
{
attr = {
strokeWidth = 20;
};
closed = 0;
nodes = (
(561,687,l),
(561,0,l)
);
},
{
attr = {
strokeWidth = 20;
};
closed = 0;
nodes = (
(-23,690,l),
(701,690,l)
);
},
{
attr = {
strokeWidth = 20;
};
closed = 0;
nodes = (
(41,428,l),
(324,428,l),
(209,426,o),
(161,339,o),
(163,267,cs),
(165,189,o),
(219,146,o),
(287,135,cs),
(468,107,o),
(547,257,o),
(561,304,c)
);
}
);
width = 682;
},
{
associatedMasterId = "C2F00A16-B8FC-45C7-B93F-EF9B74B5AB22";
layerId = "942694AB-FFF7-456E-A631-DD70D9BC4F03";
name = "2";
shapes = (
{
attr = {
strokeWidth = 80;
};
closed = 0;
nodes = (
(561,627,l),
(561,0,l)
);
},
{
attr = {
strokeWidth = 80;
};
closed = 0;
nodes = (
(-23,660,l),
(701,660,l)
);
},
{
attr = {
strokeWidth = 80;
};
closed = 0;
nodes = (
(41,408,l),
(324,408,l),
(209,406,o),
(161,339,o),
(163,267,cs),
(165,189,o),
(219,146,o),
(287,135,cs),
(468,107,o),
(547,257,o),
(561,304,c)
);
}
);
width = 682;
},
{
layerId = "C2F00A16-B8FC-45C7-B93F-EF9B74B5AB22";
shapes = (
{
attr = {
strokeWidth = 80;
};
closed = 0;
nodes = (
(520,627,l),
(520,0,l)
);
},
{
attr = {
strokeWidth = 80;
};
closed = 0;
nodes = (
(-26,660,l),
(744,660,l)
);
},
{
attr = {
strokeWidth = 80;
};
closed = 0;
nodes = (
(0,402,l),
(287,402,l)
);
},
{
attr = {
strokeWidth = 80;
};
closed = 0;
nodes = (
(261,402,l),
(146,400,o),
(119,336,o),
(121,264,cs),
(123,186,o),
(197,156,o),
(231,149,c),
(432,114,o),
(512,252,o),
(520,297,cs)
);
}
);
width = 719;
},
{
layerId = "0F5BFDAC-7F6A-4DA8-AB27-34DF6552C2B9";
width = 600;
}
);
unicode = 2330;
},
{
color = (153,154,255,255);
glyphname = "cha-deva";
lastChange = "2026-04-13 05:41:36 +0000";
layers = (
{
associatedMasterId = "C2F00A16-B8FC-45C7-B93F-EF9B74B5AB22";
layerId = "36EA3D75-F920-4DC1-A723-CC5553715AE8";
name = "11";
shapes = (
{
attr = {
strokeWidth = 80;
};
closed = 0;
nodes = (
(-20,660,l),
(782,659,l)
);
},
{
attr = {
strokeWidth = 80;
};
closed = 0;
nodes = (
(314,388,l),
(0,347,o),
(12,680,o),
(289,660,c)
);
},
{
attr = {
strokeWidth = 80;
};
closed = 0;
nodes = (
(630,233,l),
(382,161,o),
(373,445,o),
(549,445,cs),
(726,445,o),
(713,31,o),
(392,43,cs),
(290,47,o),
(121,101,o),
(139,260,cs),
(145,318,o),
(178,388,o),
(319,388,c)
);
},
{
attr = {
strokeWidth = 80;
};
closed = 0;
nodes = (
(561,435,l),
(561,685,l)
);
}
);
width = 760;
},
{
associatedMasterId = "C2F00A16-B8FC-45C7-B93F-EF9B74B5AB22";
layerId = "CAE1915B-9FDE-4489-97BD-7D6B90151569";
name = "10";
shapes = (
{
attr = {
strokeWidth = 80;
};
closed = 0;
nodes = (
(-20,660,l),
(782,659,l)
);
},
{
attr = {
strokeWidth = 80;
};
closed = 0;
nodes = (
(314,388,l),
(0,347,o),
(12,680,o),
(289,660,c)
);
},
{
attr = {
strokeWidth = 80;
};
closed = 0;
nodes = (
(632,189,l),
(368,183,o),
(405,460,o),
(559,446,cs),
(740,430,o),
(682,37,o),
(387,50,cs),
(246,56,o),
(121,111,o),
(139,260,cs),
(146,318,o),
(178,388,o),
(319,388,c)
);
},
{
attr = {
strokeWidth = 80;
};
closed = 0;
nodes = (
(569,432,l),
(569,685,l)
);
}
);
width = 760;
},
{
associatedMasterId = "C2F00A16-B8FC-45C7-B93F-EF9B74B5AB22";
layerId = "260935F4-0920-4742-A130-A8234FBF7728";
name = "9";
shapes = (
{
attr = {
strokeWidth = 80;
};
closed = 0;
nodes = (
(-20,660,l),
(782,659,l)
);
},
{
attr = {
strokeWidth = 80;
};
closed = 0;
nodes = (
(274,388,l),
(10,388,o),
(12,680,o),
(289,660,c)
);
},
{
attr = {
strokeWidth = 80;
};
closed = 0;
nodes = (
(279,388,l),
(202,390,o),
(142,332,o),
(138,275,cs),
(127,115,o),
(235,43,o),
(382,43,cs),
(747,43,o),
(739,450,o),
(553,440,cs),
(387,431,o),
(407,165,o),
(593,207,c),
(648,223,o),
(666,256,o),
(674,265,c)
);
},
{
attr = {
strokeWidth = 80;
};
closed = 0;
nodes = (
(581,415,l),
(581,685,l)
);
}
);
width = 760;
},
{
associatedMasterId = "C2F00A16-B8FC-45C7-B93F-EF9B74B5AB22";
layerId = "79D9A9A0-51C8-477C-8261-CB1E9E61E647";
name = "8";
shapes = (
{
attr = {
strokeWidth = 80;
};
closed = 0;
nodes = (
(-18,660,l),
(738,660,l)
);
},
{
attr = {
strokeWidth = 80;
};
closed = 0;
nodes = (
(606,123,l),
(420,78,o),
(391,412,o),
(560,411,cs),
(704,410,o),
(738,39,o),
(379,49,cs),
(277,52,o),
(161,112,o),
(163,249,cs),
(164,311,o),
(190,388,o),
(323,387,c)
);
},
{
attr = {
strokeWidth = 80;
};
closed = 0;
nodes = (
(561,372,l),
(561,649,l)
);
},
{
attr = {
strokeWidth = 80;
};
closed = 0;
nodes = (
(321,385,l),
(51,369,o),
(80,660,o),
(257,660,c)
);
}
);
width = 720;
},
{
associatedMasterId = "C2F00A16-B8FC-45C7-B93F-EF9B74B5AB22";
layerId = "B0096FDF-59B7-4C62-87EE-8D10DBD6B80A";
name = "7";
shapes = (
{
attr = {
strokeWidth = 80;
};
closed = 0;
nodes = (
(-18,660,l),
(738,660,l)
);
},
{
attr = {
strokeWidth = 80;
};
closed = 0;
nodes = (
(329,385,l),
(23,345,o),
(63,660,o),
(247,660,c)
);
},
{
attr = {
strokeWidth = 80;
};
closed = 0;
nodes = (
(581,146,l),
(434,98,o),
(391,393,o),
(521,391,cs),
(680,389,o),
(658,39,o),
(379,49,cs),
(268,53,o),
(127,80,o),
(148,251,cs),
(157,325,o),
(213,386,o),
(351,386,c)
);
},
{
attr = {
strokeWidth = 80;
};
closed = 0;
nodes = (
(541,372,l),
(541,649,l)
);
}
);
width = 720;
},
{
associatedMasterId = "C2F00A16-B8FC-45C7-B93F-EF9B74B5AB22";
layerId = "74A7CB8F-5DF7-4588-B7E3-78EF3C7FB18D";
name = "6";
shapes = (
{
attr = {
strokeWidth = 80;
};
closed = 0;
nodes = (
(-18,660,l),
(829,660,l)
);
},
{
attr = {
strokeWidth = 80;
};
closed = 0;
nodes = (
(243,660,l),
(160,656,o),
(82,566,o),
(131,462,cs),
(185,348,o),
(372,413,o),
(372,413,c)
);
},
{
attr = {
strokeWidth = 80;
};
closed = 0;
nodes = (
(323,402,l),
(203,362,o),
(190,259,o),
(203,204,cs),
(216,148,o),
(276,83,o),
(389,67,cs),
(534,46,o),
(628,83,o),
(675,186,c),
(695,239,o),
(708,412,o),
(568,404,cs),
(451,397,o),
(493,232,o),
(493,180,c)
);
},
{
attr = {
strokeWidth = 80;
};
closed = 0;
nodes = (
(599,424,l),
(599,644,l)
);
}
);
width = 801;
},
{
associatedMasterId = "C2F00A16-B8FC-45C7-B93F-EF9B74B5AB22";
layerId = "16D08582-E3A6-4222-91FC-A2475832A6BD";
name = "3";
shapes = (
{
attr = {
strokeWidth = 80;
};
closed = 0;
nodes = (
(-18,660,l),
(829,660,l)
);
},
{
attr = {
strokeWidth = 80;
};
closed = 0;
nodes = (
(243,660,l),
(160,656,o),
(82,566,o),
(131,462,cs),
(185,348,o),
(372,413,o),
(372,413,c)
);
},
{
attr = {
strokeWidth = 80;
};
closed = 0;
nodes = (
(323,402,l),
(203,362,o),
(190,259,o),
(203,204,cs),
(216,148,o),
(276,83,o),
(389,67,cs),
(534,46,o),
(628,83,o),
(675,186,c),
(695,239,o),
(708,412,o),
(568,404,cs),
(451,397,o),
(493,232,o),
(493,180,c)
);
},
{
attr = {
strokeWidth = 80;
};
closed = 0;
nodes = (
(599,424,l),
(599,644,l)
);
}
);
width = 801;
},
{
associatedMasterId = "C2F00A16-B8FC-45C7-B93F-EF9B74B5AB22";
layerId = "4170FEE2-2F45-413A-BF89-0C4C760EB048";
name = "1";
shapes = (
{
attr = {
strokeWidth = 80;
};
closed = 0;
nodes = (
(-18,660,l),
(829,660,l)
);
},
{
attr = {
strokeWidth = 80;
};
closed = 0;
nodes = (
(243,660,l),
(160,656,o),
(82,566,o),
(131,462,cs),
(185,348,o),
(372,413,o),
(372,413,c)
);
},
{
attr = {
strokeWidth = 80;
};
closed = 0;
nodes = (
(323,402,l),
(203,362,o),
(190,259,o),
(203,204,cs),
(216,148,o),
(276,83,o),
(389,67,cs),
(534,46,o),
(628,83,o),
(675,186,c),
(695,239,o),
(708,412,o),
(568,404,cs),
(451,397,o),
(493,232,o),
(493,180,c)
);
},
{
attr = {
strokeWidth = 80;
};
closed = 0;
nodes = (
(599,424,l),
(599,644,l)
);
}
);
width = 801;
},
{
associatedMasterId = "C2F00A16-B8FC-45C7-B93F-EF9B74B5AB22";
layerId = "74287EE6-C037-4679-A01B-34EB5C0D0D36";
name = "4";
shapes = (
{
attr = {
strokeWidth = 160;
};
closed = 0;
nodes = (
(337,369,l),
(208,349,o),
(190,259,o),
(203,204,cs),
(216,148,o),
(276,83,o),
(389,67,cs),
(534,46,o),
(668,83,o),
(715,186,c),
(735,239,o),
(748,412,o),
(608,404,cs),
(491,397,o),
(523,242,o),
(523,190,c)
);
},
{
attr = {
strokeWidth = 160;
};
closed = 0;
nodes = (
(639,424,l),
(639,644,l)
);
},
{
attr = {
strokeWidth = 160;
};
closed = 0;
nodes = (
(-18,620,l),
(879,620,l)
);
},
{
attr = {
strokeWidth = 160;
};
closed = 0;
nodes = (
(350,373,l),
(350,373,o),
(178,313,o),
(124,426,cs),
(71,537,o),
(164,620,o),
(253,620,c)
);
}
);
width = 850;
},
{
associatedMasterId = "C2F00A16-B8FC-45C7-B93F-EF9B74B5AB22";
layerId = "9E252814-83E5-476D-BD5F-9B74F315E1C1";
name = "5";
shapes = (
{
attr = {
strokeWidth = 20;
};
closed = 0;
nodes = (
(-18,690,l),
(829,690,l)
);
},
{
attr = {
strokeWidth = 20;
};
closed = 0;
nodes = (
(243,690,l),
(160,686,o),
(94,591,o),
(131,492,cs),
(175,374,o),
(372,443,o),
(372,443,c),
(179,423,o),
(190,259,o),
(203,204,cs),
(216,148,o),
(286,68,o),
(399,52,cs),
(544,31,o),
(628,83,o),
(675,186,c),
(695,239,o),
(708,442,o),
(568,434,cs),
(451,427,o),
(493,232,o),
(493,180,c)
);
},
{
attr = {
strokeWidth = 20;
};
closed = 0;
nodes = (
(599,430,l),
(599,690,l)
);
}
);
width = 801;
},
{
associatedMasterId = "C2F00A16-B8FC-45C7-B93F-EF9B74B5AB22";
layerId = "942694AB-FFF7-456E-A631-DD70D9BC4F03";
name = "2";
shapes = (
{
attr = {
strokeWidth = 80;
};
closed = 0;
nodes = (
(-18,660,l),
(829,660,l)
);
},
{
attr = {
strokeWidth = 80;
};
closed = 0;
nodes = (
(243,660,l),
(160,656,o),
(82,566,o),
(131,462,cs),
(185,348,o),
(372,413,o),
(372,413,c)
);
},
{
attr = {
strokeWidth = 80;
};
closed = 0;
nodes = (
(323,402,l),
(203,362,o),
(190,259,o),
(203,204,cs),
(216,148,o),
(276,83,o),
(389,67,cs),
(534,46,o),
(628,83,o),
(675,186,c),
(695,239,o),
(708,412,o),
(568,404,cs),
(451,397,o),
(493,232,o),
(493,180,c)
);
},
{
attr = {
strokeWidth = 80;
};
closed = 0;
nodes = (
(599,424,l),
(599,644,l)
);
}
);
width = 801;
},
{
layerId = "C2F00A16-B8FC-45C7-B93F-EF9B74B5AB22";
shapes = (
{
attr = {
strokeWidth = 80;
};
closed = 0;
nodes = (
(-18,660,l),
(852,660,l)
);
},
{
attr = {
strokeWidth = 80;
};
closed = 0;
nodes = (
(243,660,l),
(160,656,o),
(82,566,o),
(131,462,cs),
(185,348,o),
(372,413,o),
(372,413,cs)
);
},
{
attr = {
strokeWidth = 80;
};
closed = 0;
nodes = (
(323,402,l),
(203,362,o),
(190,239,o),
(203,184,cs),
(216,128,o),
(276,63,o),
(389,47,cs),
(534,26,o),
(628,83,o),
(675,186,c),
(695,239,o),
(708,412,o),
(568,404,cs),
(451,397,o),
(493,232,o),
(493,180,c)
);
},
{
attr = {
strokeWidth = 80;
};
closed = 0;
nodes = (
(599,424,l),
(599,644,l)
);
}
);
width = 801;
},
{
layerId = "0F5BFDAC-7F6A-4DA8-AB27-34DF6552C2B9";
width = 600;
}
);
unicode = 2331;
},
{
color = (153,154,255,255);
glyphname = "ja-deva";
lastChange = "2026-04-13 05:41:36 +0000";
layers = (
{
associatedMasterId = "C2F00A16-B8FC-45C7-B93F-EF9B74B5AB22";
guides = (
{
pos = (0,409);
},
{
pos = (0,109);
}
);
layerId = "36EA3D75-F920-4DC1-A723-CC5553715AE8";
name = "11";
shapes = (
{
attr = {
strokeWidth = 80;
};
closed = 0;
nodes = (
(599,627,l),
(599,0,l)
);
},
{
attr = {
strokeWidth = 80;
};
closed = 0;
nodes = (
(-19,660,l),
(734,660,l)
);
},
{
attr = {
strokeWidth = 80;
};
closed = 0;
nodes = (
(587,409,l),
(276,409,l)
);
},
{
attr = {
strokeWidth = 80;
};
closed = 0;
nodes = (
(70,400,l),
(70,356,o),
(69,288,o),
(136,210,cs),
(188,149,o),
(250,145,o),
(317,154,cs),
(424,169,o),
(479,340,o),
(317,409,c)
);
}
);
width = 720;
},
{
associatedMasterId = "C2F00A16-B8FC-45C7-B93F-EF9B74B5AB22";
guides = (
{
pos = (0,409);
},
{
pos = (0,109);
}
);
layerId = "CAE1915B-9FDE-4489-97BD-7D6B90151569";
name = "10";
shapes = (
{
attr = {
strokeWidth = 80;
};
closed = 0;
nodes = (
(599,627,l),
(599,0,l)
);
},
{
attr = {
strokeWidth = 80;
};
closed = 0;
nodes = (
(-19,660,l),
(734,660,l)
);
},
{
attr = {
strokeWidth = 80;
};
closed = 0;
nodes = (
(587,409,l),
(276,409,l)
);
},
{
attr = {
strokeWidth = 80;
};
closed = 0;
nodes = (
(70,400,l),
(70,356,o),
(69,288,o),
(136,210,cs),
(188,149,o),
(250,145,o),
(317,154,cs),
(424,169,o),
(479,340,o),
(317,409,c)
);
}
);
width = 720;
},
{
associatedMasterId = "C2F00A16-B8FC-45C7-B93F-EF9B74B5AB22";
guides = (
{
pos = (0,409);
},
{
pos = (0,109);
}
);
layerId = "260935F4-0920-4742-A130-A8234FBF7728";
name = "9";
shapes = (
{
attr = {
strokeWidth = 80;
};
closed = 0;
nodes = (
(599,627,l),
(599,0,l)
);
},
{
attr = {
strokeWidth = 80;
};
closed = 0;
nodes = (
(-19,660,l),
(734,660,l)
);
},
{
attr = {
strokeWidth = 80;
};
closed = 0;
nodes = (
(587,409,l),
(276,409,l)
);
},
{
attr = {
strokeWidth = 80;
};
closed = 0;
nodes = (
(79,400,l),
(79,356,o),
(69,290,o),
(136,212,cs),
(188,151,o),
(252,143,o),
(319,152,cs),
(426,167,o),
(479,340,o),
(317,409,c)
);
}
);
width = 720;
},
{
associatedMasterId = "C2F00A16-B8FC-45C7-B93F-EF9B74B5AB22";
guides = (
{
pos = (0,409);
},
{
pos = (0,109);
}
);
layerId = "79D9A9A0-51C8-477C-8261-CB1E9E61E647";
name = "8";
shapes = (
{
attr = {
strokeWidth = 80;
};
closed = 0;
nodes = (
(599,627,l),
(599,0,l)
);
},
{
attr = {
strokeWidth = 80;
};
closed = 0;
nodes = (
(-19,660,l),
(734,660,l)
);
},
{
attr = {
strokeWidth = 80;
};
closed = 0;
nodes = (
(587,409,l),
(276,409,l)
);
},
{
attr = {
strokeWidth = 80;
};
closed = 0;
nodes = (
(70,400,l),
(70,356,o),
(69,288,o),
(136,210,cs),
(188,149,o),
(250,145,o),
(317,154,cs),
(424,169,o),
(479,340,o),
(317,409,c)
);
}
);
width = 720;
},
{
associatedMasterId = "C2F00A16-B8FC-45C7-B93F-EF9B74B5AB22";
guides = (
{
pos = (0,409);
},
{
pos = (0,109);
}
);
layerId = "B0096FDF-59B7-4C62-87EE-8D10DBD6B80A";
name = "7";
shapes = (
{
attr = {
strokeWidth = 80;
};
closed = 0;
nodes = (
(599,627,l),
(599,0,l)
);
},
{
attr = {
strokeWidth = 80;
};
closed = 0;
nodes = (
(-19,660,l),
(734,660,l)
);
},
{
attr = {
strokeWidth = 80;
};
closed = 0;
nodes = (
(587,409,l),
(276,409,l)
);
},
{
attr = {
strokeWidth = 80;
};
closed = 0;
nodes = (
(70,400,l),
(70,356,o),
(69,288,o),
(136,210,cs),
(188,149,o),
(250,145,o),
(317,154,cs),
(424,169,o),
(479,340,o),
(317,409,c)
);
}
);
width = 720;
},
{
associatedMasterId = "C2F00A16-B8FC-45C7-B93F-EF9B74B5AB22";
guides = (
{
pos = (0,409);
}
);
layerId = "74A7CB8F-5DF7-4588-B7E3-78EF3C7FB18D";
name = "6";
shapes = (
{
attr = {
strokeWidth = 80;
};
closed = 0;
nodes = (
(599,627,l),
(599,0,l)
);
},
{
attr = {
strokeWidth = 80;
};
closed = 0;
nodes = (
(-19,660,l),
(734,660,l)
);
},
{
attr = {
strokeWidth = 80;
};
closed = 0;
nodes = (
(587,409,l),
(276,409,l)
);
},
{
attr = {
strokeWidth = 80;
};
closed = 0;
nodes = (
(60,400,l),
(60,321,o),
(74,239,o),
(144,170,cs),
(201,114,o),
(260,111,o),
(313,121,cs),
(433,144,o),
(495,339,o),
(317,409,c)
);
}
);
width = 720;
},
{
associatedMasterId = "C2F00A16-B8FC-45C7-B93F-EF9B74B5AB22";
guides = (
{
pos = (0,409);
}
);
layerId = "16D08582-E3A6-4222-91FC-A2475832A6BD";
name = "3";
shapes = (
{
attr = {
strokeWidth = 80;
};
closed = 0;
nodes = (
(599,627,l),
(599,0,l)
);
},
{
attr = {
strokeWidth = 80;
};
closed = 0;
nodes = (
(-19,660,l),
(734,660,l)
);
},
{
attr = {
strokeWidth = 80;
};
closed = 0;
nodes = (
(587,409,l),
(276,409,l)
);
},
{
attr = {
strokeWidth = 80;
};
closed = 0;
nodes = (
(39,400,l),
(39,321,o),
(53,239,o),
(123,170,cs),
(180,114,o),
(260,111,o),
(313,121,cs),
(433,144,o),
(495,339,o),
(317,409,c)
);
}
);
width = 720;
},
{
associatedMasterId = "C2F00A16-B8FC-45C7-B93F-EF9B74B5AB22";
guides = (
{
pos = (0,409);
}
);
layerId = "4170FEE2-2F45-413A-BF89-0C4C760EB048";
name = "1";
shapes = (
{
attr = {
strokeWidth = 80;
};
closed = 0;
nodes = (
(599,627,l),
(599,0,l)
);
},
{
attr = {
strokeWidth = 80;
};
closed = 0;
nodes = (
(-19,660,l),
(800,660,l)
);
},
{
attr = {
strokeWidth = 80;
};
closed = 0;
nodes = (
(587,409,l),
(276,409,l)
);
},
{
attr = {
strokeWidth = 80;
};
closed = 0;
nodes = (
(39,400,l),
(39,321,o),
(53,239,o),
(123,170,cs),
(180,114,o),
(260,111,o),
(313,121,cs),
(433,144,o),
(495,339,o),
(317,409,c)
);
}
);
width = 760;
},
{
associatedMasterId = "C2F00A16-B8FC-45C7-B93F-EF9B74B5AB22";
guides = (
{
pos = (0,409);
}
);
layerId = "74287EE6-C037-4679-A01B-34EB5C0D0D36";
name = "4";
shapes = (
{
attr = {
strokeWidth = 160;
};
closed = 0;
nodes = (
(719,627,l),
(719,0,l)
);
},
{
attr = {
strokeWidth = 160;
};
closed = 0;
nodes = (
(-25,620,l),
(890,620,l)
);
},
{
attr = {
strokeWidth = 160;
};
closed = 0;
nodes = (
(667,400,l),
(244,400,l)
);
},
{
attr = {
strokeWidth = 160;
};
closed = 0;
nodes = (
(82,400,l),
(82,321,o),
(108,232,o),
(178,163,cs),
(235,107,o),
(341,111,o),
(394,121,cs),
(514,144,o),
(575,336,o),
(397,406,c)
);
}
);
width = 878;
},
{
associatedMasterId = "C2F00A16-B8FC-45C7-B93F-EF9B74B5AB22";
guides = (
{
pos = (0,409);
}
);
layerId = "9E252814-83E5-476D-BD5F-9B74F315E1C1";
name = "5";
shapes = (
{
attr = {
strokeWidth = 20;
};
closed = 0;
nodes = (
(599,680,l),
(599,0,l)
);
},
{
attr = {
strokeWidth = 20;
};
closed = 0;
nodes = (
(-19,690,l),
(734,690,l)
);
},
{
attr = {
strokeWidth = 20;
};
closed = 0;
nodes = (
(587,429,l),
(276,429,l),
(469,364,o),
(433,144,o),
(313,121,cs),
(260,111,o),
(180,114,o),
(123,170,cs),
(53,239,o),
(39,321,o),
(39,400,c)
);
}
);
width = 720;
},
{
associatedMasterId = "C2F00A16-B8FC-45C7-B93F-EF9B74B5AB22";
guides = (
{
pos = (0,409);
}
);
layerId = "942694AB-FFF7-456E-A631-DD70D9BC4F03";
name = "2";
shapes = (
{
attr = {
strokeWidth = 80;
};
closed = 0;
nodes = (
(599,627,l),
(599,0,l)
);
},
{
attr = {
strokeWidth = 80;
};
closed = 0;
nodes = (
(-19,660,l),
(734,660,l)
);
},
{
attr = {
strokeWidth = 80;
};
closed = 0;
nodes = (
(587,409,l),
(276,409,l)
);
},
{
attr = {
strokeWidth = 80;
};
closed = 0;
nodes = (
(39,400,l),
(39,321,o),
(53,239,o),
(123,170,cs),
(180,114,o),
(260,111,o),
(313,121,cs),
(433,144,o),
(495,339,o),
(317,409,c)
);
}
);
width = 720;
},
{
layerId = "C2F00A16-B8FC-45C7-B93F-EF9B74B5AB22";
shapes = (
{
attr = {
strokeWidth = 80;
};
closed = 0;
nodes = (
(599,627,l),
(599,0,l)
);
},
{
attr = {
strokeWidth = 80;
};
closed = 0;
nodes = (
(-97,660,l),
(898,660,l)
);
},
{
attr = {
strokeWidth = 80;
};
closed = 0;
nodes = (
(587,409,l),
(276,409,l)
);
},
{
attr = {
strokeWidth = 80;
};
closed = 0;
nodes = (
(37,398,l),
(37,319,o),
(53,239,o),
(123,170,cs),
(180,114,o),
(260,111,o),
(313,121,cs),
(433,144,o),
(495,339,o),
(317,409,cs)
);
}
);
width = 800;
},
{
layerId = "0F5BFDAC-7F6A-4DA8-AB27-34DF6552C2B9";
width = 600;
}
);
unicode = 2332;
},
{
color = (153,154,255,255);
glyphname = "jha-deva";
lastChange = "2026-04-13 05:41:36 +0000";
layers = (
{
associatedMasterId = "C2F00A16-B8FC-45C7-B93F-EF9B74B5AB22";
layerId = "36EA3D75-F920-4DC1-A723-CC5553715AE8";
name = "11";
shapes = (
{
attr = {
strokeWidth = 80;
};
closed = 0;
nodes = (
(-16,660,l),
(734,660,l)
);
},
{
attr = {
strokeWidth = 80;
};
closed = 0;
nodes = (
(360,643,l),
(359,481,l),
(196,481,l),
(74,485,o),
(85,301,o),
(158,301,cs),
(357,301,ls),
(417,301,o),
(433,96,o),
(305,85,cs),
(137,71,o),
(39,113,o),
(105,178,cs),
(120,193,o),
(111,45,o),
(145,-13,cs),
(175,-65,o),
(209,-58,o),
(222,-58,c)
);
},
{
attr = {
strokeWidth = 80;
};
closed = 0;
nodes = (
(600,676,l),
(600,0,l)
);
},
{
attr = {
strokeWidth = 80;
};
closed = 0;
nodes = (
(579,301,l),
(300,301,l)
);
}
);
width = 720;
},
{
associatedMasterId = "C2F00A16-B8FC-45C7-B93F-EF9B74B5AB22";
layerId = "CAE1915B-9FDE-4489-97BD-7D6B90151569";
name = "10";
shapes = (
{
attr = {
strokeWidth = 80;
};
closed = 0;
nodes = (
(-16,660,l),
(734,660,l)
);
},
{
attr = {
strokeWidth = 80;
};
closed = 0;
nodes = (
(360,643,l),
(359,481,l),
(196,481,l),
(74,485,o),
(85,301,o),
(158,301,cs),
(357,301,ls),
(417,301,o),
(433,96,o),
(305,85,cs),
(137,71,o),
(39,113,o),
(105,178,cs),
(120,193,o),
(111,45,o),
(145,-13,cs),
(175,-65,o),
(209,-58,o),
(222,-58,c)
);
},
{
attr = {
strokeWidth = 80;
};
closed = 0;
nodes = (
(600,676,l),
(600,0,l)
);
},
{
attr = {
strokeWidth = 80;
};
closed = 0;
nodes = (
(579,301,l),
(300,301,l)
);
}
);
width = 720;
},
{
associatedMasterId = "C2F00A16-B8FC-45C7-B93F-EF9B74B5AB22";
layerId = "260935F4-0920-4742-A130-A8234FBF7728";
name = "9";
shapes = (
{
attr = {
strokeWidth = 80;
};
closed = 0;
nodes = (
(-16,660,l),
(734,660,l)
);
},
{
attr = {
strokeWidth = 80;
};
closed = 0;
nodes = (
(360,643,l),
(359,481,l),
(191,481,l),
(69,485,o),
(80,301,o),
(153,301,cs),
(357,301,ls),
(417,301,o),
(433,96,o),
(305,85,cs),
(137,71,o),
(36,103,o),
(102,168,cs),
(117,183,o),
(108,35,o),
(142,-23,cs),
(172,-75,o),
(206,-68,o),
(219,-68,c)
);
},
{
attr = {
strokeWidth = 80;
};
closed = 0;
nodes = (
(600,676,l),
(600,0,l)
);
},
{
attr = {
strokeWidth = 80;
};
closed = 0;
nodes = (
(579,301,l),
(300,301,l)
);
}
);
width = 720;
},
{
associatedMasterId = "C2F00A16-B8FC-45C7-B93F-EF9B74B5AB22";
layerId = "79D9A9A0-51C8-477C-8261-CB1E9E61E647";
name = "8";
shapes = (
{
attr = {
strokeWidth = 80;
};
closed = 0;
nodes = (
(-16,660,l),
(734,660,l)
);
},
{
attr = {
strokeWidth = 80;
};
closed = 0;
nodes = (
(360,643,l),
(359,482,l),
(196,482,l),
(74,486,o),
(85,301,o),
(158,301,cs),
(357,301,ls),
(417,301,o),
(433,96,o),
(305,85,cs),
(137,71,o),
(39,113,o),
(105,178,cs),
(120,193,o),
(111,45,o),
(145,-13,cs),
(175,-65,o),
(209,-58,o),
(222,-58,c)
);
},
{
attr = {
strokeWidth = 80;
};
closed = 0;
nodes = (
(600,676,l),
(600,0,l)
);
},
{
attr = {
strokeWidth = 80;
};
closed = 0;
nodes = (
(579,301,l),
(300,301,l)
);
}
);
width = 720;
},
{
associatedMasterId = "C2F00A16-B8FC-45C7-B93F-EF9B74B5AB22";
layerId = "B0096FDF-59B7-4C62-87EE-8D10DBD6B80A";
name = "7";
shapes = (
{
attr = {
strokeWidth = 80;
};
closed = 0;
nodes = (
(-16,660,l),
(734,660,l)
);
},
{
attr = {
strokeWidth = 80;
};
closed = 0;
nodes = (
(360,643,l),
(359,465,l),
(196,465,l),
(74,469,o),
(85,284,o),
(158,284,cs),
(357,284,ls),
(417,284,o),
(433,96,o),
(305,85,cs),
(137,71,o),
(39,113,o),
(105,178,cs),
(120,193,o),
(111,45,o),
(145,-13,cs),
(175,-65,o),
(209,-58,o),
(222,-58,c)
);
},
{
attr = {
strokeWidth = 80;
};
closed = 0;
nodes = (
(600,676,l),
(600,0,l)
);
},
{
attr = {
strokeWidth = 80;
};
closed = 0;
nodes = (
(579,284,l),
(300,284,l)
);
}
);
width = 720;
},
{
associatedMasterId = "C2F00A16-B8FC-45C7-B93F-EF9B74B5AB22";
layerId = "74A7CB8F-5DF7-4588-B7E3-78EF3C7FB18D";
name = "6";
shapes = (
{
attr = {
strokeWidth = 80;
};
closed = 0;
nodes = (
(-16,660,l),
(734,660,l)
);
},
{
attr = {
strokeWidth = 80;
};
closed = 0;
nodes = (
(360,643,l),
(359,479,l),
(196,479,l),
(74,483,o),
(85,290,o),
(158,290,cs),
(357,290,ls),
(417,290,o),
(433,96,o),
(305,85,cs),
(137,71,o),
(39,113,o),
(105,178,cs),
(120,193,o),
(111,45,o),
(145,-13,cs),
(175,-65,o),
(209,-58,o),
(222,-58,c)
);
},
{
attr = {
strokeWidth = 80;
};
closed = 0;
nodes = (
(600,676,l),
(600,0,l)
);
},
{
attr = {
strokeWidth = 80;
};
closed = 0;
nodes = (
(579,290,l),
(300,290,l)
);
}
);
width = 720;
},
{
associatedMasterId = "C2F00A16-B8FC-45C7-B93F-EF9B74B5AB22";
layerId = "16D08582-E3A6-4222-91FC-A2475832A6BD";
name = "3";
shapes = (
{
attr = {
strokeWidth = 80;
};
closed = 0;
nodes = (
(-16,660,l),
(734,660,l)
);
},
{
attr = {
strokeWidth = 80;
};
closed = 0;
nodes = (
(360,643,l),
(359,479,l),
(196,479,l),
(74,483,o),
(85,290,o),
(158,290,cs),
(357,290,ls),
(417,290,o),
(433,96,o),
(305,85,cs),
(137,71,o),
(39,113,o),
(105,178,cs),
(120,193,o),
(111,45,o),
(145,-13,cs),
(175,-65,o),
(209,-58,o),
(222,-58,c)
);
},
{
attr = {
strokeWidth = 80;
};
closed = 0;
nodes = (
(600,676,l),
(600,0,l)
);
},
{
attr = {
strokeWidth = 80;
};
closed = 0;
nodes = (
(579,290,l),
(300,290,l)
);
}
);
width = 720;
},
{
associatedMasterId = "C2F00A16-B8FC-45C7-B93F-EF9B74B5AB22";
layerId = "4170FEE2-2F45-413A-BF89-0C4C760EB048";
name = "1";
shapes = (
{
attr = {
strokeWidth = 80;
};
closed = 0;
nodes = (
(-16,660,l),
(797,660,l)
);
},
{
attr = {
strokeWidth = 80;
};
closed = 0;
nodes = (
(360,643,l),
(359,479,l),
(196,479,l),
(74,483,o),
(85,290,o),
(158,290,cs),
(357,290,ls),
(417,290,o),
(433,96,o),
(305,85,cs),
(137,71,o),
(39,113,o),
(105,178,cs),
(120,193,o),
(111,45,o),
(145,-13,cs),
(175,-65,o),
(209,-58,o),
(222,-58,c)
);
},
{
attr = {
strokeWidth = 80;
};
closed = 0;
nodes = (
(600,676,l),
(600,0,l)
);
},
{
attr = {
strokeWidth = 80;
};
closed = 0;
nodes = (
(579,290,l),
(300,290,l)
);
}
);
width = 760;
},
{
associatedMasterId = "C2F00A16-B8FC-45C7-B93F-EF9B74B5AB22";
layerId = "74287EE6-C037-4679-A01B-34EB5C0D0D36";
name = "4";
shapes = (
{
attr = {
strokeWidth = 160;
};
closed = 0;
nodes = (
(4,620,l),
(971,620,l)
);
},
{
attr = {
strokeWidth = 160;
};
closed = 0;
nodes = (
(799,676,l),
(799,0,l)
);
},
{
attr = {
strokeWidth = 160;
};
closed = 0;
nodes = (
(726,261,l),
(447,261,l)
);
},
{
attr = {
strokeWidth = 160;
};
closed = 0;
nodes = (
(479,643,l),
(479,439,l),
(259,439,l),
(118,443,o),
(131,262,o),
(215,262,cs),
(486,262,ls),
(555,262,o),
(572,83,o),
(443,81,cs),
(245,78,o),
(83,81,o),
(83,81,c)
);
},
{
attr = {
strokeWidth = 160;
};
closed = 0;
nodes = (
(162,159,l),
(162,-80,l)
);
}
);
width = 958;
},
{
associatedMasterId = "C2F00A16-B8FC-45C7-B93F-EF9B74B5AB22";
layerId = "9E252814-83E5-476D-BD5F-9B74F315E1C1";
name = "5";
shapes = (
{
attr = {
strokeWidth = 20;
};
closed = 0;
nodes = (
(-16,690,l),
(734,690,l)
);
},
{
attr = {
strokeWidth = 20;
};
closed = 0;
nodes = (
(360,673,l),
(359,509,l),
(196,509,l),
(74,513,o),
(85,310,o),
(158,310,cs),
(357,310,ls),
(417,310,o),
(433,96,o),
(305,85,cs),
(137,71,o),
(15,154,o),
(105,178,cs),
(135,186,o),
(111,45,o),
(145,-13,cs),
(175,-65,o),
(209,-58,o),
(222,-58,c)
);
},
{
attr = {
strokeWidth = 20;
};
closed = 0;
nodes = (
(600,706,l),
(600,0,l)
);
},
{
attr = {
strokeWidth = 20;
};
closed = 0;
nodes = (
(600,310,l),
(300,310,l)
);
}
);
width = 720;
},
{
associatedMasterId = "C2F00A16-B8FC-45C7-B93F-EF9B74B5AB22";
layerId = "942694AB-FFF7-456E-A631-DD70D9BC4F03";
name = "2";
shapes = (
{
attr = {
strokeWidth = 80;
};
closed = 0;
nodes = (
(-16,660,l),
(734,660,l)
);
},
{
attr = {
strokeWidth = 80;
};
closed = 0;
nodes = (
(360,643,l),
(359,479,l),
(196,479,l),
(74,483,o),
(85,290,o),
(158,290,cs),
(357,290,ls),
(417,290,o),
(433,96,o),
(305,85,cs),
(137,71,o),
(39,113,o),
(105,178,cs),
(120,193,o),
(111,45,o),
(145,-13,cs),
(175,-65,o),
(209,-58,o),
(222,-58,c)
);
},
{
attr = {
strokeWidth = 80;
};
closed = 0;
nodes = (
(600,676,l),
(600,0,l)
);
},
{
attr = {
strokeWidth = 80;
};
closed = 0;
nodes = (
(579,290,l),
(300,290,l)
);
}
);
width = 720;
},
{
layerId = "C2F00A16-B8FC-45C7-B93F-EF9B74B5AB22";
shapes = (
{
attr = {
strokeWidth = 80;
};
closed = 0;
nodes = (
(-39,660,l),
(824,660,l)
);
},
{
attr = {
strokeWidth = 80;
};
closed = 0;
nodes = (
(360,643,l),
(359,479,l),
(196,479,l),
(74,483,o),
(85,290,o),
(158,290,cs),
(357,290,l),
(417,290,o),
(414,91,o),
(312,79,cs),
(154,61,o),
(39,113,o),
(105,178,cs),
(120,193,o),
(111,45,o),
(145,-13,cs),
(175,-65,o),
(209,-58,o),
(222,-58,c)
);
},
{
attr = {
strokeWidth = 80;
};
closed = 0;
nodes = (
(600,676,l),
(600,0,l)
);
},
{
attr = {
strokeWidth = 80;
};
closed = 0;
nodes = (
(579,290,l),
(300,290,ls)
);
}
);
width = 801;
},
{
layerId = "0F5BFDAC-7F6A-4DA8-AB27-34DF6552C2B9";
width = 600;
}
);
unicode = 2333;
},
{
color = (153,154,255,255);
glyphname = "nya-deva";
lastChange = "2026-04-13 05:41:36 +0000";
layers = (
{
associatedMasterId = "C2F00A16-B8FC-45C7-B93F-EF9B74B5AB22";
layerId = "36EA3D75-F920-4DC1-A723-CC5553715AE8";
name = "11";
shapes = (
{
attr = {
strokeWidth = 80;
};
closed = 0;
nodes = (
(599,627,l),
(599,0,l)
);
},
{
attr = {
strokeWidth = 80;
};
closed = 0;
nodes = (
(-11,660,l),
(732,660,l)
);
},
{
attr = {
strokeWidth = 80;
};
closed = 0;
nodes = (
(587,360,l),
(396,360,l)
);
},
{
attr = {
strokeWidth = 80;
};
closed = 0;
nodes = (
(160,476,l),
(263,476,o),
(437,458,o),
(380,269,cs),
(352,177,o),
(252,173,o),
(180,187,c),
(72,216,o),
(78,329,o),
(78,367,c)
);
}
);
width = 720;
},
{
associatedMasterId = "C2F00A16-B8FC-45C7-B93F-EF9B74B5AB22";
layerId = "CAE1915B-9FDE-4489-97BD-7D6B90151569";
name = "10";
shapes = (
{
attr = {
strokeWidth = 80;
};
closed = 0;
nodes = (
(599,627,l),
(599,0,l)
);
},
{
attr = {
strokeWidth = 80;
};
closed = 0;
nodes = (
(-11,660,l),
(732,660,l)
);
},
{
attr = {
strokeWidth = 80;
};
closed = 0;
nodes = (
(587,360,l),
(396,360,l)
);
},
{
attr = {
strokeWidth = 80;
};
closed = 0;
nodes = (
(160,476,l),
(263,476,o),
(437,458,o),
(380,269,cs),
(352,177,o),
(252,173,o),
(180,187,c),
(72,216,o),
(78,329,o),
(78,367,c)
);
}
);
width = 720;
},
{
associatedMasterId = "C2F00A16-B8FC-45C7-B93F-EF9B74B5AB22";
layerId = "260935F4-0920-4742-A130-A8234FBF7728";
name = "9";
shapes = (
{
attr = {
strokeWidth = 80;
};
closed = 0;
nodes = (
(599,627,l),
(599,0,l)
);
},
{
attr = {
strokeWidth = 80;
};
closed = 0;
nodes = (
(-11,660,l),
(732,660,l)
);
},
{
attr = {
strokeWidth = 80;
};
closed = 0;
nodes = (
(587,360,l),
(396,360,l)
);
},
{
attr = {
strokeWidth = 80;
};
closed = 0;
nodes = (
(160,481,l),
(266,481,o),
(437,463,o),
(380,274,cs),
(352,182,o),
(252,173,o),
(180,187,c),
(72,216,o),
(78,323,o),
(78,361,c)
);
}
);
width = 720;
},
{
associatedMasterId = "C2F00A16-B8FC-45C7-B93F-EF9B74B5AB22";
layerId = "79D9A9A0-51C8-477C-8261-CB1E9E61E647";
name = "8";
shapes = (
{
attr = {
strokeWidth = 80;
};
closed = 0;
nodes = (
(599,627,l),
(599,0,l)
);
},
{
attr = {
strokeWidth = 80;
};
closed = 0;
nodes = (
(-11,660,l),
(732,660,l)
);
},
{
attr = {
strokeWidth = 80;
};
closed = 0;
nodes = (
(587,360,l),
(396,360,l)
);
},
{
attr = {
strokeWidth = 80;
};
closed = 0;
nodes = (
(155,476,l),
(258,476,o),
(443,487,o),
(380,269,c),
(323,174,o),
(252,181,o),
(180,195,c),
(72,224,o),
(73,334,o),
(73,372,c)
);
}
);
width = 720;
},
{
associatedMasterId = "C2F00A16-B8FC-45C7-B93F-EF9B74B5AB22";
layerId = "B0096FDF-59B7-4C62-87EE-8D10DBD6B80A";
name = "7";
shapes = (
{
attr = {
strokeWidth = 80;
};
closed = 0;
nodes = (
(599,627,l),
(599,0,l)
);
},
{
attr = {
strokeWidth = 80;
};
closed = 0;
nodes = (
(-11,660,l),
(732,660,l)
);
},
{
attr = {
strokeWidth = 80;
};
closed = 0;
nodes = (
(587,360,l),
(396,360,l)
);
},
{
attr = {
strokeWidth = 80;
};
closed = 0;
nodes = (
(155,476,l),
(258,476,o),
(443,487,o),
(380,269,c),
(323,174,o),
(252,181,o),
(180,195,c),
(72,224,o),
(73,334,o),
(73,372,c)
);
}
);
width = 720;
},
{
associatedMasterId = "C2F00A16-B8FC-45C7-B93F-EF9B74B5AB22";
layerId = "74A7CB8F-5DF7-4588-B7E3-78EF3C7FB18D";
name = "6";
shapes = (
{
attr = {
strokeWidth = 80;
};
closed = 0;
nodes = (
(599,627,l),
(599,0,l)
);
},
{
attr = {
strokeWidth = 80;
};
closed = 0;
nodes = (
(-11,660,l),
(732,660,l)
);
},
{
attr = {
strokeWidth = 80;
};
closed = 0;
nodes = (
(587,409,l),
(396,409,l)
);
},
{
attr = {
strokeWidth = 80;
};
closed = 0;
nodes = (
(126,419,l),
(126,472,o),
(286,520,o),
(361,432,cs),
(424,358,o),
(397,282,o),
(384,258,cs),
(327,153,o),
(220,173,o),
(171,186,cs),
(63,215,o),
(63,314,o),
(63,352,c)
);
}
);
width = 720;
},
{
associatedMasterId = "C2F00A16-B8FC-45C7-B93F-EF9B74B5AB22";
layerId = "16D08582-E3A6-4222-91FC-A2475832A6BD";
name = "3";
shapes = (
{
attr = {
strokeWidth = 80;
};
closed = 0;
nodes = (
(599,627,l),
(599,0,l)
);
},
{
attr = {
strokeWidth = 80;
};
closed = 0;
nodes = (
(-11,660,l),
(732,660,l)
);
},
{
attr = {
strokeWidth = 80;
};
closed = 0;
nodes = (
(587,409,l),
(396,409,l)
);
},
{
attr = {
strokeWidth = 80;
};
closed = 0;
nodes = (
(126,419,l),
(126,472,o),
(286,520,o),
(361,432,cs),
(424,358,o),
(397,282,o),
(384,258,cs),
(327,153,o),
(220,173,o),
(171,186,cs),
(63,215,o),
(63,314,o),
(63,352,c)
);
}
);
width = 720;
},
{
associatedMasterId = "C2F00A16-B8FC-45C7-B93F-EF9B74B5AB22";
layerId = "4170FEE2-2F45-413A-BF89-0C4C760EB048";
name = "1";
shapes = (
{
attr = {
strokeWidth = 80;
};
closed = 0;
nodes = (
(599,627,l),
(599,0,l)
);
},
{
attr = {
strokeWidth = 80;
};
closed = 0;
nodes = (
(-11,660,l),
(799,660,l)
);
},
{
attr = {
strokeWidth = 80;
};
closed = 0;
nodes = (
(587,409,l),
(396,409,l)
);
},
{
attr = {
strokeWidth = 80;
};
closed = 0;
nodes = (
(126,419,l),
(126,472,o),
(286,520,o),
(361,432,cs),
(424,358,o),
(397,282,o),
(384,258,cs),
(327,153,o),
(220,173,o),
(171,186,cs),
(63,215,o),
(63,314,o),
(63,352,c)
);
}
);
width = 762;
},
{
associatedMasterId = "C2F00A16-B8FC-45C7-B93F-EF9B74B5AB22";
layerId = "74287EE6-C037-4679-A01B-34EB5C0D0D36";
name = "4";
shapes = (
{
attr = {
strokeWidth = 160;
};
closed = 0;
nodes = (
(639,627,l),
(639,0,l)
);
},
{
attr = {
strokeWidth = 160;
};
closed = 0;
nodes = (
(-11,620,l),
(823,620,l)
);
},
{
attr = {
strokeWidth = 160;
};
closed = 0;
nodes = (
(587,319,l),
(396,319,l)
);
},
{
attr = {
strokeWidth = 160;
};
closed = 0;
nodes = (
(86,319,l),
(86,432,o),
(295,474,o),
(375,363,cs),
(432,284,o),
(405,206,o),
(389,184,cs),
(323,90,o),
(212,101,o),
(163,114,cs),
(55,143,o),
(40,246,o),
(40,284,c)
);
}
);
width = 801;
},
{
associatedMasterId = "C2F00A16-B8FC-45C7-B93F-EF9B74B5AB22";
layerId = "9E252814-83E5-476D-BD5F-9B74F315E1C1";
name = "5";
shapes = (
{
attr = {
strokeWidth = 20;
};
closed = 0;
nodes = (
(599,687,l),
(599,0,l)
);
},
{
attr = {
strokeWidth = 20;
};
closed = 0;
nodes = (
(-11,690,l),
(732,690,l)
);
},
{
attr = {
strokeWidth = 20;
};
closed = 0;
nodes = (
(587,409,l),
(379,409,l)
);
},
{
attr = {
strokeWidth = 20;
};
closed = 0;
nodes = (
(126,433,l),
(126,491,o),
(286,543,o),
(361,448,cs),
(424,367,o),
(397,282,o),
(384,256,cs),
(330,148,o),
(223,165,o),
(171,183,cs),
(64,220,o),
(63,313,o),
(63,352,c)
);
}
);
width = 720;
},
{
associatedMasterId = "C2F00A16-B8FC-45C7-B93F-EF9B74B5AB22";
layerId = "942694AB-FFF7-456E-A631-DD70D9BC4F03";
name = "2";
shapes = (
{
attr = {
strokeWidth = 80;
};
closed = 0;
nodes = (
(599,627,l),
(599,0,l)
);
},
{
attr = {
strokeWidth = 80;
};
closed = 0;
nodes = (
(-11,660,l),
(732,660,l)
);
},
{
attr = {
strokeWidth = 80;
};
closed = 0;
nodes = (
(587,409,l),
(396,409,l)
);
},
{
attr = {
strokeWidth = 80;
};
closed = 0;
nodes = (
(126,419,l),
(126,472,o),
(286,520,o),
(361,432,cs),
(424,358,o),
(397,282,o),
(384,258,cs),
(327,153,o),
(220,173,o),
(171,186,cs),
(63,215,o),
(63,314,o),
(63,352,c)
);
}
);
width = 720;
},
{
layerId = "C2F00A16-B8FC-45C7-B93F-EF9B74B5AB22";
shapes = (
{
attr = {
strokeWidth = 80;
};
closed = 0;
nodes = (
(599,627,l),
(599,0,l)
);
},
{
attr = {
strokeWidth = 80;
};
closed = 0;
nodes = (
(-55,660,l),
(853,660,l)
);
},
{
attr = {
strokeWidth = 80;
};
closed = 0;
nodes = (
(587,409,l),
(396,409,l)
);
},
{
attr = {
strokeWidth = 80;
};
closed = 0;
nodes = (
(146,439,l),
(146,492,o),
(306,540,o),
(381,452,cs),
(444,378,o),
(417,302,o),
(404,278,cs),
(347,173,o),
(240,193,o),
(191,206,cs),
(83,235,o),
(83,334,o),
(83,372,c)
);
}
);
width = 800;
},
{
layerId = "0F5BFDAC-7F6A-4DA8-AB27-34DF6552C2B9";
width = 600;
}
);
unicode = 2334;
},
{
color = (153,154,255,255);
glyphname = "tta-deva";
lastChange = "2026-04-13 05:41:36 +0000";
layers = (
{
associatedMasterId = "C2F00A16-B8FC-45C7-B93F-EF9B74B5AB22";
layerId = "36EA3D75-F920-4DC1-A723-CC5553715AE8";
name = "11";
shapes = (
{
attr = {
strokeWidth = 80;
};
closed = 0;
nodes = (
(-12,660,l),
(637,660,l)
);
},
{
attr = {
strokeWidth = 80;
};
closed = 0;
nodes = (
(439,637,l),
(439,459,l),
(244,461,l),
(244,461,o),
(118,429,o),
(102,327,cs),
(89,247,o),
(97,167,o),
(153,110,c),
(260,9,o),
(402,16,o),
(518,111,c)
);
}
);
width = 601;
},
{
associatedMasterId = "C2F00A16-B8FC-45C7-B93F-EF9B74B5AB22";
layerId = "CAE1915B-9FDE-4489-97BD-7D6B90151569";
name = "10";
shapes = (
{
attr = {
strokeWidth = 80;
};
closed = 0;
nodes = (
(-12,660,l),
(637,660,l)
);
},
{
attr = {
strokeWidth = 80;
};
closed = 0;
nodes = (
(439,637,l),
(439,459,l),
(244,461,l),
(244,461,o),
(118,429,o),
(102,327,cs),
(89,247,o),
(97,167,o),
(153,110,c),
(260,9,o),
(402,16,o),
(518,111,c)
);
}
);
width = 601;
},
{
associatedMasterId = "C2F00A16-B8FC-45C7-B93F-EF9B74B5AB22";
layerId = "260935F4-0920-4742-A130-A8234FBF7728";
name = "9";
shapes = (
{
attr = {
strokeWidth = 80;
};
closed = 0;
nodes = (
(-12,660,l),
(637,660,l)
);
},
{
attr = {
strokeWidth = 80;
};
closed = 0;
nodes = (
(439,637,l),
(439,459,l),
(244,461,l),
(244,461,o),
(121,429,o),
(105,327,cs),
(92,247,o),
(100,167,o),
(156,110,c),
(263,9,o),
(402,16,o),
(518,111,c)
);
}
);
width = 601;
},
{
associatedMasterId = "C2F00A16-B8FC-45C7-B93F-EF9B74B5AB22";
layerId = "79D9A9A0-51C8-477C-8261-CB1E9E61E647";
name = "8";
shapes = (
{
attr = {
strokeWidth = 80;
};
closed = 0;
nodes = (
(-12,660,l),
(637,660,l)
);
},
{
attr = {
strokeWidth = 80;
};
closed = 0;
nodes = (
(438,637,l),
(438,459,l),
(244,461,l),
(244,461,o),
(116,429,o),
(100,327,cs),
(87,247,o),
(109,153,o),
(151,110,cs),
(258,0,o),
(454,15,o),
(511,110,c)
);
}
);
width = 603;
},
{
associatedMasterId = "C2F00A16-B8FC-45C7-B93F-EF9B74B5AB22";
layerId = "B0096FDF-59B7-4C62-87EE-8D10DBD6B80A";
name = "7";
shapes = (
{
attr = {
strokeWidth = 80;
};
closed = 0;
nodes = (
(-12,660,l),
(637,660,l)
);
},
{
attr = {
strokeWidth = 80;
};
closed = 0;
nodes = (
(438,637,l),
(438,459,l),
(244,461,l),
(244,461,o),
(116,429,o),
(100,327,cs),
(87,247,o),
(109,153,o),
(151,110,cs),
(258,0,o),
(454,15,o),
(511,110,c)
);
}
);
width = 603;
},
{
associatedMasterId = "C2F00A16-B8FC-45C7-B93F-EF9B74B5AB22";
layerId = "74A7CB8F-5DF7-4588-B7E3-78EF3C7FB18D";
name = "6";
shapes = (
{
attr = {
strokeWidth = 80;
};
closed = 0;
nodes = (
(-12,660,l),
(637,660,l)
);
},
{
attr = {
strokeWidth = 80;
};
closed = 0;
nodes = (
(438,637,l),
(438,459,l),
(244,461,l),
(244,461,o),
(127,429,o),
(111,327,cs),
(98,247,o),
(120,153,o),
(162,110,cs),
(269,0,o),
(454,15,o),
(511,110,c)
);
}
);
width = 603;
},
{
associatedMasterId = "C2F00A16-B8FC-45C7-B93F-EF9B74B5AB22";
layerId = "16D08582-E3A6-4222-91FC-A2475832A6BD";
name = "3";
shapes = (
{
attr = {
strokeWidth = 80;
};
closed = 0;
nodes = (
(-12,660,l),
(637,660,l)
);
},
{
attr = {
strokeWidth = 80;
};
closed = 0;
nodes = (
(438,637,l),
(438,459,l),
(244,461,l),
(244,461,o),
(140,429,o),
(124,327,cs),
(111,247,o),
(133,153,o),
(175,110,cs),
(282,0,o),
(454,15,o),
(511,110,c)
);
}
);
width = 603;
},
{
associatedMasterId = "C2F00A16-B8FC-45C7-B93F-EF9B74B5AB22";
layerId = "4170FEE2-2F45-413A-BF89-0C4C760EB048";
name = "1";
shapes = (
{
attr = {
strokeWidth = 80;
};
closed = 0;
nodes = (
(-12,660,l),
(637,660,l)
);
},
{
attr = {
strokeWidth = 80;
};
closed = 0;
nodes = (
(438,637,l),
(438,459,l),
(244,461,l),
(244,461,o),
(140,429,o),
(124,327,cs),
(111,247,o),
(133,153,o),
(175,110,cs),
(282,0,o),
(454,15,o),
(511,110,c)
);
}
);
width = 603;
},
{
associatedMasterId = "C2F00A16-B8FC-45C7-B93F-EF9B74B5AB22";
guides = (
{
pos = (0,419);
}
);
layerId = "74287EE6-C037-4679-A01B-34EB5C0D0D36";
name = "4";
shapes = (
{
attr = {
strokeWidth = 160;
};
closed = 0;
nodes = (
(-12,620,l),
(637,620,l)
);
},
{
attr = {
strokeWidth = 160;
};
closed = 0;
nodes = (
(400,587,l),
(400,419,l),
(206,419,l),
(206,419,o),
(113,400,o),
(102,297,cs),
(95,231,o),
(107,194,o),
(145,147,cs),
(235,37,o),
(477,61,o),
(480,221,c)
);
}
);
width = 603;
},
{
associatedMasterId = "C2F00A16-B8FC-45C7-B93F-EF9B74B5AB22";
layerId = "9E252814-83E5-476D-BD5F-9B74F315E1C1";
name = "5";
shapes = (
{
attr = {
strokeWidth = 20;
};
closed = 0;
nodes = (
(-12,690,l),
(637,690,l)
);
},
{
attr = {
strokeWidth = 20;
};
closed = 0;
nodes = (
(438,687,l),
(438,499,l),
(244,501,l),
(244,501,o),
(104,460,o),
(77,335,cs),
(57,240,o),
(86,132,o),
(127,88,cs),
(240,-35,o),
(434,-5,o),
(491,90,c)
);
}
);
width = 603;
},
{
associatedMasterId = "C2F00A16-B8FC-45C7-B93F-EF9B74B5AB22";
layerId = "942694AB-FFF7-456E-A631-DD70D9BC4F03";
name = "2";
shapes = (
{
attr = {
strokeWidth = 80;
};
closed = 0;
nodes = (
(-12,660,l),
(637,660,l)
);
},
{
attr = {
strokeWidth = 80;
};
closed = 0;
nodes = (
(438,637,l),
(438,459,l),
(244,461,l),
(244,461,o),
(140,429,o),
(124,327,cs),
(111,247,o),
(133,153,o),
(175,110,cs),
(282,0,o),
(454,15,o),
(511,110,c)
);
}
);
width = 603;
},
{
layerId = "C2F00A16-B8FC-45C7-B93F-EF9B74B5AB22";
shapes = (
{
attr = {
strokeWidth = 80;
};
closed = 0;
nodes = (
(-20,660,l),
(665,660,l)
);
},
{
attr = {
strokeWidth = 80;
};
closed = 0;
nodes = (
(438,637,l),
(438,459,l),
(244,461,l),
(244,461,o),
(140,429,o),
(124,327,cs),
(111,247,o),
(133,153,o),
(175,110,cs),
(282,0,o),
(454,15,o),
(511,110,cs)
);
}
);
width = 642;
},
{
layerId = "0F5BFDAC-7F6A-4DA8-AB27-34DF6552C2B9";
width = 600;
}
);
unicode = 2335;
},
{
color = (153,154,255,255);
glyphname = "ttha-deva";
lastChange = "2026-04-13 05:41:36 +0000";
layers = (
{
associatedMasterId = "C2F00A16-B8FC-45C7-B93F-EF9B74B5AB22";
layerId = "36EA3D75-F920-4DC1-A723-CC5553715AE8";
name = "11";
shapes = (
{
attr = {
strokeWidth = 80;
};
closed = 0;
nodes = (
(-15,660,l),
(711,660,l)
);
},
{
attr = {
strokeWidth = 80;
};
closed = 0;
nodes = (
(438,637,l),
(438,461,l),
(258,463,l),
(258,463,o),
(138,430,o),
(122,328,cs),
(109,248,o),
(122,166,o),
(173,111,cs),
(274,2,o),
(483,21,o),
(535,117,c),
(592,197,o),
(610,416,o),
(414,467,c)
);
}
);
width = 680;
},
{
associatedMasterId = "C2F00A16-B8FC-45C7-B93F-EF9B74B5AB22";
layerId = "CAE1915B-9FDE-4489-97BD-7D6B90151569";
name = "10";
shapes = (
{
attr = {
strokeWidth = 80;
};
closed = 0;
nodes = (
(-15,660,l),
(711,660,l)
);
},
{
attr = {
strokeWidth = 80;
};
closed = 0;
nodes = (
(438,637,l),
(438,461,l),
(258,463,l),
(258,463,o),
(138,430,o),
(122,328,cs),
(109,248,o),
(122,166,o),
(173,111,cs),
(274,2,o),
(483,21,o),
(535,117,c),
(592,197,o),
(610,416,o),
(414,467,c)
);
}
);
width = 680;
},
{
associatedMasterId = "C2F00A16-B8FC-45C7-B93F-EF9B74B5AB22";
layerId = "260935F4-0920-4742-A130-A8234FBF7728";
name = "9";
shapes = (
{
attr = {
strokeWidth = 80;
};
closed = 0;
nodes = (
(-15,660,l),
(711,660,l)
);
},
{
attr = {
strokeWidth = 80;
};
closed = 0;
nodes = (
(438,637,l),
(438,461,l),
(258,463,l),
(258,463,o),
(138,430,o),
(122,328,cs),
(109,248,o),
(122,166,o),
(173,111,cs),
(274,2,o),
(491,21,o),
(543,117,c),
(600,197,o),
(618,416,o),
(422,467,c)
);
}
);
width = 680;
},
{
associatedMasterId = "C2F00A16-B8FC-45C7-B93F-EF9B74B5AB22";
layerId = "79D9A9A0-51C8-477C-8261-CB1E9E61E647";
name = "8";
shapes = (
{
attr = {
strokeWidth = 80;
};
closed = 0;
nodes = (
(-15,660,l),
(711,660,l)
);
},
{
attr = {
strokeWidth = 80;
};
closed = 0;
nodes = (
(438,637,l),
(438,461,l),
(258,463,l),
(258,463,o),
(138,430,o),
(122,328,cs),
(109,248,o),
(133,155,o),
(173,111,cs),
(272,0,o),
(480,21,o),
(532,117,c),
(589,197,o),
(610,416,o),
(414,467,c)
);
}
);
width = 680;
},
{
associatedMasterId = "C2F00A16-B8FC-45C7-B93F-EF9B74B5AB22";
layerId = "B0096FDF-59B7-4C62-87EE-8D10DBD6B80A";
name = "7";
shapes = (
{
attr = {
strokeWidth = 80;
};
closed = 0;
nodes = (
(-15,660,l),
(711,660,l)
);
},
{
attr = {
strokeWidth = 80;
};
closed = 0;
nodes = (
(438,637,l),
(438,461,l),
(258,463,l),
(258,463,o),
(138,430,o),
(122,328,cs),
(109,248,o),
(133,155,o),
(173,111,cs),
(272,0,o),
(480,21,o),
(532,117,c),
(589,197,o),
(610,416,o),
(414,467,c)
);
}
);
width = 680;
},
{
associatedMasterId = "C2F00A16-B8FC-45C7-B93F-EF9B74B5AB22";
layerId = "74A7CB8F-5DF7-4588-B7E3-78EF3C7FB18D";
name = "6";
shapes = (
{
attr = {
strokeWidth = 80;
};
closed = 0;
nodes = (
(-15,660,l),
(711,660,l)
);
},
{
attr = {
strokeWidth = 80;
};
closed = 0;
nodes = (
(438,637,l),
(438,461,l),
(258,463,l),
(258,463,o),
(138,430,o),
(122,328,cs),
(109,248,o),
(133,155,o),
(173,111,cs),
(272,0,o),
(480,21,o),
(532,117,c),
(589,197,o),
(610,416,o),
(414,467,c)
);
}
);
width = 680;
},
{
associatedMasterId = "C2F00A16-B8FC-45C7-B93F-EF9B74B5AB22";
layerId = "16D08582-E3A6-4222-91FC-A2475832A6BD";
name = "3";
shapes = (
{
attr = {
strokeWidth = 80;
};
closed = 0;
nodes = (
(-15,660,l),
(711,660,l)
);
},
{
attr = {
strokeWidth = 80;
};
closed = 0;
nodes = (
(438,637,l),
(438,461,l),
(258,463,l),
(258,463,o),
(138,430,o),
(122,328,cs),
(109,248,o),
(133,155,o),
(173,111,cs),
(272,0,o),
(480,21,o),
(532,117,c),
(589,197,o),
(610,416,o),
(414,467,c)
);
}
);
width = 680;
},
{
associatedMasterId = "C2F00A16-B8FC-45C7-B93F-EF9B74B5AB22";
layerId = "4170FEE2-2F45-413A-BF89-0C4C760EB048";
name = "1";
shapes = (
{
attr = {
strokeWidth = 80;
};
closed = 0;
nodes = (
(-15,660,l),
(711,660,l)
);
},
{
attr = {
strokeWidth = 80;
};
closed = 0;
nodes = (
(438,637,l),
(438,461,l),
(258,463,l),
(258,463,o),
(138,430,o),
(122,328,cs),
(109,248,o),
(133,155,o),
(173,111,cs),
(272,0,o),
(480,21,o),
(532,117,c),
(589,197,o),
(610,416,o),
(414,467,c)
);
}
);
width = 680;
},
{
associatedMasterId = "C2F00A16-B8FC-45C7-B93F-EF9B74B5AB22";
layerId = "74287EE6-C037-4679-A01B-34EB5C0D0D36";
name = "4";
shapes = (
{
attr = {
strokeWidth = 160;
};
closed = 0;
nodes = (
(-12,620,l),
(722,620,l)
);
},
{
attr = {
strokeWidth = 160;
};
closed = 0;
nodes = (
(400,587,l),
(400,419,l),
(206,419,l),
(206,419,o),
(113,400,o),
(102,297,cs),
(95,231,o),
(106,193,o),
(144,146,cs),
(209,65,o),
(388,53,o),
(481,114,c),
(576,174,o),
(620,368,o),
(424,419,c)
);
}
);
width = 680;
},
{
associatedMasterId = "C2F00A16-B8FC-45C7-B93F-EF9B74B5AB22";
layerId = "9E252814-83E5-476D-BD5F-9B74F315E1C1";
name = "5";
shapes = (
{
attr = {
strokeWidth = 20;
};
closed = 0;
nodes = (
(-12,690,l),
(637,690,l)
);
},
{
attr = {
strokeWidth = 20;
};
closed = 0;
nodes = (
(438,687,l),
(438,499,l),
(244,501,l),
(244,501,o),
(104,460,o),
(77,335,cs),
(57,240,o),
(86,132,o),
(127,88,cs),
(240,-35,o),
(481,5,o),
(538,100,c),
(595,180,o),
(634,449,o),
(438,500,c)
);
}
);
width = 680;
},
{
associatedMasterId = "C2F00A16-B8FC-45C7-B93F-EF9B74B5AB22";
layerId = "942694AB-FFF7-456E-A631-DD70D9BC4F03";
name = "2";
shapes = (
{
attr = {
strokeWidth = 80;
};
closed = 0;
nodes = (
(-15,660,l),
(711,660,l)
);
},
{
attr = {
strokeWidth = 80;
};
closed = 0;
nodes = (
(438,637,l),
(438,461,l),
(258,463,l),
(258,463,o),
(138,430,o),
(122,328,cs),
(109,248,o),
(133,155,o),
(173,111,cs),
(272,0,o),
(480,21,o),
(532,117,c),
(589,197,o),
(610,416,o),
(414,467,c)
);
}
);
width = 680;
},
{
layerId = "C2F00A16-B8FC-45C7-B93F-EF9B74B5AB22";
shapes = (
{
attr = {
strokeWidth = 80;
};
closed = 0;
nodes = (
(-47,660,l),
(755,660,l)
);
},
{
attr = {
strokeWidth = 80;
};
closed = 0;
nodes = (
(438,637,l),
(438,461,l),
(258,463,l),
(258,463,o),
(138,430,o),
(122,328,cs),
(109,248,o),
(133,155,o),
(173,111,cs),
(272,0,o),
(480,21,o),
(532,117,c),
(589,197,o),
(610,416,o),
(414,467,c)
);
}
);
width = 719;
},
{
layerId = "0F5BFDAC-7F6A-4DA8-AB27-34DF6552C2B9";
width = 600;
}
);
unicode = 2336;
},
{
color = (153,154,255,255);
glyphname = "dda-deva";
lastChange = "2026-04-13 05:41:36 +0000";
layers = (
{
associatedMasterId = "C2F00A16-B8FC-45C7-B93F-EF9B74B5AB22";
layerId = "36EA3D75-F920-4DC1-A723-CC5553715AE8";
name = "11";
shapes = (
{
attr = {
strokeWidth = 80;
};
closed = 0;
nodes = (
(-29,660,l),
(639,660,l)
);
},
{
attr = {
strokeWidth = 80;
};
closed = 0;
nodes = (
(440,643,l),
(440,481,l),
(240,481,l),
(99,485,o),
(112,280,o),
(196,280,cs),
(442,280,ls),
(511,280,o),
(538,56,o),
(395,40,cs),
(213,20,o),
(118,64,o),
(118,159,c)
);
}
);
width = 598;
},
{
associatedMasterId = "C2F00A16-B8FC-45C7-B93F-EF9B74B5AB22";
layerId = "CAE1915B-9FDE-4489-97BD-7D6B90151569";
name = "10";
shapes = (
{
attr = {
strokeWidth = 80;
};
closed = 0;
nodes = (
(-29,660,l),
(639,660,l)
);
},
{
attr = {
strokeWidth = 80;
};
closed = 0;
nodes = (
(440,643,l),
(440,481,l),
(240,481,l),
(99,485,o),
(112,280,o),
(196,280,cs),
(442,280,ls),
(511,280,o),
(538,56,o),
(395,40,cs),
(213,20,o),
(118,64,o),
(118,159,c)
);
}
);
width = 598;
},
{
associatedMasterId = "C2F00A16-B8FC-45C7-B93F-EF9B74B5AB22";
layerId = "260935F4-0920-4742-A130-A8234FBF7728";
name = "9";
shapes = (
{
attr = {
strokeWidth = 80;
};
closed = 0;
nodes = (
(-29,660,l),
(639,660,l)
);
},
{
attr = {
strokeWidth = 80;
};
closed = 0;
nodes = (
(440,643,l),
(440,481,l),
(244,481,l),
(103,485,o),
(116,280,o),
(200,280,cs),
(442,280,ls),
(511,280,o),
(538,56,o),
(395,40,cs),
(213,20,o),
(118,64,o),
(118,159,c)
);
}
);
width = 598;
},
{
associatedMasterId = "C2F00A16-B8FC-45C7-B93F-EF9B74B5AB22";
layerId = "79D9A9A0-51C8-477C-8261-CB1E9E61E647";
name = "8";
shapes = (
{
attr = {
strokeWidth = 80;
};
closed = 0;
nodes = (
(-29,660,l),
(639,660,l)
);
},
{
attr = {
strokeWidth = 80;
};
closed = 0;
nodes = (
(440,643,l),
(440,482,l),
(240,482,l),
(99,486,o),
(112,278,o),
(196,278,cs),
(442,278,ls),
(511,278,o),
(538,56,o),
(395,40,cs),
(213,20,o),
(118,64,o),
(118,159,c)
);
}
);
width = 598;
},
{
associatedMasterId = "C2F00A16-B8FC-45C7-B93F-EF9B74B5AB22";
layerId = "B0096FDF-59B7-4C62-87EE-8D10DBD6B80A";
name = "7";
shapes = (
{
attr = {
strokeWidth = 80;
};
closed = 0;
nodes = (
(-29,660,l),
(620,660,l)
);
},
{
attr = {
strokeWidth = 80;
};
closed = 0;
nodes = (
(440,643,l),
(440,464,l),
(240,464,l),
(99,468,o),
(112,267,o),
(196,267,cs),
(442,267,ls),
(511,267,o),
(538,56,o),
(395,40,cs),
(213,20,o),
(118,56,o),
(118,151,c)
);
}
);
width = 598;
},
{
associatedMasterId = "C2F00A16-B8FC-45C7-B93F-EF9B74B5AB22";
layerId = "74A7CB8F-5DF7-4588-B7E3-78EF3C7FB18D";
name = "6";
shapes = (
{
attr = {
strokeWidth = 80;
};
closed = 0;
nodes = (
(-29,660,l),
(640,660,l)
);
},
{
attr = {
strokeWidth = 80;
};
closed = 0;
nodes = (
(440,643,l),
(440,479,l),
(240,479,l),
(99,483,o),
(112,282,o),
(196,282,cs),
(432,282,ls),
(501,282,o),
(528,56,o),
(385,40,cs),
(203,20,o),
(118,56,o),
(118,151,c)
);
}
);
width = 598;
},
{
associatedMasterId = "C2F00A16-B8FC-45C7-B93F-EF9B74B5AB22";
layerId = "16D08582-E3A6-4222-91FC-A2475832A6BD";
name = "3";
shapes = (
{
attr = {
strokeWidth = 80;
};
closed = 0;
nodes = (
(-29,660,l),
(640,660,l)
);
},
{
attr = {
strokeWidth = 80;
};
closed = 0;
nodes = (
(440,643,l),
(440,479,l),
(240,479,l),
(99,483,o),
(112,282,o),
(196,282,cs),
(432,282,ls),
(501,282,o),
(528,56,o),
(385,40,cs),
(203,20,o),
(118,56,o),
(118,151,c)
);
}
);
width = 598;
},
{
associatedMasterId = "C2F00A16-B8FC-45C7-B93F-EF9B74B5AB22";
layerId = "4170FEE2-2F45-413A-BF89-0C4C760EB048";
name = "1";
shapes = (
{
attr = {
strokeWidth = 80;
};
closed = 0;
nodes = (
(-29,660,l),
(640,660,l)
);
},
{
attr = {
strokeWidth = 80;
};
closed = 0;
nodes = (
(440,643,l),
(440,479,l),
(240,479,l),
(99,483,o),
(112,282,o),
(196,282,cs),
(432,282,ls),
(501,282,o),
(528,56,o),
(385,40,cs),
(203,20,o),
(118,56,o),
(118,151,c)
);
}
);
width = 598;
},
{
associatedMasterId = "C2F00A16-B8FC-45C7-B93F-EF9B74B5AB22";
layerId = "74287EE6-C037-4679-A01B-34EB5C0D0D36";
name = "4";
shapes = (
{
attr = {
strokeWidth = 160;
};
closed = 0;
nodes = (
(-20,620,l),
(735,620,l)
);
},
{
attr = {
strokeWidth = 160;
};
closed = 0;
nodes = (
(479,643,l),
(479,439,l),
(259,439,l),
(118,443,o),
(131,262,o),
(215,262,cs),
(486,262,ls),
(555,262,o),
(572,83,o),
(443,81,cs),
(245,78,o),
(81,81,o),
(81,81,c)
);
}
);
width = 718;
},
{
associatedMasterId = "C2F00A16-B8FC-45C7-B93F-EF9B74B5AB22";
layerId = "9E252814-83E5-476D-BD5F-9B74F315E1C1";
name = "5";
shapes = (
{
attr = {
strokeWidth = 20;
};
closed = 0;
nodes = (
(-29,690,l),
(667,690,l)
);
},
{
attr = {
strokeWidth = 20;
};
closed = 0;
nodes = (
(440,690,l),
(440,509,l),
(240,509,l),
(99,513,o),
(112,273,o),
(196,273,cs),
(427,273,ls),
(496,273,o),
(502,30,o),
(384,17,cs),
(202,-3,o),
(121,33,o),
(121,128,c)
);
}
);
width = 598;
},
{
associatedMasterId = "C2F00A16-B8FC-45C7-B93F-EF9B74B5AB22";
layerId = "942694AB-FFF7-456E-A631-DD70D9BC4F03";
name = "2";
shapes = (
{
attr = {
strokeWidth = 80;
};
closed = 0;
nodes = (
(-29,660,l),
(640,660,l)
);
},
{
attr = {
strokeWidth = 80;
};
closed = 0;
nodes = (
(440,643,l),
(440,479,l),
(240,479,l),
(99,483,o),
(112,282,o),
(196,282,cs),
(432,282,ls),
(501,282,o),
(528,56,o),
(385,40,cs),
(203,20,o),
(118,56,o),
(118,151,c)
);
}
);
width = 598;
},
{
layerId = "C2F00A16-B8FC-45C7-B93F-EF9B74B5AB22";
shapes = (
{
attr = {
strokeWidth = 80;
};
closed = 0;
nodes = (
(-29,660,l),
(640,660,l)
);
},
{
attr = {
strokeWidth = 80;
};
closed = 0;
nodes = (
(440,643,l),
(440,479,l),
(240,479,l),
(99,483,o),
(112,282,o),
(196,282,cs),
(432,282,l),
(501,282,o),
(503,53,o),
(385,40,cs),
(203,20,o),
(118,56,o),
(118,151,c)
);
}
);
width = 598;
},
{
layerId = "0F5BFDAC-7F6A-4DA8-AB27-34DF6552C2B9";
width = 600;
}
);
unicode = 2337;
},
{
color = (153,154,255,255);
glyphname = "ddha-deva";
lastChange = "2026-04-13 05:41:36 +0000";
layers = (
{
associatedMasterId = "C2F00A16-B8FC-45C7-B93F-EF9B74B5AB22";
layerId = "36EA3D75-F920-4DC1-A723-CC5553715AE8";
name = "11";
shapes = (
{
attr = {
strokeWidth = 80;
};
closed = 0;
nodes = (
(-12,660,l),
(639,660,l)
);
},
{
attr = {
strokeWidth = 80;
};
closed = 0;
nodes = (
(439,637,l),
(439,459,l),
(244,461,l),
(244,461,o),
(112,441,o),
(90,327,cs),
(75,247,o),
(94,185,o),
(141,125,cs),
(235,6,o),
(478,4,o),
(527,131,cs),
(537,157,o),
(545,247,o),
(460,252,cs),
(371,257,o),
(384,159,o),
(384,136,c)
);
}
);
width = 602;
},
{
associatedMasterId = "C2F00A16-B8FC-45C7-B93F-EF9B74B5AB22";
layerId = "CAE1915B-9FDE-4489-97BD-7D6B90151569";
name = "10";
shapes = (
{
attr = {
strokeWidth = 80;
};
closed = 0;
nodes = (
(-12,660,l),
(639,660,l)
);
},
{
attr = {
strokeWidth = 80;
};
closed = 0;
nodes = (
(439,637,l),
(439,459,l),
(244,461,l),
(244,461,o),
(112,441,o),
(90,327,cs),
(75,247,o),
(94,185,o),
(141,125,cs),
(235,6,o),
(471,-10,o),
(520,117,cs),
(530,143,o),
(545,246,o),
(460,252,cs),
(339,261,o),
(342,71,o),
(453,57,c)
);
}
);
width = 602;
},
{
associatedMasterId = "C2F00A16-B8FC-45C7-B93F-EF9B74B5AB22";
layerId = "260935F4-0920-4742-A130-A8234FBF7728";
name = "9";
shapes = (
{
attr = {
strokeWidth = 80;
};
closed = 0;
nodes = (
(-12,660,l),
(639,660,l)
);
},
{
attr = {
strokeWidth = 80;
};
closed = 0;
nodes = (
(439,637,l),
(439,459,l),
(244,461,l),
(244,461,o),
(107,441,o),
(85,327,cs),
(70,247,o),
(89,188,o),
(136,128,cs),
(230,9,o),
(466,7,o),
(515,134,cs),
(525,160,o),
(533,247,o),
(448,252,cs),
(359,257,o),
(372,159,o),
(372,136,c)
);
}
);
width = 602;
},
{
associatedMasterId = "C2F00A16-B8FC-45C7-B93F-EF9B74B5AB22";
layerId = "79D9A9A0-51C8-477C-8261-CB1E9E61E647";
name = "8";
shapes = (
{
attr = {
strokeWidth = 80;
};
closed = 0;
nodes = (
(-17,660,l),
(636,660,l)
);
},
{
attr = {
strokeWidth = 80;
};
closed = 0;
nodes = (
(-12,660,l),
(637,660,l)
);
},
{
attr = {
strokeWidth = 80;
};
closed = 0;
nodes = (
(438,637,l),
(438,459,l),
(244,461,l),
(244,461,o),
(112,441,o),
(90,327,cs),
(75,247,o),
(94,185,o),
(141,125,cs),
(235,6,o),
(456,-1,o),
(505,126,cs),
(515,152,o),
(524,242,o),
(439,247,cs),
(350,252,o),
(363,154,o),
(363,131,c)
);
}
);
width = 602;
},
{
associatedMasterId = "C2F00A16-B8FC-45C7-B93F-EF9B74B5AB22";
layerId = "B0096FDF-59B7-4C62-87EE-8D10DBD6B80A";
name = "7";
shapes = (
{
attr = {
strokeWidth = 80;
};
closed = 0;
nodes = (
(-17,660,l),
(636,660,l)
);
},
{
attr = {
strokeWidth = 80;
};
closed = 0;
nodes = (
(-12,660,l),
(637,660,l)
);
},
{
attr = {
strokeWidth = 80;
};
closed = 0;
nodes = (
(438,637,l),
(438,459,l),
(244,461,l),
(244,461,o),
(122,441,o),
(100,327,cs),
(85,247,o),
(100,176,o),
(151,119,cs),
(253,5,o),
(450,14,o),
(487,112,cs),
(502,152,o),
(491,235,o),
(419,239,cs),
(330,244,o),
(343,146,o),
(343,123,c)
);
}
);
width = 602;
},
{
associatedMasterId = "C2F00A16-B8FC-45C7-B93F-EF9B74B5AB22";
layerId = "74A7CB8F-5DF7-4588-B7E3-78EF3C7FB18D";
name = "6";
shapes = (
{
attr = {
strokeWidth = 80;
};
closed = 0;
nodes = (
(-17,660,l),
(636,660,l)
);
},
{
attr = {
strokeWidth = 80;
};
closed = 0;
nodes = (
(440,637,l),
(440,459,l),
(246,461,l),
(246,461,o),
(138,430,o),
(122,328,cs),
(109,248,o),
(114,181,o),
(178,112,c),
(254,14,o),
(444,1,o),
(496,116,cs),
(520,169,o),
(494,258,o),
(417,263,cs),
(328,269,o),
(328,187,o),
(328,162,cs),
(328,111,o),
(328,53,o),
(328,53,c)
);
}
);
width = 602;
},
{
associatedMasterId = "C2F00A16-B8FC-45C7-B93F-EF9B74B5AB22";
layerId = "16D08582-E3A6-4222-91FC-A2475832A6BD";
name = "3";
shapes = (
{
attr = {
strokeWidth = 80;
};
closed = 0;
nodes = (
(-17,660,l),
(636,660,l)
);
},
{
attr = {
strokeWidth = 80;
};
closed = 0;
nodes = (
(440,637,l),
(440,459,l),
(246,461,l),
(246,461,o),
(138,430,o),
(122,328,cs),
(109,248,o),
(114,181,o),
(178,112,c),
(254,14,o),
(444,1,o),
(496,116,cs),
(520,169,o),
(494,258,o),
(417,263,cs),
(328,269,o),
(328,187,o),
(328,162,cs),
(328,111,o),
(328,53,o),
(328,53,c)
);
}
);
width = 602;
},
{
associatedMasterId = "C2F00A16-B8FC-45C7-B93F-EF9B74B5AB22";
layerId = "4170FEE2-2F45-413A-BF89-0C4C760EB048";
name = "1";
shapes = (
{
attr = {
strokeWidth = 80;
};
closed = 0;
nodes = (
(-17,660,l),
(636,660,l)
);
},
{
attr = {
strokeWidth = 80;
};
closed = 0;
nodes = (
(440,637,l),
(440,459,l),
(246,461,l),
(246,461,o),
(138,430,o),
(122,328,cs),
(109,248,o),
(114,181,o),
(178,112,c),
(254,14,o),
(444,1,o),
(496,116,cs),
(520,169,o),
(494,258,o),
(417,263,cs),
(328,269,o),
(328,187,o),
(328,162,cs),
(328,111,o),
(328,104,o),
(328,104,c)
);
}
);
width = 602;
},
{
associatedMasterId = "C2F00A16-B8FC-45C7-B93F-EF9B74B5AB22";
layerId = "74287EE6-C037-4679-A01B-34EB5C0D0D36";
name = "4";
shapes = (
{
attr = {
strokeWidth = 160;
};
closed = 0;
nodes = (
(-12,620,l),
(666,620,l)
);
},
{
attr = {
strokeWidth = 160;
};
closed = 0;
nodes = (
(400,587,l),
(400,419,l),
(206,419,l),
(206,419,o),
(113,400,o),
(102,297,cs),
(95,231,o),
(110,197,o),
(148,150,cs),
(238,40,o),
(540,26,o),
(490,202,cs),
(488,209,o),
(407,214,o),
(407,182,cs),
(407,126,l)
);
}
);
width = 642;
},
{
associatedMasterId = "C2F00A16-B8FC-45C7-B93F-EF9B74B5AB22";
layerId = "9E252814-83E5-476D-BD5F-9B74F315E1C1";
name = "5";
shapes = (
{
attr = {
strokeWidth = 20;
};
closed = 0;
nodes = (
(-12,690,l),
(637,690,l)
);
},
{
attr = {
strokeWidth = 20;
};
closed = 0;
nodes = (
(438,687,l),
(438,499,l),
(244,501,l),
(244,501,o),
(104,460,o),
(77,335,cs),
(57,240,o),
(86,132,o),
(127,88,cs),
(240,-35,o),
(434,-5,o),
(491,90,c),
(533,149,o),
(494,258,o),
(417,263,cs),
(328,269,o),
(328,187,o),
(328,162,cs),
(328,111,o),
(328,109,o),
(328,109,c)
);
}
);
width = 602;
},
{
associatedMasterId = "C2F00A16-B8FC-45C7-B93F-EF9B74B5AB22";
layerId = "942694AB-FFF7-456E-A631-DD70D9BC4F03";
name = "2";
shapes = (
{
attr = {
strokeWidth = 80;
};
closed = 0;
nodes = (
(-17,660,l),
(636,660,l)
);
},
{
attr = {
strokeWidth = 80;
};
closed = 0;
nodes = (
(440,637,l),
(440,459,l),
(246,461,l),
(246,461,o),
(138,430,o),
(122,328,cs),
(109,248,o),
(114,181,o),
(178,112,c),
(254,14,o),
(444,1,o),
(496,116,cs),
(520,169,o),
(494,258,o),
(417,263,cs),
(328,269,o),
(328,187,o),
(328,162,cs),
(328,111,o),
(328,109,o),
(328,109,c)
);
}
);
width = 602;
},
{
layerId = "C2F00A16-B8FC-45C7-B93F-EF9B74B5AB22";
shapes = (
{
attr = {
strokeWidth = 80;
};
closed = 0;
nodes = (
(-45,660,l),
(667,660,l)
);
},
{
attr = {
strokeWidth = 80;
};
closed = 0;
nodes = (
(440,637,l),
(440,459,l),
(246,461,l),
(246,461,o),
(138,430,o),
(122,328,cs),
(109,248,o),
(114,181,o),
(178,112,c),
(285,2,o),
(449,-1,o),
(496,116,cs),
(513,159,o),
(494,258,o),
(417,263,cs),
(328,269,o),
(318,187,o),
(318,162,cs),
(318,111,o),
(318,104,o),
(318,104,c)
);
}
);
width = 640;
},
{
layerId = "0F5BFDAC-7F6A-4DA8-AB27-34DF6552C2B9";
width = 600;
}
);
unicode = 2338;
},
{
color = (153,154,255,255);
glyphname = "nna-deva";
lastChange = "2026-04-13 05:41:36 +0000";
layers = (
{
associatedMasterId = "C2F00A16-B8FC-45C7-B93F-EF9B74B5AB22";
layerId = "36EA3D75-F920-4DC1-A723-CC5553715AE8";
name = "11";
shapes = (
{
attr = {
strokeWidth = 80;
};
closed = 0;
nodes = (
(439,660,l),
(439,354,l),
(427,264,o),
(383,234,o),
(292,235,cs),
(184,236,o),
(170,299,o),
(161,368,c),
(161,641,l)
);
},
{
attr = {
strokeWidth = 80;
};
closed = 0;
nodes = (
(-19,660,l),
(812,660,l)
);
},
{
attr = {
strokeWidth = 80;
};
closed = 0;
nodes = (
(680,627,l),
(680,0,l)
);
}
);
width = 798;
},
{
associatedMasterId = "C2F00A16-B8FC-45C7-B93F-EF9B74B5AB22";
layerId = "CAE1915B-9FDE-4489-97BD-7D6B90151569";
name = "10";
shapes = (
{
attr = {
strokeWidth = 80;
};
closed = 0;
nodes = (
(439,660,l),
(439,354,l),
(427,264,o),
(383,234,o),
(292,235,cs),
(184,236,o),
(170,299,o),
(161,368,c),
(161,641,l)
);
},
{
attr = {
strokeWidth = 80;
};
closed = 0;
nodes = (
(-19,660,l),
(812,660,l)
);
},
{
attr = {
strokeWidth = 80;
};
closed = 0;
nodes = (
(680,627,l),
(680,0,l)
);
}
);
width = 798;
},
{
associatedMasterId = "C2F00A16-B8FC-45C7-B93F-EF9B74B5AB22";
layerId = "260935F4-0920-4742-A130-A8234FBF7728";
name = "9";
shapes = (
{
attr = {
strokeWidth = 80;
};
closed = 0;
nodes = (
(439,660,l),
(439,354,l),
(427,264,o),
(383,234,o),
(292,235,cs),
(184,236,o),
(170,299,o),
(161,368,c),
(161,641,l)
);
},
{
attr = {
strokeWidth = 80;
};
closed = 0;
nodes = (
(-19,660,l),
(812,660,l)
);
},
{
attr = {
strokeWidth = 80;
};
closed = 0;
nodes = (
(680,627,l),
(680,0,l)
);
}
);
width = 798;
},
{
associatedMasterId = "C2F00A16-B8FC-45C7-B93F-EF9B74B5AB22";
layerId = "79D9A9A0-51C8-477C-8261-CB1E9E61E647";
name = "8";
shapes = (
{
attr = {
strokeWidth = 80;
};
closed = 0;
nodes = (
(439,660,l),
(439,354,l),
(427,264,o),
(379,234,o),
(292,235,cs),
(184,236,o),
(160,294,o),
(151,363,c),
(151,636,l)
);
},
{
attr = {
strokeWidth = 80;
};
closed = 0;
nodes = (
(-19,660,l),
(812,660,l)
);
},
{
attr = {
strokeWidth = 80;
};
closed = 0;
nodes = (
(680,627,l),
(680,0,l)
);
}
);
width = 798;
},
{
associatedMasterId = "C2F00A16-B8FC-45C7-B93F-EF9B74B5AB22";
layerId = "B0096FDF-59B7-4C62-87EE-8D10DBD6B80A";
name = "7";
shapes = (
{
attr = {
strokeWidth = 80;
};
closed = 0;
nodes = (
(439,660,l),
(439,354,l),
(427,264,o),
(379,234,o),
(292,235,cs),
(184,236,o),
(160,294,o),
(151,363,c),
(151,636,l)
);
},
{
attr = {
strokeWidth = 80;
};
closed = 0;
nodes = (
(-19,660,l),
(812,660,l)
);
},
{
attr = {
strokeWidth = 80;
};
closed = 0;
nodes = (
(680,627,l),
(680,0,l)
);
}
);
width = 798;
},
{
associatedMasterId = "C2F00A16-B8FC-45C7-B93F-EF9B74B5AB22";
layerId = "74A7CB8F-5DF7-4588-B7E3-78EF3C7FB18D";
name = "6";
shapes = (
{
attr = {
strokeWidth = 80;
};
closed = 0;
nodes = (
(439,660,l),
(439,354,l),
(427,264,o),
(368,234,o),
(281,235,cs),
(173,236,o),
(128,294,o),
(119,363,c),
(119,636,l)
);
},
{
attr = {
strokeWidth = 80;
};
closed = 0;
nodes = (
(-19,660,l),
(812,660,l)
);
},
{
attr = {
strokeWidth = 80;
};
closed = 0;
nodes = (
(680,627,l),
(680,0,l)
);
}
);
width = 798;
},
{
associatedMasterId = "C2F00A16-B8FC-45C7-B93F-EF9B74B5AB22";
layerId = "16D08582-E3A6-4222-91FC-A2475832A6BD";
name = "3";
shapes = (
{
attr = {
strokeWidth = 80;
};
closed = 0;
nodes = (
(439,660,l),
(439,354,l),
(427,264,o),
(368,234,o),
(281,235,cs),
(173,236,o),
(128,294,o),
(119,363,c),
(119,636,l)
);
},
{
attr = {
strokeWidth = 80;
};
closed = 0;
nodes = (
(-19,660,l),
(812,660,l)
);
},
{
attr = {
strokeWidth = 80;
};
closed = 0;
nodes = (
(680,627,l),
(680,0,l)
);
}
);
width = 798;
},
{
associatedMasterId = "C2F00A16-B8FC-45C7-B93F-EF9B74B5AB22";
layerId = "4170FEE2-2F45-413A-BF89-0C4C760EB048";
name = "1";
shapes = (
{
attr = {
strokeWidth = 80;
};
closed = 0;
nodes = (
(439,660,l),
(439,354,l),
(427,264,o),
(368,234,o),
(281,235,cs),
(173,236,o),
(128,294,o),
(119,363,c),
(119,636,l)
);
},
{
attr = {
strokeWidth = 80;
};
closed = 0;
nodes = (
(-19,660,l),
(875,660,l)
);
},
{
attr = {
strokeWidth = 80;
};
closed = 0;
nodes = (
(680,627,l),
(680,0,l)
);
}
);
width = 838;
},
{
associatedMasterId = "C2F00A16-B8FC-45C7-B93F-EF9B74B5AB22";
layerId = "74287EE6-C037-4679-A01B-34EB5C0D0D36";
name = "4";
shapes = (
{
attr = {
strokeWidth = 160;
};
closed = 0;
nodes = (
(479,660,l),
(479,336,l),
(467,246,o),
(408,214,o),
(321,215,cs),
(213,216,o),
(168,270,o),
(159,339,c),
(159,636,l)
);
},
{
attr = {
strokeWidth = 160;
};
closed = 0;
nodes = (
(-19,620,l),
(906,620,l)
);
},
{
attr = {
strokeWidth = 160;
};
closed = 0;
nodes = (
(720,627,l),
(720,0,l)
);
}
);
width = 879;
},
{
associatedMasterId = "C2F00A16-B8FC-45C7-B93F-EF9B74B5AB22";
layerId = "9E252814-83E5-476D-BD5F-9B74F315E1C1";
name = "5";
shapes = (
{
attr = {
strokeWidth = 20;
};
closed = 0;
nodes = (
(439,690,l),
(439,354,l),
(427,264,o),
(368,234,o),
(281,235,cs),
(173,236,o),
(128,294,o),
(119,363,c),
(119,686,l)
);
},
{
attr = {
strokeWidth = 20;
};
closed = 0;
nodes = (
(-19,691,l),
(812,691,l)
);
},
{
attr = {
strokeWidth = 20;
};
closed = 0;
nodes = (
(680,687,l),
(680,0,l)
);
}
);
width = 798;
},
{
associatedMasterId = "C2F00A16-B8FC-45C7-B93F-EF9B74B5AB22";
layerId = "942694AB-FFF7-456E-A631-DD70D9BC4F03";
name = "2";
shapes = (
{
attr = {
strokeWidth = 80;
};
closed = 0;
nodes = (
(439,660,l),
(439,354,l),
(427,264,o),
(368,234,o),
(281,235,cs),
(173,236,o),
(128,294,o),
(119,363,c),
(119,636,l)
);
},
{
attr = {
strokeWidth = 80;
};
closed = 0;
nodes = (
(-19,660,l),
(812,660,l)
);
},
{
attr = {
strokeWidth = 80;
};
closed = 0;
nodes = (
(680,627,l),
(680,0,l)
);
}
);
width = 798;
},
{
layerId = "C2F00A16-B8FC-45C7-B93F-EF9B74B5AB22";
shapes = (
{
attr = {
strokeWidth = 80;
};
closed = 0;
nodes = (
(519,660,l),
(519,354,l),
(507,264,o),
(448,234,o),
(361,235,cs),
(253,236,o),
(208,294,o),
(199,363,c),
(199,636,l)
);
},
{
attr = {
strokeWidth = 80;
};
closed = 0;
nodes = (
(-32,660,l),
(1071,660,l)
);
},
{
attr = {
strokeWidth = 80;
};
closed = 0;
nodes = (
(760,627,l),
(760,0,l)
);
}
);
width = 959;
},
{
layerId = "0F5BFDAC-7F6A-4DA8-AB27-34DF6552C2B9";
width = 600;
}
);
unicode = 2339;
},
{
color = (153,154,255,255);
glyphname = "ta-deva";
lastChange = "2026-04-13 05:41:36 +0000";
layers = (
{
associatedMasterId = "C2F00A16-B8FC-45C7-B93F-EF9B74B5AB22";
layerId = "36EA3D75-F920-4DC1-A723-CC5553715AE8";
name = "11";
shapes = (
{
attr = {
lineCapEnd = 4;
strokeWidth = 80;
};
closed = 0;
nodes = (
(480,626,l),
(480,0,l)
);
},
{
attr = {
lineCapEnd = 4;
strokeWidth = 80;
};
closed = 0;
nodes = (
(-13,660,l),
(620,660,l)
);
},
{
attr = {
lineCapEnd = 4;
strokeWidth = 80;
};
closed = 0;
nodes = (
(506,410,l),
(235,410,l),
(235,410,o),
(33,415,o),
(107,157,c),
(132,75,o),
(206,31,o),
(339,42,c)
);
}
);
width = 599;
},
{
associatedMasterId = "C2F00A16-B8FC-45C7-B93F-EF9B74B5AB22";
layerId = "CAE1915B-9FDE-4489-97BD-7D6B90151569";
name = "10";
shapes = (
{
attr = {
lineCapEnd = 4;
strokeWidth = 80;
};
closed = 0;
nodes = (
(480,626,l),
(480,0,l)
);
},
{
attr = {
lineCapEnd = 4;
strokeWidth = 80;
};
closed = 0;
nodes = (
(-13,660,l),
(620,660,l)
);
},
{
attr = {
lineCapEnd = 4;
strokeWidth = 80;
};
closed = 0;
nodes = (
(506,399,l),
(235,399,l),
(235,399,o),
(24,415,o),
(116,157,c)
);
},
{
attr = {
lineCapEnd = 4;
strokeWidth = 80;
};
closed = 0;
nodes = (
(93,276,l),
(91,162,o),
(161,79,o),
(228,0,c)
);
}
);
width = 599;
},
{
associatedMasterId = "C2F00A16-B8FC-45C7-B93F-EF9B74B5AB22";
layerId = "260935F4-0920-4742-A130-A8234FBF7728";
name = "9";
shapes = (
{
attr = {
lineCapEnd = 4;
strokeWidth = 80;
};
closed = 0;
nodes = (
(480,626,l),
(480,0,l)
);
},
{
attr = {
lineCapEnd = 4;
strokeWidth = 80;
};
closed = 0;
nodes = (
(-13,660,l),
(620,660,l)
);
},
{
attr = {
lineCapEnd = 4;
strokeWidth = 80;
};
closed = 0;
nodes = (
(506,401,l),
(239,401,l),
(239,401,o),
(28,415,o),
(120,157,c)
);
},
{
attr = {
lineCapEnd = 4;
strokeWidth = 80;
};
closed = 0;
nodes = (
(97,276,l),
(95,162,o),
(165,79,o),
(232,0,c)
);
}
);
width = 599;
},
{
associatedMasterId = "C2F00A16-B8FC-45C7-B93F-EF9B74B5AB22";
layerId = "79D9A9A0-51C8-477C-8261-CB1E9E61E647";
name = "8";
shapes = (
{
attr = {
lineCapEnd = 4;
strokeWidth = 80;
};
closed = 0;
nodes = (
(480,626,l),
(480,0,l)
);
},
{
attr = {
lineCapEnd = 4;
strokeWidth = 80;
};
closed = 0;
nodes = (
(-13,660,l),
(620,660,l)
);
},
{
attr = {
lineCapEnd = 4;
strokeWidth = 80;
};
closed = 0;
nodes = (
(506,396,l),
(235,396,l),
(235,396,o),
(24,415,o),
(116,157,c)
);
},
{
attr = {
lineCapEnd = 4;
strokeWidth = 80;
};
closed = 0;
nodes = (
(93,276,l),
(91,162,o),
(161,79,o),
(228,0,c)
);
}
);
width = 599;
},
{
associatedMasterId = "C2F00A16-B8FC-45C7-B93F-EF9B74B5AB22";
layerId = "B0096FDF-59B7-4C62-87EE-8D10DBD6B80A";
name = "7";
shapes = (
{
attr = {
lineCapEnd = 4;
strokeWidth = 80;
};
closed = 0;
nodes = (
(480,626,l),
(480,0,l)
);
},
{
attr = {
lineCapEnd = 4;
strokeWidth = 80;
};
closed = 0;
nodes = (
(-13,660,l),
(620,660,l)
);
},
{
attr = {
lineCapEnd = 4;
strokeWidth = 80;
};
closed = 0;
nodes = (
(506,396,l),
(235,396,l),
(235,396,o),
(24,415,o),
(116,157,cs)
);
},
{
attr = {
lineCapEnd = 4;
strokeWidth = 80;
};
closed = 0;
nodes = (
(93,276,ls),
(91,162,o),
(161,79,o),
(228,0,c)
);
}
);
width = 599;
},
{
associatedMasterId = "C2F00A16-B8FC-45C7-B93F-EF9B74B5AB22";
layerId = "74A7CB8F-5DF7-4588-B7E3-78EF3C7FB18D";
name = "6";
shapes = (
{
attr = {
lineCapEnd = 4;
strokeWidth = 80;
};
closed = 0;
nodes = (
(479,626,l),
(479,0,l)
);
},
{
attr = {
lineCapEnd = 4;
strokeWidth = 80;
};
closed = 0;
nodes = (
(-93,660,l),
(620,660,l)
);
},
{
attr = {
lineCapEnd = 4;
strokeWidth = 80;
};
closed = 0;
nodes = (
(506,420,l),
(235,420,l),
(235,420,o),
(1,440,o),
(109,166,cs),
(115,150,o),
(143,96,o),
(189,0,c)
);
}
);
width = 599;
},
{
associatedMasterId = "C2F00A16-B8FC-45C7-B93F-EF9B74B5AB22";
layerId = "16D08582-E3A6-4222-91FC-A2475832A6BD";
name = "3";
shapes = (
{
attr = {
lineCapEnd = 4;
strokeWidth = 80;
};
closed = 0;
nodes = (
(439,626,l),
(439,0,l)
);
},
{
attr = {
lineCapEnd = 4;
strokeWidth = 80;
};
closed = 0;
nodes = (
(-20,660,l),
(580,660,l)
);
},
{
attr = {
lineCapEnd = 4;
strokeWidth = 80;
};
closed = 0;
nodes = (
(466,420,l),
(195,420,l),
(195,420,o),
(-39,435,o),
(69,161,cs),
(75,145,o),
(103,96,o),
(149,0,c)
);
}
);
width = 559;
},
{
associatedMasterId = "C2F00A16-B8FC-45C7-B93F-EF9B74B5AB22";
layerId = "4170FEE2-2F45-413A-BF89-0C4C760EB048";
name = "1";
shapes = (
{
attr = {
lineCapEnd = 4;
strokeWidth = 80;
};
closed = 0;
nodes = (
(439,626,l),
(439,0,l)
);
},
{
attr = {
lineCapEnd = 4;
strokeWidth = 80;
};
closed = 0;
nodes = (
(-20,660,l),
(637,660,l)
);
},
{
attr = {
lineCapEnd = 4;
strokeWidth = 80;
};
closed = 0;
nodes = (
(466,420,l),
(235,420,l),
(235,420,o),
(15,432,o),
(96,161,cs),
(101,145,o),
(123,96,o),
(169,0,c)
);
}
);
width = 600;
},
{
associatedMasterId = "C2F00A16-B8FC-45C7-B93F-EF9B74B5AB22";
layerId = "74287EE6-C037-4679-A01B-34EB5C0D0D36";
name = "4";
shapes = (
{
attr = {
lineCapEnd = 4;
strokeWidth = 160;
};
closed = 0;
nodes = (
(479,626,l),
(479,0,l)
);
},
{
attr = {
lineCapEnd = 4;
strokeWidth = 160;
};
closed = 0;
nodes = (
(-20,620,l),
(665,620,l)
);
},
{
attr = {
lineCapEnd = 4;
strokeWidth = 160;
};
closed = 0;
nodes = (
(466,390,l),
(225,390,l),
(225,390,o),
(-17,408,o),
(90,147,cs),
(97,130,o),
(146,87,o),
(172,80,c),
(318,80,l)
);
}
);
width = 640;
},
{
associatedMasterId = "C2F00A16-B8FC-45C7-B93F-EF9B74B5AB22";
layerId = "9E252814-83E5-476D-BD5F-9B74F315E1C1";
name = "5";
shapes = (
{
attr = {
lineCapEnd = 4;
strokeWidth = 20;
};
closed = 0;
nodes = (
(469,686,l),
(469,0,l)
);
},
{
attr = {
lineCapEnd = 4;
strokeWidth = 20;
};
closed = 0;
nodes = (
(-20,690,l),
(580,690,l)
);
},
{
attr = {
lineCapEnd = 4;
strokeWidth = 20;
};
closed = 0;
nodes = (
(466,440,l),
(205,440,l),
(205,440,o),
(-15,432,o),
(66,161,cs),
(71,145,o),
(93,96,o),
(139,0,c)
);
}
);
width = 559;
},
{
associatedMasterId = "C2F00A16-B8FC-45C7-B93F-EF9B74B5AB22";
layerId = "942694AB-FFF7-456E-A631-DD70D9BC4F03";
name = "2";
shapes = (
{
attr = {
lineCapEnd = 4;
strokeWidth = 80;
};
closed = 0;
nodes = (
(439,626,l),
(439,0,l)
);
},
{
attr = {
lineCapEnd = 4;
strokeWidth = 80;
};
closed = 0;
nodes = (
(-20,660,l),
(580,660,l)
);
},
{
attr = {
lineCapEnd = 4;
strokeWidth = 80;
};
closed = 0;
nodes = (
(466,420,l),
(235,420,l),
(235,420,o),
(15,432,o),
(96,161,cs),
(101,145,o),
(123,96,o),
(169,0,c)
);
}
);
width = 559;
},
{
layerId = "C2F00A16-B8FC-45C7-B93F-EF9B74B5AB22";
shapes = (
{
attr = {
lineCapEnd = 4;
strokeWidth = 80;
};
closed = 0;
nodes = (
(518,626,l),
(518,0,l)
);
},
{
attr = {
lineCapEnd = 4;
strokeWidth = 80;
};
closed = 0;
nodes = (
(-57,660,l),
(749,660,l)
);
},
{
attr = {
lineCapEnd = 4;
strokeWidth = 80;
};
closed = 0;
nodes = (
(536,420,l),
(222,420,l),
(222,420,o),
(27,432,o),
(116,190,cs),
(122,174,o),
(165,91,o),
(223,0,c)
);
}
);
width = 719;
},
{
layerId = "0F5BFDAC-7F6A-4DA8-AB27-34DF6552C2B9";
width = 600;
}
);
unicode = 2340;
},
{
color = (153,154,255,255);
glyphname = "tha-deva";
lastChange = "2026-04-13 05:41:36 +0000";
layers = (
{
associatedMasterId = "C2F00A16-B8FC-45C7-B93F-EF9B74B5AB22";
guides = (
{
pos = (0,112);
}
);
layerId = "36EA3D75-F920-4DC1-A723-CC5553715AE8";
name = "11";
shapes = (
{
attr = {
strokeWidth = 80;
};
closed = 0;
nodes = (
(397,660,l),
(655,660,l)
);
},
{
attr = {
strokeWidth = 80;
};
closed = 0;
nodes = (
(119,545,l),
(119,600,o),
(143,664,o),
(221,664,cs),
(359,664,o),
(382,355,o),
(114,382,c)
);
},
{
attr = {
strokeWidth = 80;
};
closed = 0;
nodes = (
(520,627,l),
(520,0,l)
);
},
{
attr = {
strokeWidth = 80;
};
closed = 0;
nodes = (
(121,421,l),
(120,273,o),
(193,164,o),
(342,166,cs),
(473,168,o),
(511,257,o),
(520,316,c)
);
}
);
width = 639;
},
{
associatedMasterId = "C2F00A16-B8FC-45C7-B93F-EF9B74B5AB22";
guides = (
{
pos = (0,112);
}
);
layerId = "CAE1915B-9FDE-4489-97BD-7D6B90151569";
name = "10";
shapes = (
{
attr = {
strokeWidth = 80;
};
closed = 0;
nodes = (
(397,660,l),
(655,660,l)
);
},
{
attr = {
strokeWidth = 80;
};
closed = 0;
nodes = (
(119,545,l),
(119,600,o),
(143,664,o),
(221,664,cs),
(359,664,o),
(382,355,o),
(114,382,c)
);
},
{
attr = {
strokeWidth = 80;
};
closed = 0;
nodes = (
(520,627,l),
(520,0,l)
);
},
{
attr = {
strokeWidth = 80;
};
closed = 0;
nodes = (
(121,421,l),
(120,273,o),
(193,164,o),
(342,166,cs),
(473,168,o),
(511,257,o),
(520,316,c)
);
}
);
width = 639;
},
{
associatedMasterId = "C2F00A16-B8FC-45C7-B93F-EF9B74B5AB22";
guides = (
{
pos = (0,112);
}
);
layerId = "260935F4-0920-4742-A130-A8234FBF7728";
name = "9";
shapes = (
{
attr = {
strokeWidth = 80;
};
closed = 0;
nodes = (
(397,660,l),
(655,660,l)
);
},
{
attr = {
strokeWidth = 80;
};
closed = 0;
nodes = (
(119,545,l),
(119,600,o),
(143,664,o),
(221,664,cs),
(359,664,o),
(382,355,o),
(114,382,c)
);
},
{
attr = {
strokeWidth = 80;
};
closed = 0;
nodes = (
(520,627,l),
(520,0,l)
);
},
{
attr = {
strokeWidth = 80;
};
closed = 0;
nodes = (
(121,417,l),
(120,269,o),
(193,160,o),
(342,162,cs),
(473,164,o),
(511,257,o),
(520,316,c)
);
}
);
width = 639;
},
{
associatedMasterId = "C2F00A16-B8FC-45C7-B93F-EF9B74B5AB22";
guides = (
{
pos = (0,112);
}
);
layerId = "79D9A9A0-51C8-477C-8261-CB1E9E61E647";
name = "8";
shapes = (
{
attr = {
strokeWidth = 80;
};
closed = 0;
nodes = (
(397,660,l),
(655,660,l)
);
},
{
attr = {
strokeWidth = 80;
};
closed = 0;
nodes = (
(119,545,l),
(119,600,o),
(143,664,o),
(221,664,cs),
(359,664,o),
(382,355,o),
(114,382,c)
);
},
{
attr = {
strokeWidth = 80;
};
closed = 0;
nodes = (
(520,627,l),
(520,0,l)
);
},
{
attr = {
strokeWidth = 80;
};
closed = 0;
nodes = (
(121,421,l),
(120,273,o),
(205,173,o),
(342,176,cs),
(450,178,o),
(511,248,o),
(520,307,c)
);
}
);
width = 639;
},
{
associatedMasterId = "C2F00A16-B8FC-45C7-B93F-EF9B74B5AB22";
guides = (
{
pos = (0,112);
}
);
layerId = "B0096FDF-59B7-4C62-87EE-8D10DBD6B80A";
name = "7";
shapes = (
{
attr = {
strokeWidth = 80;
};
closed = 0;
nodes = (
(397,660,l),
(655,660,l)
);
},
{
attr = {
strokeWidth = 80;
};
closed = 0;
nodes = (
(119,545,l),
(119,600,o),
(143,664,o),
(221,664,cs),
(359,664,o),
(374,348,o),
(114,378,c)
);
},
{
attr = {
strokeWidth = 80;
};
closed = 0;
nodes = (
(520,627,l),
(520,0,l)
);
},
{
attr = {
strokeWidth = 80;
};
closed = 0;
nodes = (
(121,417,l),
(120,269,o),
(205,173,o),
(342,176,cs),
(450,178,o),
(511,248,o),
(520,307,c)
);
}
);
width = 639;
},
{
associatedMasterId = "C2F00A16-B8FC-45C7-B93F-EF9B74B5AB22";
layerId = "74A7CB8F-5DF7-4588-B7E3-78EF3C7FB18D";
name = "6";
shapes = (
{
attr = {
strokeWidth = 80;
};
closed = 0;
nodes = (
(519,627,l),
(519,0,l)
);
},
{
attr = {
strokeWidth = 80;
};
closed = 0;
nodes = (
(367,660,l),
(655,660,l)
);
},
{
attr = {
strokeWidth = 80;
};
closed = 0;
nodes = (
(73,561,l),
(73,616,o),
(92,666,o),
(167,667,c),
(272,664,o),
(271,555,o),
(263,488,cs),
(250,382,o),
(132,342,o),
(63,342,c)
);
},
{
attr = {
strokeWidth = 80;
};
closed = 0;
nodes = (
(76,384,l),
(76,245,o),
(186,192,o),
(308,183,cs),
(431,174,o),
(502,238,o),
(519,307,c)
);
}
);
width = 639;
},
{
associatedMasterId = "C2F00A16-B8FC-45C7-B93F-EF9B74B5AB22";
layerId = "16D08582-E3A6-4222-91FC-A2475832A6BD";
name = "3";
shapes = (
{
attr = {
strokeWidth = 80;
};
closed = 0;
nodes = (
(519,627,l),
(519,0,l)
);
},
{
attr = {
strokeWidth = 80;
};
closed = 0;
nodes = (
(367,660,l),
(655,660,l)
);
},
{
attr = {
strokeWidth = 80;
};
closed = 0;
nodes = (
(73,561,l),
(73,616,o),
(92,662,o),
(167,663,c),
(272,660,o),
(278,566,o),
(265,500,cs),
(247,406,o),
(132,362,o),
(63,362,c)
);
},
{
attr = {
strokeWidth = 80;
};
closed = 0;
nodes = (
(76,404,l),
(76,265,o),
(186,192,o),
(308,183,cs),
(431,174,o),
(502,238,o),
(519,307,c)
);
}
);
width = 639;
},
{
associatedMasterId = "C2F00A16-B8FC-45C7-B93F-EF9B74B5AB22";
layerId = "4170FEE2-2F45-413A-BF89-0C4C760EB048";
name = "1";
shapes = (
{
attr = {
strokeWidth = 80;
};
closed = 0;
nodes = (
(519,627,l),
(519,0,l)
);
},
{
attr = {
strokeWidth = 80;
};
closed = 0;
nodes = (
(398,660,l),
(711,660,l)
);
},
{
attr = {
strokeWidth = 80;
};
closed = 0;
nodes = (
(92,408,l),
(92,269,o),
(186,192,o),
(308,183,cs),
(431,174,o),
(508,225,o),
(519,307,c)
);
},
{
attr = {
strokeWidth = 80;
};
closed = 0;
nodes = (
(-10,660,l),
(147,660,ls),
(262,660,o),
(278,552,o),
(261,486,cs),
(241,408,o),
(148,366,o),
(79,366,c)
);
}
);
width = 679;
},
{
associatedMasterId = "C2F00A16-B8FC-45C7-B93F-EF9B74B5AB22";
layerId = "74287EE6-C037-4679-A01B-34EB5C0D0D36";
name = "4";
shapes = (
{
attr = {
strokeWidth = 160;
};
closed = 0;
nodes = (
(559,587,l),
(559,0,l)
);
},
{
attr = {
strokeWidth = 160;
};
closed = 0;
nodes = (
(398,620,l),
(736,620,l)
);
},
{
attr = {
strokeWidth = 160;
};
closed = 0;
nodes = (
(101,401,l),
(101,262,o),
(186,144,o),
(308,133,cs),
(459,119,o),
(548,185,o),
(559,267,c)
);
},
{
attr = {
strokeWidth = 160;
};
closed = 0;
nodes = (
(-10,620,l),
(147,620,ls),
(262,620,o),
(310,515,o),
(294,436,cs),
(271,324,o),
(178,320,o),
(109,320,c)
);
}
);
width = 719;
},
{
associatedMasterId = "C2F00A16-B8FC-45C7-B93F-EF9B74B5AB22";
layerId = "9E252814-83E5-476D-BD5F-9B74F315E1C1";
name = "5";
shapes = (
{
attr = {
strokeWidth = 20;
};
closed = 0;
nodes = (
(549,687,l),
(549,0,l)
);
},
{
attr = {
strokeWidth = 20;
};
closed = 0;
nodes = (
(398,690,l),
(654,690,l)
);
},
{
attr = {
strokeWidth = 20;
};
closed = 0;
nodes = (
(-10,690,l),
(147,690,ls),
(262,690,o),
(278,552,o),
(261,486,cs),
(241,408,o),
(148,405,o),
(79,405,c),
(79,266,o),
(176,182,o),
(298,173,cs),
(421,164,o),
(538,248,o),
(549,330,c)
);
}
);
width = 639;
},
{
associatedMasterId = "C2F00A16-B8FC-45C7-B93F-EF9B74B5AB22";
layerId = "942694AB-FFF7-456E-A631-DD70D9BC4F03";
name = "2";
shapes = (
{
attr = {
strokeWidth = 80;
};
closed = 0;
nodes = (
(519,627,l),
(519,0,l)
);
},
{
attr = {
strokeWidth = 80;
};
closed = 0;
nodes = (
(398,660,l),
(654,660,l)
);
},
{
attr = {
strokeWidth = 80;
};
closed = 0;
nodes = (
(92,408,l),
(92,269,o),
(186,192,o),
(308,183,cs),
(431,174,o),
(508,225,o),
(519,307,c)
);
},
{
attr = {
strokeWidth = 80;
};
closed = 0;
nodes = (
(-10,660,l),
(147,660,ls),
(262,660,o),
(278,552,o),
(261,486,cs),
(241,408,o),
(148,366,o),
(79,366,c)
);
}
);
width = 639;
},
{
layerId = "C2F00A16-B8FC-45C7-B93F-EF9B74B5AB22";
shapes = (
{
attr = {
strokeWidth = 80;
};
closed = 0;
nodes = (
(519,627,l),
(519,0,l)
);
},
{
attr = {
strokeWidth = 80;
};
closed = 0;
nodes = (
(367,660,l),
(718,660,l)
);
},
{
attr = {
strokeWidth = 80;
};
closed = 0;
nodes = (
(73,561,l),
(73,616,o),
(92,662,o),
(167,663,c),
(272,660,o),
(278,566,o),
(265,500,cs),
(247,406,o),
(132,362,o),
(63,362,c)
);
},
{
attr = {
strokeWidth = 80;
};
closed = 0;
nodes = (
(76,404,l),
(76,265,o),
(186,192,o),
(308,183,cs),
(431,174,o),
(502,238,o),
(519,307,c)
);
}
);
width = 677;
},
{
layerId = "0F5BFDAC-7F6A-4DA8-AB27-34DF6552C2B9";
width = 600;
}
);
unicode = 2341;
},
{
color = (153,154,255,255);
glyphname = "da-deva";
lastChange = "2026-04-13 05:41:36 +0000";
layers = (
{
associatedMasterId = "C2F00A16-B8FC-45C7-B93F-EF9B74B5AB22";
layerId = "9300FAC6-FEC4-44F5-A538-3181D0B9F4F0";
name = "11";
shapes = (
{
attr = {
strokeWidth = 80;
};
closed = 0;
nodes = (
(-13,660,l),
(575,660,l)
);
},
{
attr = {
strokeWidth = 80;
};
closed = 0;
nodes = (
(438,637,l),
(438,479,l),
(250,481,l),
(250,481,o),
(141,480,o),
(114,410,cs),
(77,316,o),
(110,240,o),
(140,205,cs),
(204,131,o),
(364,116,o),
(451,168,c)
);
},
{
attr = {
strokeWidth = 80;
};
closed = 0;
nodes = (
(438,266,l),
(438,0,l)
);
}
);
width = 560;
},
{
associatedMasterId = "C2F00A16-B8FC-45C7-B93F-EF9B74B5AB22";
layerId = "CAE1915B-9FDE-4489-97BD-7D6B90151569";
name = "10";
shapes = (
{
attr = {
strokeWidth = 80;
};
closed = 0;
nodes = (
(-13,660,l),
(575,660,l)
);
},
{
attr = {
strokeWidth = 80;
};
closed = 0;
nodes = (
(438,637,l),
(438,479,l),
(250,481,l),
(250,481,o),
(141,480,o),
(114,410,cs),
(77,316,o),
(110,240,o),
(140,205,cs),
(209,125,o),
(355,110,o),
(451,168,c)
);
},
{
attr = {
strokeWidth = 80;
};
closed = 0;
nodes = (
(422,244,l),
(446,163,o),
(448,86,o),
(498,24,c)
);
},
{
attr = {
strokeWidth = 80;
};
closed = 0;
nodes = (
(440,169,ls),
(421,220,o),
(495,260,o),
(423,254,cs),
(392,251,o),
(439,172,o),
(461,159,cs)
);
}
);
width = 560;
},
{
associatedMasterId = "C2F00A16-B8FC-45C7-B93F-EF9B74B5AB22";
layerId = "260935F4-0920-4742-A130-A8234FBF7728";
name = "9";
shapes = (
{
attr = {
strokeWidth = 80;
};
closed = 0;
nodes = (
(-13,660,l),
(559,660,l)
);
},
{
attr = {
strokeWidth = 80;
};
closed = 0;
nodes = (
(438,637,l),
(438,479,l),
(250,481,l),
(250,481,o),
(135,481,o),
(98,410,cs),
(51,320,o),
(94,245,o),
(124,210,cs),
(193,130,o),
(355,115,o),
(451,173,c)
);
},
{
attr = {
strokeWidth = 80;
};
closed = 0;
nodes = (
(438,266,l),
(438,0,l)
);
}
);
width = 539;
},
{
associatedMasterId = "C2F00A16-B8FC-45C7-B93F-EF9B74B5AB22";
layerId = "79D9A9A0-51C8-477C-8261-CB1E9E61E647";
name = "8";
shapes = (
{
attr = {
strokeWidth = 80;
};
closed = 0;
nodes = (
(-13,660,l),
(575,660,l)
);
},
{
attr = {
strokeWidth = 80;
};
closed = 0;
nodes = (
(438,637,l),
(438,479,l),
(250,481,l),
(250,481,o),
(141,480,o),
(114,410,cs),
(77,316,o),
(110,240,o),
(140,205,cs),
(204,131,o),
(364,116,o),
(451,168,c)
);
},
{
attr = {
strokeWidth = 80;
};
closed = 0;
nodes = (
(438,266,l),
(438,0,l)
);
}
);
width = 560;
},
{
associatedMasterId = "C2F00A16-B8FC-45C7-B93F-EF9B74B5AB22";
layerId = "B0096FDF-59B7-4C62-87EE-8D10DBD6B80A";
name = "7";
shapes = (
{
attr = {
strokeWidth = 80;
};
closed = 0;
nodes = (
(-13,660,l),
(575,660,l)
);
},
{
attr = {
strokeWidth = 80;
};
closed = 0;
nodes = (
(438,637,l),
(438,459,l),
(250,461,l),
(250,461,o),
(131,461,o),
(107,390,cs),
(77,302,o),
(110,240,o),
(140,205,cs),
(204,131,o),
(364,116,o),
(451,168,c)
);
},
{
attr = {
strokeWidth = 80;
};
closed = 0;
nodes = (
(438,266,l),
(438,0,l)
);
}
);
width = 560;
},
{
associatedMasterId = "C2F00A16-B8FC-45C7-B93F-EF9B74B5AB22";
layerId = "74A7CB8F-5DF7-4588-B7E3-78EF3C7FB18D";
name = "6";
shapes = (
{
attr = {
strokeWidth = 80;
};
closed = 0;
nodes = (
(-13,660,l),
(575,660,l)
);
},
{
attr = {
strokeWidth = 80;
};
closed = 0;
nodes = (
(438,637,l),
(438,479,l),
(250,481,l),
(250,481,o),
(151,461,o),
(127,390,cs),
(97,302,o),
(130,240,o),
(160,205,cs),
(224,131,o),
(364,116,o),
(451,168,c)
);
},
{
attr = {
strokeWidth = 80;
};
closed = 0;
nodes = (
(438,318,l),
(438,0,l)
);
}
);
width = 560;
},
{
associatedMasterId = "C2F00A16-B8FC-45C7-B93F-EF9B74B5AB22";
layerId = "16D08582-E3A6-4222-91FC-A2475832A6BD";
name = "3";
shapes = (
{
attr = {
strokeWidth = 80;
};
closed = 0;
nodes = (
(-13,660,l),
(575,660,l)
);
},
{
attr = {
strokeWidth = 80;
};
closed = 0;
nodes = (
(438,637,l),
(438,479,l),
(250,481,l),
(250,481,o),
(151,461,o),
(127,390,cs),
(97,302,o),
(130,240,o),
(160,205,cs),
(224,131,o),
(364,116,o),
(451,168,c)
);
},
{
attr = {
strokeWidth = 80;
};
closed = 0;
nodes = (
(438,318,l),
(438,0,l)
);
}
);
width = 560;
},
{
associatedMasterId = "C2F00A16-B8FC-45C7-B93F-EF9B74B5AB22";
layerId = "4170FEE2-2F45-413A-BF89-0C4C760EB048";
name = "1";
shapes = (
{
attr = {
strokeWidth = 80;
};
closed = 0;
nodes = (
(-13,660,l),
(575,660,l)
);
},
{
attr = {
strokeWidth = 80;
};
closed = 0;
nodes = (
(438,637,l),
(438,479,l),
(230,481,l),
(230,481,o),
(140,433,o),
(124,356,cs),
(106,267,o),
(131,228,o),
(160,192,cs),
(224,114,o),
(364,99,o),
(451,153,c)
);
},
{
attr = {
strokeWidth = 80;
};
closed = 0;
nodes = (
(438,239,l),
(438,0,l)
);
}
);
width = 559;
},
{
associatedMasterId = "C2F00A16-B8FC-45C7-B93F-EF9B74B5AB22";
layerId = "74287EE6-C037-4679-A01B-34EB5C0D0D36";
name = "4";
shapes = (
{
attr = {
strokeWidth = 160;
};
closed = 0;
nodes = (
(441,146,l),
(349,115,o),
(212,102,o),
(149,167,c),
(129,189,o),
(95,231,o),
(102,297,cs),
(113,400,o),
(206,419,o),
(206,419,c),
(400,419,l),
(400,587,l)
);
},
{
attr = {
strokeWidth = 160;
};
closed = 0;
nodes = (
(397,250,l),
(397,9,l)
);
},
{
attr = {
strokeWidth = 160;
};
closed = 0;
nodes = (
(-12,620,l),
(579,620,l)
);
}
);
width = 560;
},
{
associatedMasterId = "C2F00A16-B8FC-45C7-B93F-EF9B74B5AB22";
layerId = "9E252814-83E5-476D-BD5F-9B74F315E1C1";
name = "5";
shapes = (
{
attr = {
strokeWidth = 20;
};
closed = 0;
nodes = (
(481,242,l),
(481,-83,l)
);
},
{
attr = {
strokeWidth = 20;
};
closed = 0;
nodes = (
(-12,690,l),
(637,690,l)
);
},
{
attr = {
strokeWidth = 20;
};
closed = 0;
nodes = (
(438,687,l),
(438,499,l),
(244,501,l),
(244,501,o),
(104,460,o),
(77,335,cs),
(57,240,o),
(86,132,o),
(127,88,cs),
(240,-35,o),
(424,-5,o),
(481,90,c)
);
}
);
width = 560;
},
{
associatedMasterId = "C2F00A16-B8FC-45C7-B93F-EF9B74B5AB22";
layerId = "942694AB-FFF7-456E-A631-DD70D9BC4F03";
name = "2";
shapes = (
{
attr = {
strokeWidth = 80;
};
closed = 0;
nodes = (
(-13,660,l),
(575,660,l)
);
},
{
attr = {
strokeWidth = 80;
};
closed = 0;
nodes = (
(438,637,l),
(438,479,l),
(250,481,l),
(250,481,o),
(151,461,o),
(127,390,cs),
(97,302,o),
(130,240,o),
(160,205,cs),
(224,131,o),
(364,116,o),
(451,168,c)
);
},
{
attr = {
strokeWidth = 80;
};
closed = 0;
nodes = (
(438,241,l),
(438,0,l)
);
}
);
width = 560;
},
{
layerId = "C2F00A16-B8FC-45C7-B93F-EF9B74B5AB22";
shapes = (
{
attr = {
strokeWidth = 80;
};
closed = 0;
nodes = (
(-47,660,l),
(665,660,l)
);
},
{
attr = {
strokeWidth = 80;
};
closed = 0;
nodes = (
(438,637,l),
(438,459,l),
(254,461,l),
(254,461,o),
(164,436,o),
(148,359,cs),
(130,270,o),
(155,231,o),
(184,195,cs),
(248,117,o),
(364,102,o),
(451,156,c)
);
},
{
attr = {
strokeWidth = 80;
};
closed = 0;
nodes = (
(438,299,l),
(438,-46,l)
);
}
);
width = 601;
},
{
layerId = "0F5BFDAC-7F6A-4DA8-AB27-34DF6552C2B9";
width = 600;
}
);
unicode = 2342;
},
{
color = (153,154,255,255);
glyphname = "dha-deva";
lastChange = "2026-04-13 05:41:36 +0000";
layers = (
{
associatedMasterId = "C2F00A16-B8FC-45C7-B93F-EF9B74B5AB22";
layerId = "36EA3D75-F920-4DC1-A723-CC5553715AE8";
name = "11";
shapes = (
{
attr = {
strokeWidth = 80;
};
closed = 0;
nodes = (
(437,660,l),
(712,660,l)
);
},
{
attr = {
strokeWidth = 80;
};
closed = 0;
nodes = (
(559,627,l),
(559,0,l)
);
},
{
attr = {
strokeWidth = 80;
};
closed = 0;
nodes = (
(332,422,l),
(53,388,o),
(79,665,o),
(240,665,cs),
(332,665,o),
(327,580,o),
(327,559,c)
);
},
{
attr = {
strokeWidth = 80;
};
closed = 0;
nodes = (
(359,422,l),
(241,422,o),
(183,378,o),
(175,312,cs),
(158,168,o),
(287,150,o),
(372,156,cs),
(526,167,o),
(552,277,o),
(559,349,c)
);
}
);
width = 683;
},
{
associatedMasterId = "C2F00A16-B8FC-45C7-B93F-EF9B74B5AB22";
layerId = "CAE1915B-9FDE-4489-97BD-7D6B90151569";
name = "10";
shapes = (
{
attr = {
strokeWidth = 80;
};
closed = 0;
nodes = (
(437,660,l),
(712,660,l)
);
},
{
attr = {
strokeWidth = 80;
};
closed = 0;
nodes = (
(559,627,l),
(559,0,l)
);
},
{
attr = {
strokeWidth = 80;
};
closed = 0;
nodes = (
(332,422,l),
(53,388,o),
(79,665,o),
(240,665,cs),
(332,665,o),
(327,580,o),
(327,559,c)
);
},
{
attr = {
strokeWidth = 80;
};
closed = 0;
nodes = (
(359,422,l),
(241,422,o),
(183,378,o),
(175,312,cs),
(158,168,o),
(287,149,o),
(372,155,cs),
(466,162,o),
(559,204,o),
(559,348,c)
);
}
);
width = 683;
},
{
associatedMasterId = "C2F00A16-B8FC-45C7-B93F-EF9B74B5AB22";
layerId = "260935F4-0920-4742-A130-A8234FBF7728";
name = "9";
shapes = (
{
attr = {
strokeWidth = 80;
};
closed = 0;
nodes = (
(437,660,l),
(712,660,l)
);
},
{
attr = {
strokeWidth = 80;
};
closed = 0;
nodes = (
(559,627,l),
(559,0,l)
);
},
{
attr = {
strokeWidth = 80;
};
closed = 0;
nodes = (
(319,422,l),
(40,388,o),
(51,663,o),
(215,663,cs),
(307,663,o),
(314,580,o),
(314,559,c)
);
},
{
attr = {
strokeWidth = 80;
};
closed = 0;
nodes = (
(346,422,l),
(228,422,o),
(170,378,o),
(162,312,cs),
(145,168,o),
(274,154,o),
(359,154,cs),
(518,154,o),
(552,277,o),
(559,349,c)
);
}
);
width = 683;
},
{
associatedMasterId = "C2F00A16-B8FC-45C7-B93F-EF9B74B5AB22";
layerId = "79D9A9A0-51C8-477C-8261-CB1E9E61E647";
name = "8";
shapes = (
{
attr = {
strokeWidth = 80;
};
closed = 0;
nodes = (
(437,660,l),
(712,660,l)
);
},
{
attr = {
strokeWidth = 80;
};
closed = 0;
nodes = (
(559,627,l),
(559,0,l)
);
},
{
attr = {
strokeWidth = 80;
};
closed = 0;
nodes = (
(332,422,l),
(53,388,o),
(79,665,o),
(240,665,cs),
(332,665,o),
(327,580,o),
(327,559,c)
);
},
{
attr = {
strokeWidth = 80;
};
closed = 0;
nodes = (
(359,422,l),
(241,422,o),
(183,378,o),
(175,312,cs),
(158,168,o),
(287,150,o),
(372,156,cs),
(526,167,o),
(552,277,o),
(559,349,c)
);
}
);
width = 683;
},
{
associatedMasterId = "C2F00A16-B8FC-45C7-B93F-EF9B74B5AB22";
layerId = "B0096FDF-59B7-4C62-87EE-8D10DBD6B80A";
name = "7";
shapes = (
{
attr = {
strokeWidth = 80;
};
closed = 0;
nodes = (
(437,660,l),
(712,660,l)
);
},
{
attr = {
strokeWidth = 80;
};
closed = 0;
nodes = (
(559,627,l),
(559,0,l)
);
},
{
attr = {
strokeWidth = 80;
};
closed = 0;
nodes = (
(332,422,l),
(53,388,o),
(79,665,o),
(240,665,cs),
(332,665,o),
(327,580,o),
(327,559,c)
);
},
{
attr = {
strokeWidth = 80;
};
closed = 0;
nodes = (
(359,422,l),
(241,422,o),
(183,378,o),
(175,312,cs),
(158,168,o),
(287,150,o),
(372,156,cs),
(526,167,o),
(552,277,o),
(559,349,c)
);
}
);
width = 683;
},
{
associatedMasterId = "C2F00A16-B8FC-45C7-B93F-EF9B74B5AB22";
layerId = "74A7CB8F-5DF7-4588-B7E3-78EF3C7FB18D";
name = "6";
shapes = (
{
attr = {
strokeWidth = 80;
};
closed = 0;
nodes = (
(598,627,l),
(598,0,l)
);
},
{
attr = {
strokeWidth = 80;
};
closed = 0;
nodes = (
(437,660,l),
(741,660,l)
);
},
{
attr = {
strokeWidth = 80;
};
closed = 0;
nodes = (
(365,419,l),
(365,419,o),
(211,346,o),
(143,452,cs),
(81,549,o),
(154,667,o),
(243,667,cs),
(325,667,o),
(342,605,o),
(342,566,c)
);
},
{
attr = {
strokeWidth = 80;
};
closed = 0;
nodes = (
(322,404,l),
(202,370,o),
(189,265,o),
(202,218,cs),
(215,171,o),
(266,109,o),
(380,109,cs),
(525,109,o),
(575,204,o),
(599,264,c)
);
}
);
width = 720;
},
{
associatedMasterId = "C2F00A16-B8FC-45C7-B93F-EF9B74B5AB22";
layerId = "16D08582-E3A6-4222-91FC-A2475832A6BD";
name = "3";
shapes = (
{
attr = {
strokeWidth = 80;
};
closed = 0;
nodes = (
(598,627,l),
(598,0,l)
);
},
{
attr = {
strokeWidth = 80;
};
closed = 0;
nodes = (
(437,660,l),
(741,660,l)
);
},
{
attr = {
strokeWidth = 80;
};
closed = 0;
nodes = (
(365,419,l),
(365,419,o),
(211,346,o),
(143,452,cs),
(81,549,o),
(154,667,o),
(243,667,c),
(325,667,o),
(342,605,o),
(342,566,c)
);
},
{
attr = {
strokeWidth = 80;
};
closed = 0;
nodes = (
(322,404,l),
(202,370,o),
(189,265,o),
(202,218,cs),
(215,171,o),
(266,109,o),
(380,109,cs),
(525,109,o),
(575,204,o),
(599,264,c)
);
}
);
width = 720;
},
{
associatedMasterId = "C2F00A16-B8FC-45C7-B93F-EF9B74B5AB22";
layerId = "4170FEE2-2F45-413A-BF89-0C4C760EB048";
name = "1";
shapes = (
{
attr = {
strokeWidth = 80;
};
closed = 0;
nodes = (
(598,627,l),
(598,0,l)
);
},
{
attr = {
strokeWidth = 80;
};
closed = 0;
nodes = (
(397,660,l),
(796,660,l)
);
},
{
attr = {
strokeWidth = 80;
};
closed = 0;
nodes = (
(322,404,l),
(202,370,o),
(187,286,o),
(199,219,cs),
(208,171,o),
(268,99,o),
(382,99,cs),
(527,99,o),
(575,204,o),
(599,264,c)
);
},
{
attr = {
strokeWidth = 80;
};
closed = 0;
nodes = (
(-12,660,l),
(240,660,l),
(151,660,o),
(81,549,o),
(143,452,cs),
(211,346,o),
(365,419,o),
(365,419,c)
);
}
);
width = 760;
},
{
associatedMasterId = "C2F00A16-B8FC-45C7-B93F-EF9B74B5AB22";
layerId = "74287EE6-C037-4679-A01B-34EB5C0D0D36";
name = "4";
shapes = (
{
attr = {
strokeWidth = 160;
};
closed = 0;
nodes = (
(320,622,l),
(818,620,l)
);
},
{
attr = {
strokeWidth = 160;
};
closed = 0;
nodes = (
(639,587,l),
(639,20,l)
);
},
{
attr = {
strokeWidth = 160;
};
closed = 0;
nodes = (
(370,387,l),
(370,387,o),
(181,314,o),
(124,426,cs),
(68,536,o),
(164,619,o),
(253,619,c),
(-19,619,l)
);
},
{
attr = {
strokeWidth = 160;
};
closed = 0;
nodes = (
(343,377,l),
(223,343,o),
(191,284,o),
(211,214,cs),
(234,133,o),
(343,99,o),
(429,106,cs),
(588,119,o),
(632,239,o),
(639,319,c)
);
}
);
width = 799;
},
{
associatedMasterId = "C2F00A16-B8FC-45C7-B93F-EF9B74B5AB22";
layerId = "9E252814-83E5-476D-BD5F-9B74F315E1C1";
name = "5";
shapes = (
{
attr = {
strokeWidth = 20;
};
closed = 0;
nodes = (
(599,680,l),
(599,0,l)
);
},
{
attr = {
strokeWidth = 20;
};
closed = 0;
nodes = (
(397,690,l),
(744,690,l)
);
},
{
attr = {
strokeWidth = 20;
};
closed = 0;
nodes = (
(355,439,l),
(355,439,o),
(200,366,o),
(132,472,cs),
(70,569,o),
(154,690,o),
(243,690,c),
(-16,690,l)
);
},
{
attr = {
strokeWidth = 20;
};
closed = 0;
nodes = (
(312,424,l),
(192,390,o),
(148,328,o),
(170,229,cs),
(188,146,o),
(295,82,o),
(396,91,cs),
(555,105,o),
(575,211,o),
(599,271,c)
);
}
);
width = 720;
},
{
associatedMasterId = "C2F00A16-B8FC-45C7-B93F-EF9B74B5AB22";
layerId = "942694AB-FFF7-456E-A631-DD70D9BC4F03";
name = "2";
shapes = (
{
attr = {
strokeWidth = 80;
};
closed = 0;
nodes = (
(598,627,l),
(598,0,l)
);
},
{
attr = {
strokeWidth = 80;
};
closed = 0;
nodes = (
(397,660,l),
(737,660,l)
);
},
{
attr = {
strokeWidth = 80;
};
closed = 0;
nodes = (
(322,404,l),
(202,370,o),
(187,286,o),
(199,219,cs),
(208,171,o),
(268,99,o),
(382,99,cs),
(527,99,o),
(575,204,o),
(599,264,c)
);
},
{
attr = {
strokeWidth = 80;
};
closed = 0;
nodes = (
(-12,660,l),
(240,660,l),
(151,660,o),
(81,549,o),
(143,452,cs),
(211,346,o),
(365,419,o),
(365,419,c)
);
}
);
width = 720;
},
{
layerId = "C2F00A16-B8FC-45C7-B93F-EF9B74B5AB22";
shapes = (
{
attr = {
strokeWidth = 80;
};
closed = 0;
nodes = (
(598,627,l),
(598,0,l)
);
},
{
attr = {
strokeWidth = 80;
};
closed = 0;
nodes = (
(437,660,l),
(831,660,l)
);
},
{
attr = {
strokeWidth = 80;
};
closed = 0;
nodes = (
(365,419,l),
(365,419,o),
(211,346,o),
(143,452,cs),
(81,549,o),
(154,667,o),
(243,667,c),
(325,667,o),
(342,605,o),
(342,566,c)
);
},
{
attr = {
strokeWidth = 80;
};
closed = 0;
nodes = (
(322,404,l),
(202,370,o),
(189,265,o),
(202,218,cs),
(215,171,o),
(266,109,o),
(380,109,cs),
(525,109,o),
(575,204,o),
(599,264,c)
);
}
);
width = 799;
},
{
layerId = "0F5BFDAC-7F6A-4DA8-AB27-34DF6552C2B9";
width = 600;
}
);
unicode = 2343;
},
{
color = (153,154,255,255);
glyphname = "na-deva";
lastChange = "2026-04-13 05:41:36 +0000";
layers = (
{
associatedMasterId = "C2F00A16-B8FC-45C7-B93F-EF9B74B5AB22";
layerId = "36EA3D75-F920-4DC1-A723-CC5553715AE8";
name = "11";
shapes = (
{
attr = {
strokeWidth = 80;
};
closed = 0;
nodes = (
(440,628,l),
(440,1,l)
);
},
{
attr = {
strokeWidth = 80;
};
closed = 0;
nodes = (
(-15,660,l),
(567,660,l)
);
},
{
attr = {
strokeWidth = 80;
};
closed = 0;
nodes = (
(471,361,l),
(117,361,ls),
(61,361,o),
(144,257,o),
(144,280,cs),
(145,346,l)
);
}
);
width = 558;
},
{
associatedMasterId = "C2F00A16-B8FC-45C7-B93F-EF9B74B5AB22";
layerId = "CAE1915B-9FDE-4489-97BD-7D6B90151569";
name = "10";
shapes = (
{
attr = {
strokeWidth = 80;
};
closed = 0;
nodes = (
(440,628,l),
(440,1,l)
);
},
{
attr = {
strokeWidth = 80;
};
closed = 0;
nodes = (
(-15,660,l),
(567,660,l)
);
},
{
attr = {
strokeWidth = 80;
};
closed = 0;
nodes = (
(471,361,l),
(117,361,ls),
(61,361,o),
(144,257,o),
(144,280,cs),
(145,346,l)
);
}
);
width = 558;
},
{
associatedMasterId = "C2F00A16-B8FC-45C7-B93F-EF9B74B5AB22";
layerId = "260935F4-0920-4742-A130-A8234FBF7728";
name = "9";
shapes = (
{
attr = {
strokeWidth = 80;
};
closed = 0;
nodes = (
(440,628,l),
(440,1,l)
);
},
{
attr = {
strokeWidth = 80;
};
closed = 0;
nodes = (
(-15,660,l),
(567,660,l)
);
},
{
attr = {
strokeWidth = 80;
};
closed = 0;
nodes = (
(471,361,l),
(117,361,ls),
(61,361,o),
(51,230,o),
(172,242,c)
);
}
);
width = 558;
},
{
associatedMasterId = "C2F00A16-B8FC-45C7-B93F-EF9B74B5AB22";
layerId = "79D9A9A0-51C8-477C-8261-CB1E9E61E647";
name = "8";
shapes = (
{
attr = {
strokeWidth = 80;
};
closed = 0;
nodes = (
(440,628,l),
(440,1,l)
);
},
{
attr = {
strokeWidth = 80;
};
closed = 0;
nodes = (
(-15,660,l),
(567,660,l)
);
},
{
attr = {
strokeWidth = 80;
};
closed = 0;
nodes = (
(471,361,l),
(117,361,ls),
(61,361,o),
(51,242,o),
(172,254,c)
);
}
);
width = 558;
},
{
associatedMasterId = "C2F00A16-B8FC-45C7-B93F-EF9B74B5AB22";
layerId = "B0096FDF-59B7-4C62-87EE-8D10DBD6B80A";
name = "7";
shapes = (
{
attr = {
strokeWidth = 80;
};
closed = 0;
nodes = (
(440,628,l),
(440,1,l)
);
},
{
attr = {
strokeWidth = 80;
};
closed = 0;
nodes = (
(-15,660,l),
(567,660,l)
);
},
{
attr = {
strokeWidth = 80;
};
closed = 0;
nodes = (
(471,361,l),
(127,361,ls),
(71,361,o),
(61,242,o),
(182,254,c)
);
}
);
width = 558;
},
{
associatedMasterId = "C2F00A16-B8FC-45C7-B93F-EF9B74B5AB22";
layerId = "74A7CB8F-5DF7-4588-B7E3-78EF3C7FB18D";
name = "6";
shapes = (
{
attr = {
strokeWidth = 80;
};
closed = 0;
nodes = (
(481,628,l),
(481,1,l)
);
},
{
attr = {
strokeWidth = 80;
};
closed = 0;
nodes = (
(-15,660,l),
(625,660,l)
);
},
{
attr = {
strokeWidth = 80;
};
closed = 0;
nodes = (
(445,361,l),
(137,361,ls),
(65,361,o),
(53,221,o),
(199,244,c),
(199,384,l)
);
}
);
width = 602;
},
{
associatedMasterId = "C2F00A16-B8FC-45C7-B93F-EF9B74B5AB22";
layerId = "16D08582-E3A6-4222-91FC-A2475832A6BD";
name = "3";
shapes = (
{
attr = {
strokeWidth = 80;
};
closed = 0;
nodes = (
(481,628,l),
(481,1,l)
);
},
{
attr = {
strokeWidth = 80;
};
closed = 0;
nodes = (
(-15,660,l),
(625,660,l)
);
},
{
attr = {
strokeWidth = 80;
};
closed = 0;
nodes = (
(445,399,l),
(137,399,ls),
(65,399,o),
(53,259,o),
(199,282,c),
(199,422,l)
);
}
);
width = 602;
},
{
associatedMasterId = "C2F00A16-B8FC-45C7-B93F-EF9B74B5AB22";
layerId = "4170FEE2-2F45-413A-BF89-0C4C760EB048";
name = "1";
shapes = (
{
attr = {
strokeWidth = 80;
};
closed = 0;
nodes = (
(438,628,l),
(438,1,l)
);
},
{
attr = {
strokeWidth = 80;
};
closed = 0;
nodes = (
(-15,660,l),
(633,660,l)
);
},
{
attr = {
strokeWidth = 80;
};
closed = 0;
nodes = (
(402,399,l),
(94,399,l),
(22,399,o),
(0,219,o),
(146,242,c)
);
}
);
width = 598;
},
{
associatedMasterId = "C2F00A16-B8FC-45C7-B93F-EF9B74B5AB22";
layerId = "74287EE6-C037-4679-A01B-34EB5C0D0D36";
name = "4";
shapes = (
{
attr = {
strokeWidth = 160;
};
closed = 0;
nodes = (
(481,628,l),
(481,1,l)
);
},
{
attr = {
strokeWidth = 160;
};
closed = 0;
nodes = (
(-15,660,l),
(625,660,l)
);
},
{
attr = {
strokeWidth = 160;
};
closed = 0;
nodes = (
(445,399,l),
(137,399,ls),
(65,399,o),
(50,247,o),
(160,281,cs),
(194,292,o),
(160,354,o),
(160,390,c)
);
}
);
width = 602;
},
{
associatedMasterId = "C2F00A16-B8FC-45C7-B93F-EF9B74B5AB22";
layerId = "9E252814-83E5-476D-BD5F-9B74F315E1C1";
name = "5";
shapes = (
{
attr = {
strokeWidth = 20;
};
closed = 0;
nodes = (
(481,680,l),
(481,1,l)
);
},
{
attr = {
strokeWidth = 20;
};
closed = 0;
nodes = (
(-15,690,l),
(625,690,l)
);
},
{
attr = {
strokeWidth = 20;
};
closed = 0;
nodes = (
(481,399,l),
(177,399,ls),
(105,399,o),
(92,281,o),
(200,281,c)
);
}
);
width = 602;
},
{
associatedMasterId = "C2F00A16-B8FC-45C7-B93F-EF9B74B5AB22";
layerId = "942694AB-FFF7-456E-A631-DD70D9BC4F03";
name = "2";
shapes = (
{
attr = {
strokeWidth = 80;
};
closed = 0;
nodes = (
(481,628,l),
(481,1,l)
);
},
{
attr = {
strokeWidth = 80;
};
closed = 0;
nodes = (
(-15,660,l),
(625,660,l)
);
},
{
attr = {
strokeWidth = 80;
};
closed = 0;
nodes = (
(445,399,l),
(137,399,ls),
(65,399,o),
(52,281,o),
(160,281,c)
);
}
);
width = 602;
},
{
layerId = "C2F00A16-B8FC-45C7-B93F-EF9B74B5AB22";
shapes = (
{
attr = {
strokeWidth = 80;
};
closed = 0;
nodes = (
(441,628,l),
(441,1,l)
);
},
{
attr = {
strokeWidth = 80;
};
closed = 0;
nodes = (
(-106,660,l),
(677,660,l)
);
},
{
attr = {
strokeWidth = 80;
};
closed = 0;
nodes = (
(405,389,l),
(137,389,l),
(56,380,o),
(47,188,o),
(203,221,cs)
);
}
);
width = 643;
},
{
layerId = "0F5BFDAC-7F6A-4DA8-AB27-34DF6552C2B9";
width = 600;
}
);
unicode = 2344;
},
